M48
; DRILL file {KiCad (5.1.6)-1} date 09/18/21 15:39:31
; FORMAT={-:-/ absolute / inch / decimal}
; #@! TF.CreationDate,2021-09-18T15:39:31+02:00
; #@! TF.GenerationSoftware,Kicad,Pcbnew,(5.1.6)-1
; #@! TF.FileFunction,Plated,1,2,PTH
FMAT,2
INCH
T1C0.0315
T2C0.0354
T3C0.0394
T4C0.0433
T5C0.1260
%
G90
G05
T1
X0.1772Y-0.3287
X0.4429Y-0.2559
X2.8445Y0.6693
X2.8445Y0.2693
X1.1417Y1.7717
X1.1417Y1.3717
X-0.9449Y0.6953
X-0.9449Y0.2953
X-0.374Y1.5354
X0.026Y1.5354
X1.8047Y0.6693
X2.2047Y0.6693
X1.1614Y0.6693
X1.1614Y0.2693
X0.1906Y1.2205
X0.5906Y1.2205
X-0.3543Y0.9843
X0.0457Y0.9843
X0.1906Y1.7717
X0.5906Y1.7717
X0.2102Y0.6693
X0.6102Y0.6693
T2
X0.8553Y0.6693
X0.9553Y0.6693
X2.4301Y0.6693
X2.5301Y0.6693
X0.8553Y1.2205
X0.9553Y1.2205
X0.8553Y1.7717
X0.9553Y1.7717
X-0.7102Y1.5354
X-0.6102Y1.5354
X-0.7102Y0.9843
X-0.6102Y0.9843
T3
X0.9055Y0.2264
X0.9055Y0.1264
X0.9055Y0.0264
X-0.6693Y0.1772
X-0.6693Y0.0772
X2.4803Y0.1787
X2.4803Y0.0787
T4
X-0.0622Y-0.0287
X-0.0622Y-0.1287
X0.0378Y-0.0287
X0.0378Y-0.1287
X0.1378Y-0.0287
X0.1378Y-0.1287
X0.2378Y-0.0287
X0.2378Y-0.1287
X0.3378Y-0.0287
X0.3378Y-0.1287
T5
X3.2776Y-0.2264
X-1.063Y2.1457
X-1.063Y-0.2165
X3.2677Y2.1457
T0
M30
