%TF.GenerationSoftware,KiCad,Pcbnew,(5.1.6)-1*%
%TF.CreationDate,2021-09-18T15:37:18+02:00*%
%TF.ProjectId,Frontplate_v1,46726f6e-7470-46c6-9174-655f76312e6b,1*%
%TF.SameCoordinates,PX4e33880PY85099e0*%
%TF.FileFunction,Soldermask,Bot*%
%TF.FilePolarity,Negative*%
%FSLAX46Y46*%
G04 Gerber Fmt 4.6, Leading zero omitted, Abs format (unit mm)*
G04 Created by KiCad (PCBNEW (5.1.6)-1) date 2021-09-18 15:37:18*
%MOMM*%
%LPD*%
G01*
G04 APERTURE LIST*
%TA.AperFunction,Profile*%
%ADD10C,0.150000*%
%TD*%
%ADD11C,1.850000*%
%ADD12O,1.700000X1.700000*%
%ADD13C,1.700000*%
%ADD14O,1.800000X1.800000*%
%ADD15R,1.800000X1.800000*%
%ADD16C,1.900000*%
%ADD17R,1.900000X1.900000*%
%ADD18C,5.700000*%
%ADD19R,2.100000X2.100000*%
%ADD20C,2.100000*%
G04 APERTURE END LIST*
D10*
X88000000Y59500000D02*
X-32000000Y59500000D01*
X88000000Y-10500000D02*
X88000000Y59500000D01*
X88000000Y-10500000D02*
X-32000000Y-10500000D01*
X-32000000Y-10500000D02*
X-32000000Y59500000D01*
D11*
X8580000Y-3270000D03*
X6040000Y-3270000D03*
X3500000Y-3270000D03*
X960000Y-3270000D03*
X-1580000Y-3270000D03*
X-1580000Y-730000D03*
X960000Y-730000D03*
X3500000Y-730000D03*
X6040000Y-730000D03*
X8580000Y-730000D03*
D12*
X72250000Y6840000D03*
D13*
X72250000Y17000000D03*
D12*
X45840000Y17000000D03*
D13*
X56000000Y17000000D03*
D14*
X63000000Y4540000D03*
D15*
X63000000Y2000000D03*
D16*
X64265000Y17000000D03*
D17*
X61725000Y17000000D03*
D18*
X83000000Y54500000D03*
X-27000000Y-5500000D03*
X83250000Y-5750000D03*
X-27000000Y54500000D03*
D14*
X-17000000Y1960000D03*
D15*
X-17000000Y4500000D03*
D19*
X-17000000Y-4000000D03*
D20*
X23000000Y-5500000D03*
D12*
X1160000Y25000000D03*
D13*
X-9000000Y25000000D03*
D12*
X660000Y39000000D03*
D13*
X-9500000Y39000000D03*
D12*
X4840000Y31000000D03*
D13*
X15000000Y31000000D03*
D12*
X5340000Y17000000D03*
D13*
X15500000Y17000000D03*
D12*
X4840000Y45000000D03*
D13*
X15000000Y45000000D03*
D12*
X29500000Y6840000D03*
D13*
X29500000Y17000000D03*
D12*
X29000000Y34840000D03*
D13*
X29000000Y45000000D03*
D12*
X-24000000Y17660000D03*
D13*
X-24000000Y7500000D03*
D14*
X23000000Y670000D03*
X23000000Y3210000D03*
D15*
X23000000Y5750000D03*
D16*
X-18040000Y25000000D03*
D17*
X-15500000Y25000000D03*
D16*
X-18040000Y39000000D03*
D17*
X-15500000Y39000000D03*
D16*
X24265000Y31000000D03*
D17*
X21725000Y31000000D03*
D16*
X24265000Y17000000D03*
D17*
X21725000Y17000000D03*
D16*
X24265000Y45000000D03*
D17*
X21725000Y45000000D03*
M02*
