%TF.GenerationSoftware,KiCad,Pcbnew,(5.1.6)-1*%
%TF.CreationDate,2021-09-18T15:37:18+02:00*%
%TF.ProjectId,Frontplate_v1,46726f6e-7470-46c6-9174-655f76312e6b,1*%
%TF.SameCoordinates,PX4e33880PY85099e0*%
%TF.FileFunction,Legend,Bot*%
%TF.FilePolarity,Positive*%
%FSLAX46Y46*%
G04 Gerber Fmt 4.6, Leading zero omitted, Abs format (unit mm)*
G04 Created by KiCad (PCBNEW (5.1.6)-1) date 2021-09-18 15:37:18*
%MOMM*%
%LPD*%
G01*
G04 APERTURE LIST*
%ADD10C,0.300000*%
%TA.AperFunction,Profile*%
%ADD11C,0.150000*%
%TD*%
%ADD12C,0.250000*%
%ADD13C,0.120000*%
%ADD14C,0.150000*%
G04 APERTURE END LIST*
D10*
X10214285Y55107143D02*
X10714285Y55107143D01*
X10714285Y54321429D02*
X10714285Y55821429D01*
X10000000Y55821429D01*
X9428571Y54321429D02*
X9428571Y55321429D01*
X9428571Y55035715D02*
X9357142Y55178572D01*
X9285714Y55250000D01*
X9142857Y55321429D01*
X9000000Y55321429D01*
X8285714Y54321429D02*
X8428571Y54392858D01*
X8500000Y54464286D01*
X8571428Y54607143D01*
X8571428Y55035715D01*
X8500000Y55178572D01*
X8428571Y55250000D01*
X8285714Y55321429D01*
X8071428Y55321429D01*
X7928571Y55250000D01*
X7857142Y55178572D01*
X7785714Y55035715D01*
X7785714Y54607143D01*
X7857142Y54464286D01*
X7928571Y54392858D01*
X8071428Y54321429D01*
X8285714Y54321429D01*
X7142857Y55321429D02*
X7142857Y54321429D01*
X7142857Y55178572D02*
X7071428Y55250000D01*
X6928571Y55321429D01*
X6714285Y55321429D01*
X6571428Y55250000D01*
X6500000Y55107143D01*
X6500000Y54321429D01*
X6000000Y55321429D02*
X5428571Y55321429D01*
X5785714Y55821429D02*
X5785714Y54535715D01*
X5714285Y54392858D01*
X5571428Y54321429D01*
X5428571Y54321429D01*
X4928571Y55321429D02*
X4928571Y53821429D01*
X4928571Y55250000D02*
X4785714Y55321429D01*
X4500000Y55321429D01*
X4357142Y55250000D01*
X4285714Y55178572D01*
X4214285Y55035715D01*
X4214285Y54607143D01*
X4285714Y54464286D01*
X4357142Y54392858D01*
X4500000Y54321429D01*
X4785714Y54321429D01*
X4928571Y54392858D01*
X3357142Y54321429D02*
X3500000Y54392858D01*
X3571428Y54535715D01*
X3571428Y55821429D01*
X2142857Y54321429D02*
X2142857Y55107143D01*
X2214285Y55250000D01*
X2357142Y55321429D01*
X2642857Y55321429D01*
X2785714Y55250000D01*
X2142857Y54392858D02*
X2285714Y54321429D01*
X2642857Y54321429D01*
X2785714Y54392858D01*
X2857142Y54535715D01*
X2857142Y54678572D01*
X2785714Y54821429D01*
X2642857Y54892858D01*
X2285714Y54892858D01*
X2142857Y54964286D01*
X1642857Y55321429D02*
X1071428Y55321429D01*
X1428571Y55821429D02*
X1428571Y54535715D01*
X1357142Y54392858D01*
X1214285Y54321429D01*
X1071428Y54321429D01*
X0Y54392858D02*
X142857Y54321429D01*
X428571Y54321429D01*
X571428Y54392858D01*
X642857Y54535715D01*
X642857Y55107143D01*
X571428Y55250000D01*
X428571Y55321429D01*
X142857Y55321429D01*
X0Y55250000D01*
X-71429Y55107143D01*
X-71429Y54964286D01*
X642857Y54821429D01*
X-357143Y54178572D02*
X-1500000Y54178572D01*
X-1714286Y55321429D02*
X-2071429Y54321429D01*
X-2428572Y55321429D01*
X-3785715Y54321429D02*
X-2928572Y54321429D01*
X-3357143Y54321429D02*
X-3357143Y55821429D01*
X-3214286Y55607143D01*
X-3071429Y55464286D01*
X-2928572Y55392858D01*
D11*
X88000000Y59500000D02*
X-32000000Y59500000D01*
X88000000Y-10500000D02*
X88000000Y59500000D01*
X88000000Y-10500000D02*
X-32000000Y-10500000D01*
X-32000000Y-10500000D02*
X-32000000Y59500000D01*
D12*
X12640000Y540000D02*
G75*
G03*
X12640000Y540000I-250000J0D01*
G01*
D13*
X13650000Y2300000D02*
X13650000Y-6300000D01*
X13650000Y2300000D02*
X-6650000Y2300000D01*
X-6650000Y2300000D02*
X-6650000Y-6300000D01*
X-6650000Y-6300000D02*
X13650000Y-6300000D01*
X72250000Y7880000D02*
X72250000Y8650000D01*
X72250000Y15960000D02*
X72250000Y15190000D01*
X70880000Y8650000D02*
X70880000Y15190000D01*
X73620000Y8650000D02*
X70880000Y8650000D01*
X73620000Y15190000D02*
X73620000Y8650000D01*
X70880000Y15190000D02*
X73620000Y15190000D01*
X46880000Y17000000D02*
X47650000Y17000000D01*
X54960000Y17000000D02*
X54190000Y17000000D01*
X47650000Y18370000D02*
X54190000Y18370000D01*
X47650000Y15630000D02*
X47650000Y18370000D01*
X54190000Y15630000D02*
X47650000Y15630000D01*
X54190000Y18370000D02*
X54190000Y15630000D01*
X-18200000Y-2800000D02*
X-18200000Y-5200000D01*
X-15800000Y-2800000D02*
X-18200000Y-2800000D01*
X-15800000Y-5200000D02*
X-15800000Y-2800000D01*
X-18200000Y-5200000D02*
X-15800000Y-5200000D01*
X24200000Y-5500000D02*
G75*
G03*
X24200000Y-5500000I-1200000J0D01*
G01*
X120000Y25000000D02*
X-650000Y25000000D01*
X-7960000Y25000000D02*
X-7190000Y25000000D01*
X-650000Y23630000D02*
X-7190000Y23630000D01*
X-650000Y26370000D02*
X-650000Y23630000D01*
X-7190000Y26370000D02*
X-650000Y26370000D01*
X-7190000Y23630000D02*
X-7190000Y26370000D01*
X-380000Y39000000D02*
X-1150000Y39000000D01*
X-8460000Y39000000D02*
X-7690000Y39000000D01*
X-1150000Y37630000D02*
X-7690000Y37630000D01*
X-1150000Y40370000D02*
X-1150000Y37630000D01*
X-7690000Y40370000D02*
X-1150000Y40370000D01*
X-7690000Y37630000D02*
X-7690000Y40370000D01*
X5880000Y31000000D02*
X6650000Y31000000D01*
X13960000Y31000000D02*
X13190000Y31000000D01*
X6650000Y32370000D02*
X13190000Y32370000D01*
X6650000Y29630000D02*
X6650000Y32370000D01*
X13190000Y29630000D02*
X6650000Y29630000D01*
X13190000Y32370000D02*
X13190000Y29630000D01*
X6380000Y17000000D02*
X7150000Y17000000D01*
X14460000Y17000000D02*
X13690000Y17000000D01*
X7150000Y18370000D02*
X13690000Y18370000D01*
X7150000Y15630000D02*
X7150000Y18370000D01*
X13690000Y15630000D02*
X7150000Y15630000D01*
X13690000Y18370000D02*
X13690000Y15630000D01*
X5880000Y45000000D02*
X6650000Y45000000D01*
X13960000Y45000000D02*
X13190000Y45000000D01*
X6650000Y46370000D02*
X13190000Y46370000D01*
X6650000Y43630000D02*
X6650000Y46370000D01*
X13190000Y43630000D02*
X6650000Y43630000D01*
X13190000Y46370000D02*
X13190000Y43630000D01*
X29500000Y7880000D02*
X29500000Y8650000D01*
X29500000Y15960000D02*
X29500000Y15190000D01*
X28130000Y8650000D02*
X28130000Y15190000D01*
X30870000Y8650000D02*
X28130000Y8650000D01*
X30870000Y15190000D02*
X30870000Y8650000D01*
X28130000Y15190000D02*
X30870000Y15190000D01*
X29000000Y35880000D02*
X29000000Y36650000D01*
X29000000Y43960000D02*
X29000000Y43190000D01*
X27630000Y36650000D02*
X27630000Y43190000D01*
X30370000Y36650000D02*
X27630000Y36650000D01*
X30370000Y43190000D02*
X30370000Y36650000D01*
X27630000Y43190000D02*
X30370000Y43190000D01*
X-24000000Y16620000D02*
X-24000000Y15850000D01*
X-24000000Y8540000D02*
X-24000000Y9310000D01*
X-22630000Y15850000D02*
X-22630000Y9310000D01*
X-25370000Y15850000D02*
X-22630000Y15850000D01*
X-25370000Y9310000D02*
X-25370000Y15850000D01*
X-22630000Y9310000D02*
X-25370000Y9310000D01*
D14*
X3833333Y-1952380D02*
X3833333Y-2666666D01*
X3880952Y-2809523D01*
X3976190Y-2904761D01*
X4119047Y-2952380D01*
X4214285Y-2952380D01*
X3452380Y-1952380D02*
X2833333Y-1952380D01*
X3166666Y-2333333D01*
X3023809Y-2333333D01*
X2928571Y-2380952D01*
X2880952Y-2428571D01*
X2833333Y-2523809D01*
X2833333Y-2761904D01*
X2880952Y-2857142D01*
X2928571Y-2904761D01*
X3023809Y-2952380D01*
X3309523Y-2952380D01*
X3404761Y-2904761D01*
X3452380Y-2857142D01*
X70332380Y12562858D02*
X69856190Y12896191D01*
X70332380Y13134286D02*
X69332380Y13134286D01*
X69332380Y12753334D01*
X69380000Y12658096D01*
X69427619Y12610477D01*
X69522857Y12562858D01*
X69665714Y12562858D01*
X69760952Y12610477D01*
X69808571Y12658096D01*
X69856190Y12753334D01*
X69856190Y13134286D01*
X70332380Y11610477D02*
X70332380Y12181905D01*
X70332380Y11896191D02*
X69332380Y11896191D01*
X69475238Y11991429D01*
X69570476Y12086667D01*
X69618095Y12181905D01*
X69332380Y10991429D02*
X69332380Y10896191D01*
X69380000Y10800953D01*
X69427619Y10753334D01*
X69522857Y10705715D01*
X69713333Y10658096D01*
X69951428Y10658096D01*
X70141904Y10705715D01*
X70237142Y10753334D01*
X70284761Y10800953D01*
X70332380Y10896191D01*
X70332380Y10991429D01*
X70284761Y11086667D01*
X70237142Y11134286D01*
X70141904Y11181905D01*
X69951428Y11229524D01*
X69713333Y11229524D01*
X69522857Y11181905D01*
X69427619Y11134286D01*
X69380000Y11086667D01*
X69332380Y10991429D01*
X51086666Y18917620D02*
X51420000Y19393810D01*
X51658095Y18917620D02*
X51658095Y19917620D01*
X51277142Y19917620D01*
X51181904Y19870000D01*
X51134285Y19822381D01*
X51086666Y19727143D01*
X51086666Y19584286D01*
X51134285Y19489048D01*
X51181904Y19441429D01*
X51277142Y19393810D01*
X51658095Y19393810D01*
X50610476Y18917620D02*
X50420000Y18917620D01*
X50324761Y18965239D01*
X50277142Y19012858D01*
X50181904Y19155715D01*
X50134285Y19346191D01*
X50134285Y19727143D01*
X50181904Y19822381D01*
X50229523Y19870000D01*
X50324761Y19917620D01*
X50515238Y19917620D01*
X50610476Y19870000D01*
X50658095Y19822381D01*
X50705714Y19727143D01*
X50705714Y19489048D01*
X50658095Y19393810D01*
X50610476Y19346191D01*
X50515238Y19298572D01*
X50324761Y19298572D01*
X50229523Y19346191D01*
X50181904Y19393810D01*
X50134285Y19489048D01*
X-15738096Y-5450380D02*
X-16309524Y-5450380D01*
X-16023810Y-6450380D02*
X-16023810Y-5450380D01*
X-16642858Y-6450380D02*
X-16642858Y-5450380D01*
X-17023810Y-5450380D01*
X-17119048Y-5498000D01*
X-17166667Y-5545619D01*
X-17214286Y-5640857D01*
X-17214286Y-5783714D01*
X-17166667Y-5878952D01*
X-17119048Y-5926571D01*
X-17023810Y-5974190D01*
X-16642858Y-5974190D01*
X-17595239Y-5545619D02*
X-17642858Y-5498000D01*
X-17738096Y-5450380D01*
X-17976191Y-5450380D01*
X-18071429Y-5498000D01*
X-18119048Y-5545619D01*
X-18166667Y-5640857D01*
X-18166667Y-5736095D01*
X-18119048Y-5878952D01*
X-17547620Y-6450380D01*
X-18166667Y-6450380D01*
X24261904Y-6950380D02*
X23690476Y-6950380D01*
X23976190Y-7950380D02*
X23976190Y-6950380D01*
X23357142Y-7950380D02*
X23357142Y-6950380D01*
X22976190Y-6950380D01*
X22880952Y-6998000D01*
X22833333Y-7045619D01*
X22785714Y-7140857D01*
X22785714Y-7283714D01*
X22833333Y-7378952D01*
X22880952Y-7426571D01*
X22976190Y-7474190D01*
X23357142Y-7474190D01*
X21833333Y-7950380D02*
X22404761Y-7950380D01*
X22119047Y-7950380D02*
X22119047Y-6950380D01*
X22214285Y-7093238D01*
X22309523Y-7188476D01*
X22404761Y-7236095D01*
X-3753334Y22177620D02*
X-3420000Y22653810D01*
X-3181905Y22177620D02*
X-3181905Y23177620D01*
X-3562858Y23177620D01*
X-3658096Y23130000D01*
X-3705715Y23082381D01*
X-3753334Y22987143D01*
X-3753334Y22844286D01*
X-3705715Y22749048D01*
X-3658096Y22701429D01*
X-3562858Y22653810D01*
X-3181905Y22653810D01*
X-4324762Y22749048D02*
X-4229524Y22796667D01*
X-4181905Y22844286D01*
X-4134286Y22939524D01*
X-4134286Y22987143D01*
X-4181905Y23082381D01*
X-4229524Y23130000D01*
X-4324762Y23177620D01*
X-4515239Y23177620D01*
X-4610477Y23130000D01*
X-4658096Y23082381D01*
X-4705715Y22987143D01*
X-4705715Y22939524D01*
X-4658096Y22844286D01*
X-4610477Y22796667D01*
X-4515239Y22749048D01*
X-4324762Y22749048D01*
X-4229524Y22701429D01*
X-4181905Y22653810D01*
X-4134286Y22558572D01*
X-4134286Y22368096D01*
X-4181905Y22272858D01*
X-4229524Y22225239D01*
X-4324762Y22177620D01*
X-4515239Y22177620D01*
X-4610477Y22225239D01*
X-4658096Y22272858D01*
X-4705715Y22368096D01*
X-4705715Y22558572D01*
X-4658096Y22653810D01*
X-4610477Y22701429D01*
X-4515239Y22749048D01*
X-4253334Y36177620D02*
X-3920000Y36653810D01*
X-3681905Y36177620D02*
X-3681905Y37177620D01*
X-4062858Y37177620D01*
X-4158096Y37130000D01*
X-4205715Y37082381D01*
X-4253334Y36987143D01*
X-4253334Y36844286D01*
X-4205715Y36749048D01*
X-4158096Y36701429D01*
X-4062858Y36653810D01*
X-3681905Y36653810D01*
X-4586667Y37177620D02*
X-5253334Y37177620D01*
X-4824762Y36177620D01*
X10086666Y32917620D02*
X10420000Y33393810D01*
X10658095Y32917620D02*
X10658095Y33917620D01*
X10277142Y33917620D01*
X10181904Y33870000D01*
X10134285Y33822381D01*
X10086666Y33727143D01*
X10086666Y33584286D01*
X10134285Y33489048D01*
X10181904Y33441429D01*
X10277142Y33393810D01*
X10658095Y33393810D01*
X9229523Y33917620D02*
X9420000Y33917620D01*
X9515238Y33870000D01*
X9562857Y33822381D01*
X9658095Y33679524D01*
X9705714Y33489048D01*
X9705714Y33108096D01*
X9658095Y33012858D01*
X9610476Y32965239D01*
X9515238Y32917620D01*
X9324761Y32917620D01*
X9229523Y32965239D01*
X9181904Y33012858D01*
X9134285Y33108096D01*
X9134285Y33346191D01*
X9181904Y33441429D01*
X9229523Y33489048D01*
X9324761Y33536667D01*
X9515238Y33536667D01*
X9610476Y33489048D01*
X9658095Y33441429D01*
X9705714Y33346191D01*
X10586666Y18917620D02*
X10920000Y19393810D01*
X11158095Y18917620D02*
X11158095Y19917620D01*
X10777142Y19917620D01*
X10681904Y19870000D01*
X10634285Y19822381D01*
X10586666Y19727143D01*
X10586666Y19584286D01*
X10634285Y19489048D01*
X10681904Y19441429D01*
X10777142Y19393810D01*
X11158095Y19393810D01*
X9681904Y19917620D02*
X10158095Y19917620D01*
X10205714Y19441429D01*
X10158095Y19489048D01*
X10062857Y19536667D01*
X9824761Y19536667D01*
X9729523Y19489048D01*
X9681904Y19441429D01*
X9634285Y19346191D01*
X9634285Y19108096D01*
X9681904Y19012858D01*
X9729523Y18965239D01*
X9824761Y18917620D01*
X10062857Y18917620D01*
X10158095Y18965239D01*
X10205714Y19012858D01*
X10086666Y46917620D02*
X10420000Y47393810D01*
X10658095Y46917620D02*
X10658095Y47917620D01*
X10277142Y47917620D01*
X10181904Y47870000D01*
X10134285Y47822381D01*
X10086666Y47727143D01*
X10086666Y47584286D01*
X10134285Y47489048D01*
X10181904Y47441429D01*
X10277142Y47393810D01*
X10658095Y47393810D01*
X9229523Y47584286D02*
X9229523Y46917620D01*
X9467619Y47965239D02*
X9705714Y47250953D01*
X9086666Y47250953D01*
X27582380Y12086667D02*
X27106190Y12420000D01*
X27582380Y12658096D02*
X26582380Y12658096D01*
X26582380Y12277143D01*
X26630000Y12181905D01*
X26677619Y12134286D01*
X26772857Y12086667D01*
X26915714Y12086667D01*
X27010952Y12134286D01*
X27058571Y12181905D01*
X27106190Y12277143D01*
X27106190Y12658096D01*
X26582380Y11753334D02*
X26582380Y11134286D01*
X26963333Y11467620D01*
X26963333Y11324762D01*
X27010952Y11229524D01*
X27058571Y11181905D01*
X27153809Y11134286D01*
X27391904Y11134286D01*
X27487142Y11181905D01*
X27534761Y11229524D01*
X27582380Y11324762D01*
X27582380Y11610477D01*
X27534761Y11705715D01*
X27487142Y11753334D01*
X27082380Y40086667D02*
X26606190Y40420000D01*
X27082380Y40658096D02*
X26082380Y40658096D01*
X26082380Y40277143D01*
X26130000Y40181905D01*
X26177619Y40134286D01*
X26272857Y40086667D01*
X26415714Y40086667D01*
X26510952Y40134286D01*
X26558571Y40181905D01*
X26606190Y40277143D01*
X26606190Y40658096D01*
X26177619Y39705715D02*
X26130000Y39658096D01*
X26082380Y39562858D01*
X26082380Y39324762D01*
X26130000Y39229524D01*
X26177619Y39181905D01*
X26272857Y39134286D01*
X26368095Y39134286D01*
X26510952Y39181905D01*
X27082380Y39753334D01*
X27082380Y39134286D01*
X-21177620Y12746667D02*
X-21653810Y13080000D01*
X-21177620Y13318096D02*
X-22177620Y13318096D01*
X-22177620Y12937143D01*
X-22130000Y12841905D01*
X-22082381Y12794286D01*
X-21987143Y12746667D01*
X-21844286Y12746667D01*
X-21749048Y12794286D01*
X-21701429Y12841905D01*
X-21653810Y12937143D01*
X-21653810Y13318096D01*
X-21177620Y11794286D02*
X-21177620Y12365715D01*
X-21177620Y12080000D02*
X-22177620Y12080000D01*
X-22034762Y12175239D01*
X-21939524Y12270477D01*
X-21891905Y12365715D01*
M02*
