%TF.GenerationSoftware,KiCad,Pcbnew,(5.1.6)-1*%
%TF.CreationDate,2021-09-18T15:37:18+02:00*%
%TF.ProjectId,Frontplate_v1,46726f6e-7470-46c6-9174-655f76312e6b,1*%
%TF.SameCoordinates,PX4e33880PY85099e0*%
%TF.FileFunction,Copper,L2,Bot*%
%TF.FilePolarity,Positive*%
%FSLAX46Y46*%
G04 Gerber Fmt 4.6, Leading zero omitted, Abs format (unit mm)*
G04 Created by KiCad (PCBNEW (5.1.6)-1) date 2021-09-18 15:37:18*
%MOMM*%
%LPD*%
G01*
G04 APERTURE LIST*
%TA.AperFunction,NonConductor*%
%ADD10C,0.300000*%
%TD*%
%TA.AperFunction,Profile*%
%ADD11C,0.150000*%
%TD*%
%TA.AperFunction,ComponentPad*%
%ADD12C,1.750000*%
%TD*%
%TA.AperFunction,ComponentPad*%
%ADD13O,1.600000X1.600000*%
%TD*%
%TA.AperFunction,ComponentPad*%
%ADD14C,1.600000*%
%TD*%
%TA.AperFunction,ComponentPad*%
%ADD15O,1.700000X1.700000*%
%TD*%
%TA.AperFunction,ComponentPad*%
%ADD16R,1.700000X1.700000*%
%TD*%
%TA.AperFunction,ComponentPad*%
%ADD17C,1.800000*%
%TD*%
%TA.AperFunction,ComponentPad*%
%ADD18R,1.800000X1.800000*%
%TD*%
%TA.AperFunction,ComponentPad*%
%ADD19C,5.600000*%
%TD*%
%TA.AperFunction,SMDPad,CuDef*%
%ADD20R,2.000000X2.000000*%
%TD*%
%TA.AperFunction,SMDPad,CuDef*%
%ADD21C,2.000000*%
%TD*%
%TA.AperFunction,ViaPad*%
%ADD22C,1.400000*%
%TD*%
%TA.AperFunction,Conductor*%
%ADD23C,0.500000*%
%TD*%
%TA.AperFunction,Conductor*%
%ADD24C,0.300000*%
%TD*%
%TA.AperFunction,Conductor*%
%ADD25C,0.254000*%
%TD*%
G04 APERTURE END LIST*
D10*
X72000000Y-5392857D02*
X71785714Y-5464285D01*
X71714285Y-5535714D01*
X71642857Y-5678571D01*
X71642857Y-5892857D01*
X71714285Y-6035714D01*
X71785714Y-6107142D01*
X71928571Y-6178571D01*
X72500000Y-6178571D01*
X72500000Y-4678571D01*
X72000000Y-4678571D01*
X71857142Y-4750000D01*
X71785714Y-4821428D01*
X71714285Y-4964285D01*
X71714285Y-5107142D01*
X71785714Y-5250000D01*
X71857142Y-5321428D01*
X72000000Y-5392857D01*
X72500000Y-5392857D01*
X70785714Y-6178571D02*
X70928571Y-6107142D01*
X71000000Y-6035714D01*
X71071428Y-5892857D01*
X71071428Y-5464285D01*
X71000000Y-5321428D01*
X70928571Y-5250000D01*
X70785714Y-5178571D01*
X70571428Y-5178571D01*
X70428571Y-5250000D01*
X70357142Y-5321428D01*
X70285714Y-5464285D01*
X70285714Y-5892857D01*
X70357142Y-6035714D01*
X70428571Y-6107142D01*
X70571428Y-6178571D01*
X70785714Y-6178571D01*
X69857142Y-5178571D02*
X69285714Y-5178571D01*
X69642857Y-4678571D02*
X69642857Y-5964285D01*
X69571428Y-6107142D01*
X69428571Y-6178571D01*
X69285714Y-6178571D01*
D11*
X88000000Y59500000D02*
X-32000000Y59500000D01*
X88000000Y-10500000D02*
X88000000Y59500000D01*
X88000000Y-10500000D02*
X-32000000Y-10500000D01*
X-32000000Y-10500000D02*
X-32000000Y59500000D01*
D12*
X8580000Y-3270000D03*
X6040000Y-3270000D03*
X3500000Y-3270000D03*
X960000Y-3270000D03*
X-1580000Y-3270000D03*
X-1580000Y-730000D03*
X960000Y-730000D03*
X3500000Y-730000D03*
X6040000Y-730000D03*
X8580000Y-730000D03*
D13*
X72250000Y6840000D03*
D14*
X72250000Y17000000D03*
D13*
X45840000Y17000000D03*
D14*
X56000000Y17000000D03*
D15*
X63000000Y4540000D03*
D16*
X63000000Y2000000D03*
D17*
X64265000Y17000000D03*
D18*
X61725000Y17000000D03*
D19*
X83000000Y54500000D03*
X-27000000Y-5500000D03*
X83250000Y-5750000D03*
X-27000000Y54500000D03*
D15*
X-17000000Y1960000D03*
D16*
X-17000000Y4500000D03*
D20*
X-17000000Y-4000000D03*
D21*
X23000000Y-5500000D03*
D13*
X1160000Y25000000D03*
D14*
X-9000000Y25000000D03*
D13*
X660000Y39000000D03*
D14*
X-9500000Y39000000D03*
D13*
X4840000Y31000000D03*
D14*
X15000000Y31000000D03*
D13*
X5340000Y17000000D03*
D14*
X15500000Y17000000D03*
D13*
X4840000Y45000000D03*
D14*
X15000000Y45000000D03*
D13*
X29500000Y6840000D03*
D14*
X29500000Y17000000D03*
D13*
X29000000Y34840000D03*
D14*
X29000000Y45000000D03*
D13*
X-24000000Y17660000D03*
D14*
X-24000000Y7500000D03*
D15*
X23000000Y670000D03*
X23000000Y3210000D03*
D16*
X23000000Y5750000D03*
D17*
X-18040000Y25000000D03*
D18*
X-15500000Y25000000D03*
D17*
X-18040000Y39000000D03*
D18*
X-15500000Y39000000D03*
D17*
X24265000Y31000000D03*
D18*
X21725000Y31000000D03*
D17*
X24265000Y17000000D03*
D18*
X21725000Y17000000D03*
D17*
X24265000Y45000000D03*
D18*
X21725000Y45000000D03*
D22*
X11250000Y-6500000D03*
X4500000Y-8350000D03*
D23*
X26500000Y42765000D02*
X24265000Y45000000D01*
X23000000Y8000000D02*
X19500000Y11500000D01*
X23000000Y5750000D02*
X23000000Y8000000D01*
X19500000Y11500000D02*
X19500000Y18500000D01*
X19500000Y18500000D02*
X26500000Y25500000D01*
X26500000Y25500000D02*
X26500000Y42765000D01*
X29000000Y45000000D02*
X24265000Y45000000D01*
X15000000Y45000000D02*
X21725000Y45000000D01*
X6500000Y1000000D02*
X16500000Y1000000D01*
X16830000Y670000D02*
X23000000Y670000D01*
X16500000Y1000000D02*
X16830000Y670000D01*
X23000000Y670000D02*
X25750000Y3420000D01*
X25750000Y15515000D02*
X24265000Y17000000D01*
X25750000Y3420000D02*
X25750000Y15515000D01*
X29500000Y17000000D02*
X24265000Y17000000D01*
X6040000Y540000D02*
X6500000Y1000000D01*
X6040000Y-730000D02*
X6040000Y540000D01*
X17500000Y19000000D02*
X24265000Y25765000D01*
X13500000Y2000000D02*
X17500000Y6000000D01*
X17500000Y6000000D02*
X17500000Y19000000D01*
X24265000Y25765000D02*
X24265000Y31000000D01*
X13500000Y2000000D02*
X-1000000Y2000000D01*
X-1580000Y1420000D02*
X-1580000Y-730000D01*
X-1000000Y2000000D02*
X-1580000Y1420000D01*
X21725000Y31000000D02*
X15000000Y31000000D01*
X-12750000Y18250000D02*
X-12750000Y29250000D01*
X-18040000Y34540000D02*
X-18040000Y39000000D01*
X-12750000Y29250000D02*
X-18040000Y34540000D01*
X-10500000Y3500000D02*
X-10500000Y16000000D01*
X-10500000Y16000000D02*
X-12750000Y18250000D01*
X-3730000Y-3270000D02*
X-10500000Y3500000D01*
X-1580000Y-3270000D02*
X-3730000Y-3270000D01*
X-9500000Y39000000D02*
X-15500000Y39000000D01*
X-1020000Y-5250000D02*
X960000Y-3270000D01*
X-18040000Y22040000D02*
X-11500000Y15500000D01*
X-18040000Y25000000D02*
X-18040000Y22040000D01*
X-4250000Y-5250000D02*
X-1020000Y-5250000D01*
X-11500000Y15500000D02*
X-11500000Y2000000D01*
X-11500000Y2000000D02*
X-4250000Y-5250000D01*
X23000000Y-5500000D02*
X19250000Y-5500000D01*
X19250000Y-5500000D02*
X17000000Y-3250000D01*
X8580000Y-730000D02*
X9730000Y-730000D01*
X9730000Y-730000D02*
X10500000Y-1500000D01*
X10500000Y-4250000D02*
X10000000Y-4750000D01*
X10250000Y-4500000D02*
X10000000Y-4750000D01*
X17000000Y-3250000D02*
X10500000Y-3250000D01*
X10500000Y-1500000D02*
X10500000Y-3250000D01*
X10500000Y-3250000D02*
X10500000Y-4250000D01*
X-17000000Y1960000D02*
X-8790000Y-6250000D01*
X8500000Y-6250000D02*
X10000000Y-4750000D01*
X-8790000Y-6250000D02*
X8500000Y-6250000D01*
X-22000000Y7500000D02*
X-24000000Y7500000D01*
X-17000000Y4500000D02*
X-19000000Y4500000D01*
X-19000000Y4500000D02*
X-22000000Y7500000D01*
D24*
X-17000000Y-4000000D02*
X-20000000Y-4000000D01*
X-20000000Y-4000000D02*
X-27500000Y3500000D01*
X-27500000Y14160000D02*
X-24000000Y17660000D01*
X-27500000Y3500000D02*
X-27500000Y14160000D01*
D23*
X64265000Y17000000D02*
X64265000Y10179226D01*
X64265000Y10179226D02*
X57999990Y3914216D01*
X57999990Y3914216D02*
X57999990Y-4635786D01*
X12000001Y-7250001D02*
X11250000Y-6500000D01*
X57999990Y-4635786D02*
X55385775Y-7250001D01*
X55385775Y-7250001D02*
X12000001Y-7250001D01*
X60540000Y4540000D02*
X63000000Y4540000D01*
X59000000Y3000000D02*
X60540000Y4540000D01*
X59000000Y-5050002D02*
X59000000Y3000000D01*
X4500000Y-8350000D02*
X55700002Y-8350000D01*
X55700002Y-8350000D02*
X59000000Y-5050002D01*
X63000000Y4540000D02*
X63000000Y7500000D01*
X63000000Y7500000D02*
X69250000Y13750000D01*
X69250000Y13750000D02*
X71000000Y13750000D01*
X72250000Y15000000D02*
X72250000Y17000000D01*
X71000000Y13750000D02*
X72250000Y15000000D01*
D25*
G36*
X87048000Y-9548000D02*
G01*
X5532215Y-9548000D01*
X5603215Y-9477000D01*
X55644648Y-9477000D01*
X55700002Y-9482452D01*
X55755356Y-9477000D01*
X55755367Y-9477000D01*
X55920933Y-9460693D01*
X56133373Y-9396250D01*
X56329159Y-9291600D01*
X56500767Y-9150765D01*
X56536061Y-9107759D01*
X59757764Y-5886057D01*
X59800765Y-5850767D01*
X59836055Y-5807766D01*
X59836058Y-5807763D01*
X59941600Y-5679159D01*
X60046250Y-5483373D01*
X60050024Y-5470931D01*
X60110693Y-5270933D01*
X60127000Y-5105367D01*
X60127000Y-5105357D01*
X60132452Y-5050002D01*
X60127000Y-4994648D01*
X60127000Y-3468000D01*
X68115857Y-3468000D01*
X68115857Y-7772000D01*
X73884143Y-7772000D01*
X73884143Y-5387847D01*
X79573000Y-5387847D01*
X79573000Y-6112153D01*
X79714305Y-6822541D01*
X79991485Y-7491712D01*
X80393888Y-8093951D01*
X80906049Y-8606112D01*
X81508288Y-9008515D01*
X82177459Y-9285695D01*
X82887847Y-9427000D01*
X83612153Y-9427000D01*
X84322541Y-9285695D01*
X84991712Y-9008515D01*
X85593951Y-8606112D01*
X86106112Y-8093951D01*
X86508515Y-7491712D01*
X86785695Y-6822541D01*
X86927000Y-6112153D01*
X86927000Y-5387847D01*
X86785695Y-4677459D01*
X86508515Y-4008288D01*
X86106112Y-3406049D01*
X85593951Y-2893888D01*
X84991712Y-2491485D01*
X84322541Y-2214305D01*
X83612153Y-2073000D01*
X82887847Y-2073000D01*
X82177459Y-2214305D01*
X81508288Y-2491485D01*
X80906049Y-2893888D01*
X80393888Y-3406049D01*
X79991485Y-4008288D01*
X79714305Y-4677459D01*
X79573000Y-5387847D01*
X73884143Y-5387847D01*
X73884143Y-3468000D01*
X68115857Y-3468000D01*
X60127000Y-3468000D01*
X60127000Y1150000D01*
X61511928Y1150000D01*
X61524188Y1025518D01*
X61560498Y905820D01*
X61619463Y795506D01*
X61698815Y698815D01*
X61795506Y619463D01*
X61905820Y560498D01*
X62025518Y524188D01*
X62150000Y511928D01*
X62714250Y515000D01*
X62873000Y673750D01*
X62873000Y1873000D01*
X63127000Y1873000D01*
X63127000Y673750D01*
X63285750Y515000D01*
X63850000Y511928D01*
X63974482Y524188D01*
X64094180Y560498D01*
X64204494Y619463D01*
X64301185Y698815D01*
X64380537Y795506D01*
X64439502Y905820D01*
X64475812Y1025518D01*
X64488072Y1150000D01*
X64485000Y1714250D01*
X64326250Y1873000D01*
X63127000Y1873000D01*
X62873000Y1873000D01*
X61673750Y1873000D01*
X61515000Y1714250D01*
X61511928Y1150000D01*
X60127000Y1150000D01*
X60127000Y2533182D01*
X61006819Y3413000D01*
X61684654Y3413000D01*
X61752451Y3345203D01*
X61698815Y3301185D01*
X61619463Y3204494D01*
X61560498Y3094180D01*
X61524188Y2974482D01*
X61511928Y2850000D01*
X61515000Y2285750D01*
X61673750Y2127000D01*
X62873000Y2127000D01*
X62873000Y2147000D01*
X63127000Y2147000D01*
X63127000Y2127000D01*
X64326250Y2127000D01*
X64485000Y2285750D01*
X64488072Y2850000D01*
X64475812Y2974482D01*
X64439502Y3094180D01*
X64380537Y3204494D01*
X64301185Y3301185D01*
X64247549Y3345203D01*
X64341448Y3439102D01*
X64530447Y3721959D01*
X64660632Y4036253D01*
X64727000Y4369905D01*
X64727000Y4710095D01*
X64660632Y5043747D01*
X64530447Y5358041D01*
X64341448Y5640898D01*
X64127000Y5855346D01*
X64127000Y7005170D01*
X70573000Y7005170D01*
X70573000Y6674830D01*
X70637446Y6350837D01*
X70763862Y6045643D01*
X70947389Y5770975D01*
X71180975Y5537389D01*
X71455643Y5353862D01*
X71760837Y5227446D01*
X72084830Y5163000D01*
X72415170Y5163000D01*
X72739163Y5227446D01*
X73044357Y5353862D01*
X73319025Y5537389D01*
X73552611Y5770975D01*
X73736138Y6045643D01*
X73862554Y6350837D01*
X73927000Y6674830D01*
X73927000Y7005170D01*
X73862554Y7329163D01*
X73736138Y7634357D01*
X73552611Y7909025D01*
X73319025Y8142611D01*
X73044357Y8326138D01*
X72739163Y8452554D01*
X72415170Y8517000D01*
X72084830Y8517000D01*
X71760837Y8452554D01*
X71455643Y8326138D01*
X71180975Y8142611D01*
X70947389Y7909025D01*
X70763862Y7634357D01*
X70637446Y7329163D01*
X70573000Y7005170D01*
X64127000Y7005170D01*
X64127000Y7033182D01*
X69716819Y12623000D01*
X70944646Y12623000D01*
X71000000Y12617548D01*
X71055354Y12623000D01*
X71055365Y12623000D01*
X71220931Y12639307D01*
X71433371Y12703750D01*
X71629157Y12808400D01*
X71800765Y12949235D01*
X71836059Y12992241D01*
X73007764Y14163945D01*
X73050765Y14199235D01*
X73086055Y14242236D01*
X73086058Y14242239D01*
X73191600Y14370843D01*
X73296250Y14566629D01*
X73302144Y14586058D01*
X73360693Y14779069D01*
X73377000Y14944635D01*
X73377000Y14944645D01*
X73382452Y15000000D01*
X73377000Y15055354D01*
X73377000Y15755364D01*
X73552611Y15930975D01*
X73736138Y16205643D01*
X73862554Y16510837D01*
X73927000Y16834830D01*
X73927000Y17165170D01*
X73862554Y17489163D01*
X73736138Y17794357D01*
X73552611Y18069025D01*
X73319025Y18302611D01*
X73044357Y18486138D01*
X72739163Y18612554D01*
X72415170Y18677000D01*
X72084830Y18677000D01*
X71760837Y18612554D01*
X71455643Y18486138D01*
X71180975Y18302611D01*
X70947389Y18069025D01*
X70763862Y17794357D01*
X70637446Y17489163D01*
X70573000Y17165170D01*
X70573000Y16834830D01*
X70637446Y16510837D01*
X70763862Y16205643D01*
X70947389Y15930975D01*
X71123000Y15755364D01*
X71123000Y15466819D01*
X70533182Y14877000D01*
X69305357Y14877000D01*
X69250000Y14882452D01*
X69194643Y14877000D01*
X69194635Y14877000D01*
X69029069Y14860693D01*
X68816629Y14796250D01*
X68620843Y14691600D01*
X68492239Y14586058D01*
X68492236Y14586055D01*
X68449235Y14550765D01*
X68413945Y14507764D01*
X65392000Y11485819D01*
X65392000Y15615858D01*
X65397771Y15619714D01*
X65645286Y15867229D01*
X65839757Y16158275D01*
X65973711Y16481668D01*
X66042000Y16824981D01*
X66042000Y17175019D01*
X65973711Y17518332D01*
X65839757Y17841725D01*
X65645286Y18132771D01*
X65397771Y18380286D01*
X65106725Y18574757D01*
X64783332Y18708711D01*
X64440019Y18777000D01*
X64089981Y18777000D01*
X63746668Y18708711D01*
X63423275Y18574757D01*
X63282798Y18480893D01*
X63248133Y18523133D01*
X63114592Y18632727D01*
X62962237Y18714162D01*
X62796922Y18764310D01*
X62625000Y18781243D01*
X60825000Y18781243D01*
X60653078Y18764310D01*
X60487763Y18714162D01*
X60335408Y18632727D01*
X60201867Y18523133D01*
X60092273Y18389592D01*
X60010838Y18237237D01*
X59960690Y18071922D01*
X59943757Y17900000D01*
X59943757Y16100000D01*
X59960690Y15928078D01*
X60010838Y15762763D01*
X60092273Y15610408D01*
X60201867Y15476867D01*
X60335408Y15367273D01*
X60487763Y15285838D01*
X60653078Y15235690D01*
X60825000Y15218757D01*
X62625000Y15218757D01*
X62796922Y15235690D01*
X62962237Y15285838D01*
X63114592Y15367273D01*
X63138000Y15386484D01*
X63138001Y10646046D01*
X57242231Y4750276D01*
X57199225Y4714981D01*
X57058390Y4543373D01*
X56953740Y4347586D01*
X56889297Y4135146D01*
X56872990Y3969580D01*
X56872990Y3969570D01*
X56867538Y3914216D01*
X56872990Y3858862D01*
X56872991Y-4168966D01*
X54918957Y-6123001D01*
X24515129Y-6123001D01*
X24540704Y-6070429D01*
X24622384Y-5758892D01*
X24641718Y-5437405D01*
X24597961Y-5118325D01*
X24492795Y-4813912D01*
X24399814Y-4639956D01*
X24135413Y-4544192D01*
X23179605Y-5500000D01*
X23193748Y-5514143D01*
X23014143Y-5693748D01*
X23000000Y-5679605D01*
X22985858Y-5693748D01*
X22806253Y-5514143D01*
X22820395Y-5500000D01*
X21864587Y-4544192D01*
X21600186Y-4639956D01*
X21459296Y-4929571D01*
X21377616Y-5241108D01*
X21358282Y-5562595D01*
X21402039Y-5881675D01*
X21485410Y-6123001D01*
X12782905Y-6123001D01*
X12766396Y-6040006D01*
X12647519Y-5753011D01*
X12474936Y-5494721D01*
X12255279Y-5275064D01*
X11996989Y-5102481D01*
X11709994Y-4983604D01*
X11405321Y-4923000D01*
X11094679Y-4923000D01*
X10790006Y-4983604D01*
X10503011Y-5102481D01*
X10244721Y-5275064D01*
X10025064Y-5494721D01*
X9852481Y-5753011D01*
X9733604Y-6040006D01*
X9673000Y-6344679D01*
X9673000Y-6655321D01*
X9733604Y-6959994D01*
X9842544Y-7223000D01*
X5603215Y-7223000D01*
X5505279Y-7125064D01*
X5246989Y-6952481D01*
X4959994Y-6833604D01*
X4655321Y-6773000D01*
X4344679Y-6773000D01*
X4040006Y-6833604D01*
X3753011Y-6952481D01*
X3494721Y-7125064D01*
X3275064Y-7344721D01*
X3102481Y-7603011D01*
X2983604Y-7890006D01*
X2923000Y-8194679D01*
X2923000Y-8505321D01*
X2983604Y-8809994D01*
X3102481Y-9096989D01*
X3275064Y-9355279D01*
X3467785Y-9548000D01*
X-31048000Y-9548000D01*
X-31048000Y-5137847D01*
X-30677000Y-5137847D01*
X-30677000Y-5862153D01*
X-30535695Y-6572541D01*
X-30258515Y-7241712D01*
X-29856112Y-7843951D01*
X-29343951Y-8356112D01*
X-28741712Y-8758515D01*
X-28072541Y-9035695D01*
X-27362153Y-9177000D01*
X-26637847Y-9177000D01*
X-25927459Y-9035695D01*
X-25258288Y-8758515D01*
X-24656049Y-8356112D01*
X-24143888Y-7843951D01*
X-23741485Y-7241712D01*
X-23464305Y-6572541D01*
X-23323000Y-5862153D01*
X-23323000Y-5137847D01*
X-23464305Y-4427459D01*
X-23741485Y-3758288D01*
X-24143888Y-3156049D01*
X-24656049Y-2643888D01*
X-25258288Y-2241485D01*
X-25927459Y-1964305D01*
X-26637847Y-1823000D01*
X-27362153Y-1823000D01*
X-28072541Y-1964305D01*
X-28741712Y-2241485D01*
X-29343951Y-2643888D01*
X-29856112Y-3156049D01*
X-30258515Y-3758288D01*
X-30535695Y-4427459D01*
X-30677000Y-5137847D01*
X-31048000Y-5137847D01*
X-31048000Y14160000D01*
X-28531968Y14160000D01*
X-28526999Y14109549D01*
X-28527000Y3550441D01*
X-28531968Y3500000D01*
X-28527000Y3449559D01*
X-28527000Y3449550D01*
X-28512140Y3298674D01*
X-28453415Y3105084D01*
X-28358051Y2926669D01*
X-28229712Y2770288D01*
X-28190519Y2738123D01*
X-20761868Y-4690530D01*
X-20729712Y-4729712D01*
X-20690530Y-4761868D01*
X-20690525Y-4761873D01*
X-20616526Y-4822602D01*
X-20573331Y-4858051D01*
X-20394917Y-4953415D01*
X-20295397Y-4983604D01*
X-20201328Y-5012140D01*
X-20183169Y-5013928D01*
X-20050451Y-5027000D01*
X-20050444Y-5027000D01*
X-20000000Y-5031968D01*
X-19949557Y-5027000D01*
X-18878584Y-5027000D01*
X-18864310Y-5171922D01*
X-18814162Y-5337237D01*
X-18732727Y-5489592D01*
X-18623133Y-5623133D01*
X-18489592Y-5732727D01*
X-18337237Y-5814162D01*
X-18171922Y-5864310D01*
X-18000000Y-5881243D01*
X-16000000Y-5881243D01*
X-15828078Y-5864310D01*
X-15662763Y-5814162D01*
X-15510408Y-5732727D01*
X-15376867Y-5623133D01*
X-15267273Y-5489592D01*
X-15185838Y-5337237D01*
X-15135690Y-5171922D01*
X-15118757Y-5000000D01*
X-15118757Y-3000000D01*
X-15135690Y-2828078D01*
X-15185838Y-2662763D01*
X-15267273Y-2510408D01*
X-15376867Y-2376867D01*
X-15510408Y-2267273D01*
X-15662763Y-2185838D01*
X-15828078Y-2135690D01*
X-16000000Y-2118757D01*
X-18000000Y-2118757D01*
X-18171922Y-2135690D01*
X-18337237Y-2185838D01*
X-18489592Y-2267273D01*
X-18623133Y-2376867D01*
X-18732727Y-2510408D01*
X-18814162Y-2662763D01*
X-18864310Y-2828078D01*
X-18878584Y-2973000D01*
X-19574602Y-2973000D01*
X-24150713Y1603110D01*
X-18441476Y1603110D01*
X-18396825Y1455901D01*
X-18271641Y1193080D01*
X-18097588Y959731D01*
X-17881355Y764822D01*
X-17631252Y615843D01*
X-17356891Y518519D01*
X-17127000Y639186D01*
X-17127000Y1833000D01*
X-16873000Y1833000D01*
X-16873000Y639186D01*
X-16643109Y518519D01*
X-16368748Y615843D01*
X-16118645Y764822D01*
X-15902412Y959731D01*
X-15728359Y1193080D01*
X-15603175Y1455901D01*
X-15558524Y1603110D01*
X-15679845Y1833000D01*
X-16873000Y1833000D01*
X-17127000Y1833000D01*
X-18320155Y1833000D01*
X-18441476Y1603110D01*
X-24150713Y1603110D01*
X-26473000Y3925396D01*
X-26473000Y7665170D01*
X-25677000Y7665170D01*
X-25677000Y7334830D01*
X-25612554Y7010837D01*
X-25486138Y6705643D01*
X-25302611Y6430975D01*
X-25069025Y6197389D01*
X-24794357Y6013862D01*
X-24489163Y5887446D01*
X-24165170Y5823000D01*
X-23834830Y5823000D01*
X-23510837Y5887446D01*
X-23205643Y6013862D01*
X-22930975Y6197389D01*
X-22755364Y6373000D01*
X-22466818Y6373000D01*
X-19836055Y3742236D01*
X-19800765Y3699235D01*
X-19757764Y3663945D01*
X-19757761Y3663942D01*
X-19677897Y3598400D01*
X-19629157Y3558400D01*
X-19433371Y3453750D01*
X-19220931Y3389307D01*
X-19055365Y3373000D01*
X-19055357Y3373000D01*
X-19000000Y3367548D01*
X-18944643Y3373000D01*
X-18682435Y3373000D01*
X-18664162Y3312763D01*
X-18582727Y3160408D01*
X-18473133Y3026867D01*
X-18339592Y2917273D01*
X-18189498Y2837047D01*
X-18271641Y2726920D01*
X-18396825Y2464099D01*
X-18441476Y2316890D01*
X-18320155Y2087000D01*
X-17127000Y2087000D01*
X-17127000Y2107000D01*
X-16873000Y2107000D01*
X-16873000Y2087000D01*
X-15679845Y2087000D01*
X-15558524Y2316890D01*
X-15603175Y2464099D01*
X-15728359Y2726920D01*
X-15810502Y2837047D01*
X-15660408Y2917273D01*
X-15526867Y3026867D01*
X-15417273Y3160408D01*
X-15335838Y3312763D01*
X-15285690Y3478078D01*
X-15268757Y3650000D01*
X-15268757Y5350000D01*
X-15285690Y5521922D01*
X-15335838Y5687237D01*
X-15417273Y5839592D01*
X-15526867Y5973133D01*
X-15660408Y6082727D01*
X-15812763Y6164162D01*
X-15978078Y6214310D01*
X-16150000Y6231243D01*
X-17850000Y6231243D01*
X-18021922Y6214310D01*
X-18187237Y6164162D01*
X-18339592Y6082727D01*
X-18473133Y5973133D01*
X-18582727Y5839592D01*
X-18639520Y5733339D01*
X-21163942Y8257760D01*
X-21199235Y8300765D01*
X-21370843Y8441600D01*
X-21566629Y8546250D01*
X-21779069Y8610693D01*
X-21944635Y8627000D01*
X-21944646Y8627000D01*
X-22000000Y8632452D01*
X-22055354Y8627000D01*
X-22755364Y8627000D01*
X-22930975Y8802611D01*
X-23205643Y8986138D01*
X-23510837Y9112554D01*
X-23834830Y9177000D01*
X-24165170Y9177000D01*
X-24489163Y9112554D01*
X-24794357Y8986138D01*
X-25069025Y8802611D01*
X-25302611Y8569025D01*
X-25486138Y8294357D01*
X-25612554Y7989163D01*
X-25677000Y7665170D01*
X-26473000Y7665170D01*
X-26473000Y13734604D01*
X-24214743Y15992861D01*
X-24165170Y15983000D01*
X-23834830Y15983000D01*
X-23510837Y16047446D01*
X-23205643Y16173862D01*
X-22930975Y16357389D01*
X-22697389Y16590975D01*
X-22513862Y16865643D01*
X-22387446Y17170837D01*
X-22323000Y17494830D01*
X-22323000Y17825170D01*
X-22387446Y18149163D01*
X-22513862Y18454357D01*
X-22697389Y18729025D01*
X-22930975Y18962611D01*
X-23205643Y19146138D01*
X-23510837Y19272554D01*
X-23834830Y19337000D01*
X-24165170Y19337000D01*
X-24489163Y19272554D01*
X-24794357Y19146138D01*
X-25069025Y18962611D01*
X-25302611Y18729025D01*
X-25486138Y18454357D01*
X-25612554Y18149163D01*
X-25677000Y17825170D01*
X-25677000Y17494830D01*
X-25667139Y17445257D01*
X-28190524Y14921872D01*
X-28229711Y14889712D01*
X-28261871Y14850525D01*
X-28261872Y14850524D01*
X-28358050Y14733331D01*
X-28453414Y14554917D01*
X-28512139Y14361327D01*
X-28531968Y14160000D01*
X-31048000Y14160000D01*
X-31048000Y39175019D01*
X-19817000Y39175019D01*
X-19817000Y38824981D01*
X-19748711Y38481668D01*
X-19614757Y38158275D01*
X-19420286Y37867229D01*
X-19172771Y37619714D01*
X-19166999Y37615857D01*
X-19167000Y34595355D01*
X-19172452Y34540000D01*
X-19167000Y34484646D01*
X-19167000Y34484636D01*
X-19150693Y34319070D01*
X-19086250Y34106630D01*
X-18981600Y33910843D01*
X-18840765Y33739235D01*
X-18797759Y33703941D01*
X-13876999Y28783180D01*
X-13876999Y26401444D01*
X-13976867Y26523133D01*
X-14110408Y26632727D01*
X-14262763Y26714162D01*
X-14428078Y26764310D01*
X-14600000Y26781243D01*
X-16400000Y26781243D01*
X-16571922Y26764310D01*
X-16737237Y26714162D01*
X-16889592Y26632727D01*
X-17023133Y26523133D01*
X-17057798Y26480893D01*
X-17198275Y26574757D01*
X-17521668Y26708711D01*
X-17864981Y26777000D01*
X-18215019Y26777000D01*
X-18558332Y26708711D01*
X-18881725Y26574757D01*
X-19172771Y26380286D01*
X-19420286Y26132771D01*
X-19614757Y25841725D01*
X-19748711Y25518332D01*
X-19817000Y25175019D01*
X-19817000Y24824981D01*
X-19748711Y24481668D01*
X-19614757Y24158275D01*
X-19420286Y23867229D01*
X-19172771Y23619714D01*
X-19167000Y23615858D01*
X-19166999Y22095364D01*
X-19172452Y22040000D01*
X-19150692Y21819070D01*
X-19086250Y21606630D01*
X-18981600Y21410844D01*
X-18876058Y21282240D01*
X-18876054Y21282236D01*
X-18840764Y21239235D01*
X-18797763Y21203945D01*
X-12627000Y15033181D01*
X-12626999Y2055364D01*
X-12632452Y2000000D01*
X-12626999Y1944636D01*
X-12626999Y1944635D01*
X-12610692Y1779069D01*
X-12591636Y1716250D01*
X-12546250Y1566630D01*
X-12441600Y1370844D01*
X-12336058Y1242240D01*
X-12336054Y1242236D01*
X-12300764Y1199235D01*
X-12257763Y1163945D01*
X-5086055Y-6007764D01*
X-5050765Y-6050765D01*
X-5007764Y-6086055D01*
X-5007761Y-6086058D01*
X-4942875Y-6139308D01*
X-4879157Y-6191600D01*
X-4683371Y-6296250D01*
X-4470931Y-6360693D01*
X-4305365Y-6377000D01*
X-4305355Y-6377000D01*
X-4250001Y-6382452D01*
X-4194646Y-6377000D01*
X-1075354Y-6377000D01*
X-1020000Y-6382452D01*
X-964646Y-6377000D01*
X-964635Y-6377000D01*
X-799069Y-6360693D01*
X-586629Y-6296250D01*
X-390843Y-6191600D01*
X-219235Y-6050765D01*
X-183941Y-6007759D01*
X801819Y-5022000D01*
X1132557Y-5022000D01*
X1471039Y-4954671D01*
X1789883Y-4822602D01*
X2076835Y-4630867D01*
X2230000Y-4477702D01*
X2383165Y-4630867D01*
X2670117Y-4822602D01*
X2988961Y-4954671D01*
X3327443Y-5022000D01*
X3672557Y-5022000D01*
X4011039Y-4954671D01*
X4329883Y-4822602D01*
X4616835Y-4630867D01*
X4770000Y-4477702D01*
X4923165Y-4630867D01*
X5210117Y-4822602D01*
X5528961Y-4954671D01*
X5867443Y-5022000D01*
X6212557Y-5022000D01*
X6551039Y-4954671D01*
X6869883Y-4822602D01*
X7156835Y-4630867D01*
X7310000Y-4477702D01*
X7463165Y-4630867D01*
X7750117Y-4822602D01*
X8068961Y-4954671D01*
X8407443Y-5022000D01*
X8752557Y-5022000D01*
X9091039Y-4954671D01*
X9409883Y-4822602D01*
X9696835Y-4630867D01*
X9940867Y-4386835D01*
X9955732Y-4364587D01*
X22044192Y-4364587D01*
X23000000Y-5320395D01*
X23955808Y-4364587D01*
X23860044Y-4100186D01*
X23570429Y-3959296D01*
X23258892Y-3877616D01*
X22937405Y-3858282D01*
X22618325Y-3902039D01*
X22313912Y-4007205D01*
X22139956Y-4100186D01*
X22044192Y-4364587D01*
X9955732Y-4364587D01*
X10132602Y-4099883D01*
X10264671Y-3781039D01*
X10332000Y-3442557D01*
X10332000Y-3097443D01*
X10264671Y-2758961D01*
X10132602Y-2440117D01*
X9940867Y-2153165D01*
X9696835Y-1909133D01*
X9409883Y-1717398D01*
X9372173Y-1701778D01*
X8580000Y-909605D01*
X7787827Y-1701778D01*
X7750117Y-1717398D01*
X7463165Y-1909133D01*
X7310000Y-2062298D01*
X7247702Y-2000000D01*
X7400867Y-1846835D01*
X7592602Y-1559883D01*
X7608222Y-1522173D01*
X8400395Y-730000D01*
X8386253Y-715858D01*
X8565858Y-536253D01*
X8580000Y-550395D01*
X8594143Y-536253D01*
X8773748Y-715858D01*
X8759605Y-730000D01*
X9626240Y-1596635D01*
X9877868Y-1515975D01*
X10006267Y-1247671D01*
X10079855Y-959474D01*
X10095804Y-662457D01*
X10053501Y-368037D01*
X9968493Y-127000D01*
X16026145Y-127000D01*
X16029235Y-130765D01*
X16200843Y-271600D01*
X16396629Y-376250D01*
X16609069Y-440693D01*
X16774635Y-457000D01*
X16774645Y-457000D01*
X16829999Y-462452D01*
X16885354Y-457000D01*
X21684654Y-457000D01*
X21899102Y-671448D01*
X22181959Y-860447D01*
X22496253Y-990632D01*
X22829905Y-1057000D01*
X23170095Y-1057000D01*
X23503747Y-990632D01*
X23818041Y-860447D01*
X24100898Y-671448D01*
X24341448Y-430898D01*
X24530447Y-148041D01*
X24660632Y166253D01*
X24727000Y499905D01*
X24727000Y803182D01*
X26507764Y2583945D01*
X26550765Y2619235D01*
X26586055Y2662236D01*
X26586058Y2662239D01*
X26691600Y2790843D01*
X26734361Y2870843D01*
X26796250Y2986629D01*
X26860693Y3199069D01*
X26877000Y3364635D01*
X26877000Y3364645D01*
X26882452Y3419999D01*
X26877000Y3475354D01*
X26877000Y7005170D01*
X27823000Y7005170D01*
X27823000Y6674830D01*
X27887446Y6350837D01*
X28013862Y6045643D01*
X28197389Y5770975D01*
X28430975Y5537389D01*
X28705643Y5353862D01*
X29010837Y5227446D01*
X29334830Y5163000D01*
X29665170Y5163000D01*
X29989163Y5227446D01*
X30294357Y5353862D01*
X30569025Y5537389D01*
X30802611Y5770975D01*
X30986138Y6045643D01*
X31112554Y6350837D01*
X31177000Y6674830D01*
X31177000Y7005170D01*
X31112554Y7329163D01*
X30986138Y7634357D01*
X30802611Y7909025D01*
X30569025Y8142611D01*
X30294357Y8326138D01*
X29989163Y8452554D01*
X29665170Y8517000D01*
X29334830Y8517000D01*
X29010837Y8452554D01*
X28705643Y8326138D01*
X28430975Y8142611D01*
X28197389Y7909025D01*
X28013862Y7634357D01*
X27887446Y7329163D01*
X27823000Y7005170D01*
X26877000Y7005170D01*
X26877000Y15459646D01*
X26882452Y15515001D01*
X26877000Y15570355D01*
X26877000Y15570365D01*
X26860693Y15735931D01*
X26819114Y15873000D01*
X28255364Y15873000D01*
X28430975Y15697389D01*
X28705643Y15513862D01*
X29010837Y15387446D01*
X29334830Y15323000D01*
X29665170Y15323000D01*
X29989163Y15387446D01*
X30294357Y15513862D01*
X30569025Y15697389D01*
X30802611Y15930975D01*
X30986138Y16205643D01*
X31112554Y16510837D01*
X31177000Y16834830D01*
X31177000Y17165170D01*
X44163000Y17165170D01*
X44163000Y16834830D01*
X44227446Y16510837D01*
X44353862Y16205643D01*
X44537389Y15930975D01*
X44770975Y15697389D01*
X45045643Y15513862D01*
X45350837Y15387446D01*
X45674830Y15323000D01*
X46005170Y15323000D01*
X46329163Y15387446D01*
X46634357Y15513862D01*
X46909025Y15697389D01*
X47142611Y15930975D01*
X47326138Y16205643D01*
X47452554Y16510837D01*
X47517000Y16834830D01*
X47517000Y17165170D01*
X54323000Y17165170D01*
X54323000Y16834830D01*
X54387446Y16510837D01*
X54513862Y16205643D01*
X54697389Y15930975D01*
X54930975Y15697389D01*
X55205643Y15513862D01*
X55510837Y15387446D01*
X55834830Y15323000D01*
X56165170Y15323000D01*
X56489163Y15387446D01*
X56794357Y15513862D01*
X57069025Y15697389D01*
X57302611Y15930975D01*
X57486138Y16205643D01*
X57612554Y16510837D01*
X57677000Y16834830D01*
X57677000Y17165170D01*
X57612554Y17489163D01*
X57486138Y17794357D01*
X57302611Y18069025D01*
X57069025Y18302611D01*
X56794357Y18486138D01*
X56489163Y18612554D01*
X56165170Y18677000D01*
X55834830Y18677000D01*
X55510837Y18612554D01*
X55205643Y18486138D01*
X54930975Y18302611D01*
X54697389Y18069025D01*
X54513862Y17794357D01*
X54387446Y17489163D01*
X54323000Y17165170D01*
X47517000Y17165170D01*
X47452554Y17489163D01*
X47326138Y17794357D01*
X47142611Y18069025D01*
X46909025Y18302611D01*
X46634357Y18486138D01*
X46329163Y18612554D01*
X46005170Y18677000D01*
X45674830Y18677000D01*
X45350837Y18612554D01*
X45045643Y18486138D01*
X44770975Y18302611D01*
X44537389Y18069025D01*
X44353862Y17794357D01*
X44227446Y17489163D01*
X44163000Y17165170D01*
X31177000Y17165170D01*
X31112554Y17489163D01*
X30986138Y17794357D01*
X30802611Y18069025D01*
X30569025Y18302611D01*
X30294357Y18486138D01*
X29989163Y18612554D01*
X29665170Y18677000D01*
X29334830Y18677000D01*
X29010837Y18612554D01*
X28705643Y18486138D01*
X28430975Y18302611D01*
X28255364Y18127000D01*
X25649142Y18127000D01*
X25645286Y18132771D01*
X25397771Y18380286D01*
X25106725Y18574757D01*
X24783332Y18708711D01*
X24440019Y18777000D01*
X24089981Y18777000D01*
X23746668Y18708711D01*
X23423275Y18574757D01*
X23282798Y18480893D01*
X23248133Y18523133D01*
X23114592Y18632727D01*
X22962237Y18714162D01*
X22796922Y18764310D01*
X22625000Y18781243D01*
X21375061Y18781243D01*
X27257764Y24663945D01*
X27300765Y24699235D01*
X27336055Y24742236D01*
X27336058Y24742239D01*
X27441600Y24870843D01*
X27546250Y25066629D01*
X27576142Y25165170D01*
X27610693Y25279069D01*
X27627000Y25444635D01*
X27627000Y25444645D01*
X27632452Y25500000D01*
X27627000Y25555354D01*
X27627000Y33876320D01*
X27697389Y33770975D01*
X27930975Y33537389D01*
X28205643Y33353862D01*
X28510837Y33227446D01*
X28834830Y33163000D01*
X29165170Y33163000D01*
X29489163Y33227446D01*
X29794357Y33353862D01*
X30069025Y33537389D01*
X30302611Y33770975D01*
X30486138Y34045643D01*
X30612554Y34350837D01*
X30677000Y34674830D01*
X30677000Y35005170D01*
X30612554Y35329163D01*
X30486138Y35634357D01*
X30302611Y35909025D01*
X30069025Y36142611D01*
X29794357Y36326138D01*
X29489163Y36452554D01*
X29165170Y36517000D01*
X28834830Y36517000D01*
X28510837Y36452554D01*
X28205643Y36326138D01*
X27930975Y36142611D01*
X27697389Y35909025D01*
X27627000Y35803680D01*
X27627000Y42709646D01*
X27632452Y42765001D01*
X27627000Y42820355D01*
X27627000Y42820365D01*
X27610693Y42985931D01*
X27546250Y43198371D01*
X27441600Y43394157D01*
X27336058Y43522761D01*
X27336055Y43522764D01*
X27300765Y43565765D01*
X27257764Y43601055D01*
X26985819Y43873000D01*
X27755364Y43873000D01*
X27930975Y43697389D01*
X28205643Y43513862D01*
X28510837Y43387446D01*
X28834830Y43323000D01*
X29165170Y43323000D01*
X29489163Y43387446D01*
X29794357Y43513862D01*
X30069025Y43697389D01*
X30302611Y43930975D01*
X30486138Y44205643D01*
X30612554Y44510837D01*
X30677000Y44834830D01*
X30677000Y45165170D01*
X30612554Y45489163D01*
X30486138Y45794357D01*
X30302611Y46069025D01*
X30069025Y46302611D01*
X29794357Y46486138D01*
X29489163Y46612554D01*
X29165170Y46677000D01*
X28834830Y46677000D01*
X28510837Y46612554D01*
X28205643Y46486138D01*
X27930975Y46302611D01*
X27755364Y46127000D01*
X25649142Y46127000D01*
X25645286Y46132771D01*
X25397771Y46380286D01*
X25106725Y46574757D01*
X24783332Y46708711D01*
X24440019Y46777000D01*
X24089981Y46777000D01*
X23746668Y46708711D01*
X23423275Y46574757D01*
X23282798Y46480893D01*
X23248133Y46523133D01*
X23114592Y46632727D01*
X22962237Y46714162D01*
X22796922Y46764310D01*
X22625000Y46781243D01*
X20825000Y46781243D01*
X20653078Y46764310D01*
X20487763Y46714162D01*
X20335408Y46632727D01*
X20201867Y46523133D01*
X20092273Y46389592D01*
X20010838Y46237237D01*
X19977398Y46127000D01*
X16244636Y46127000D01*
X16069025Y46302611D01*
X15794357Y46486138D01*
X15489163Y46612554D01*
X15165170Y46677000D01*
X14834830Y46677000D01*
X14510837Y46612554D01*
X14205643Y46486138D01*
X13930975Y46302611D01*
X13697389Y46069025D01*
X13513862Y45794357D01*
X13387446Y45489163D01*
X13323000Y45165170D01*
X13323000Y44834830D01*
X13387446Y44510837D01*
X13513862Y44205643D01*
X13697389Y43930975D01*
X13930975Y43697389D01*
X14205643Y43513862D01*
X14510837Y43387446D01*
X14834830Y43323000D01*
X15165170Y43323000D01*
X15489163Y43387446D01*
X15794357Y43513862D01*
X16069025Y43697389D01*
X16244636Y43873000D01*
X19977398Y43873000D01*
X20010838Y43762763D01*
X20092273Y43610408D01*
X20201867Y43476867D01*
X20335408Y43367273D01*
X20487763Y43285838D01*
X20653078Y43235690D01*
X20825000Y43218757D01*
X22625000Y43218757D01*
X22796922Y43235690D01*
X22962237Y43285838D01*
X23114592Y43367273D01*
X23248133Y43476867D01*
X23282798Y43519107D01*
X23423275Y43425243D01*
X23746668Y43291289D01*
X24089981Y43223000D01*
X24440019Y43223000D01*
X24446827Y43224354D01*
X25373001Y42298180D01*
X25373000Y32396837D01*
X25106725Y32574757D01*
X24783332Y32708711D01*
X24440019Y32777000D01*
X24089981Y32777000D01*
X23746668Y32708711D01*
X23423275Y32574757D01*
X23282798Y32480893D01*
X23248133Y32523133D01*
X23114592Y32632727D01*
X22962237Y32714162D01*
X22796922Y32764310D01*
X22625000Y32781243D01*
X20825000Y32781243D01*
X20653078Y32764310D01*
X20487763Y32714162D01*
X20335408Y32632727D01*
X20201867Y32523133D01*
X20092273Y32389592D01*
X20010838Y32237237D01*
X19977398Y32127000D01*
X16244636Y32127000D01*
X16069025Y32302611D01*
X15794357Y32486138D01*
X15489163Y32612554D01*
X15165170Y32677000D01*
X14834830Y32677000D01*
X14510837Y32612554D01*
X14205643Y32486138D01*
X13930975Y32302611D01*
X13697389Y32069025D01*
X13513862Y31794357D01*
X13387446Y31489163D01*
X13323000Y31165170D01*
X13323000Y30834830D01*
X13387446Y30510837D01*
X13513862Y30205643D01*
X13697389Y29930975D01*
X13930975Y29697389D01*
X14205643Y29513862D01*
X14510837Y29387446D01*
X14834830Y29323000D01*
X15165170Y29323000D01*
X15489163Y29387446D01*
X15794357Y29513862D01*
X16069025Y29697389D01*
X16244636Y29873000D01*
X19977398Y29873000D01*
X20010838Y29762763D01*
X20092273Y29610408D01*
X20201867Y29476867D01*
X20335408Y29367273D01*
X20487763Y29285838D01*
X20653078Y29235690D01*
X20825000Y29218757D01*
X22625000Y29218757D01*
X22796922Y29235690D01*
X22962237Y29285838D01*
X23114592Y29367273D01*
X23138001Y29386484D01*
X23138000Y26231819D01*
X16742237Y19836055D01*
X16699236Y19800765D01*
X16663946Y19757764D01*
X16663942Y19757760D01*
X16558400Y19629156D01*
X16453750Y19433370D01*
X16431704Y19360692D01*
X16389308Y19220931D01*
X16380269Y19129157D01*
X16367548Y19000000D01*
X16373001Y18944636D01*
X16373001Y18433590D01*
X16294357Y18486138D01*
X15989163Y18612554D01*
X15665170Y18677000D01*
X15334830Y18677000D01*
X15010837Y18612554D01*
X14705643Y18486138D01*
X14430975Y18302611D01*
X14197389Y18069025D01*
X14013862Y17794357D01*
X13887446Y17489163D01*
X13823000Y17165170D01*
X13823000Y16834830D01*
X13887446Y16510837D01*
X14013862Y16205643D01*
X14197389Y15930975D01*
X14430975Y15697389D01*
X14705643Y15513862D01*
X15010837Y15387446D01*
X15334830Y15323000D01*
X15665170Y15323000D01*
X15989163Y15387446D01*
X16294357Y15513862D01*
X16373001Y15566410D01*
X16373000Y6466819D01*
X13033182Y3127000D01*
X-944643Y3127000D01*
X-1000000Y3132452D01*
X-1055357Y3127000D01*
X-1055365Y3127000D01*
X-1220931Y3110693D01*
X-1433371Y3046250D01*
X-1629157Y2941600D01*
X-1800765Y2800765D01*
X-1836058Y2757760D01*
X-2337758Y2256060D01*
X-2380765Y2220765D01*
X-2521600Y2049157D01*
X-2626250Y1853370D01*
X-2690693Y1640930D01*
X-2707000Y1475364D01*
X-2707000Y1475354D01*
X-2712452Y1420000D01*
X-2707000Y1364645D01*
X-2707000Y620702D01*
X-2940867Y386835D01*
X-3132602Y99883D01*
X-3264671Y-218961D01*
X-3332000Y-557443D01*
X-3332000Y-902557D01*
X-3264671Y-1241039D01*
X-3132602Y-1559883D01*
X-2940867Y-1846835D01*
X-2787702Y-2000000D01*
X-2930702Y-2143000D01*
X-3263181Y-2143000D01*
X-9373000Y3966818D01*
X-9373000Y15944636D01*
X-9367547Y16000000D01*
X-9380592Y16132452D01*
X-9389307Y16220931D01*
X-9453750Y16433371D01*
X-9558400Y16629157D01*
X-9573415Y16647453D01*
X-9663942Y16757761D01*
X-9663945Y16757764D01*
X-9699235Y16800765D01*
X-9742236Y16836055D01*
X-10071351Y17165170D01*
X3663000Y17165170D01*
X3663000Y16834830D01*
X3727446Y16510837D01*
X3853862Y16205643D01*
X4037389Y15930975D01*
X4270975Y15697389D01*
X4545643Y15513862D01*
X4850837Y15387446D01*
X5174830Y15323000D01*
X5505170Y15323000D01*
X5829163Y15387446D01*
X6134357Y15513862D01*
X6409025Y15697389D01*
X6642611Y15930975D01*
X6826138Y16205643D01*
X6952554Y16510837D01*
X7017000Y16834830D01*
X7017000Y17165170D01*
X6952554Y17489163D01*
X6826138Y17794357D01*
X6642611Y18069025D01*
X6409025Y18302611D01*
X6134357Y18486138D01*
X5829163Y18612554D01*
X5505170Y18677000D01*
X5174830Y18677000D01*
X4850837Y18612554D01*
X4545643Y18486138D01*
X4270975Y18302611D01*
X4037389Y18069025D01*
X3853862Y17794357D01*
X3727446Y17489163D01*
X3663000Y17165170D01*
X-10071351Y17165170D01*
X-11623000Y18716818D01*
X-11623000Y25165170D01*
X-10677000Y25165170D01*
X-10677000Y24834830D01*
X-10612554Y24510837D01*
X-10486138Y24205643D01*
X-10302611Y23930975D01*
X-10069025Y23697389D01*
X-9794357Y23513862D01*
X-9489163Y23387446D01*
X-9165170Y23323000D01*
X-8834830Y23323000D01*
X-8510837Y23387446D01*
X-8205643Y23513862D01*
X-7930975Y23697389D01*
X-7697389Y23930975D01*
X-7513862Y24205643D01*
X-7387446Y24510837D01*
X-7323000Y24834830D01*
X-7323000Y25165170D01*
X-517000Y25165170D01*
X-517000Y24834830D01*
X-452554Y24510837D01*
X-326138Y24205643D01*
X-142611Y23930975D01*
X90975Y23697389D01*
X365643Y23513862D01*
X670837Y23387446D01*
X994830Y23323000D01*
X1325170Y23323000D01*
X1649163Y23387446D01*
X1954357Y23513862D01*
X2229025Y23697389D01*
X2462611Y23930975D01*
X2646138Y24205643D01*
X2772554Y24510837D01*
X2837000Y24834830D01*
X2837000Y25165170D01*
X2772554Y25489163D01*
X2646138Y25794357D01*
X2462611Y26069025D01*
X2229025Y26302611D01*
X1954357Y26486138D01*
X1649163Y26612554D01*
X1325170Y26677000D01*
X994830Y26677000D01*
X670837Y26612554D01*
X365643Y26486138D01*
X90975Y26302611D01*
X-142611Y26069025D01*
X-326138Y25794357D01*
X-452554Y25489163D01*
X-517000Y25165170D01*
X-7323000Y25165170D01*
X-7387446Y25489163D01*
X-7513862Y25794357D01*
X-7697389Y26069025D01*
X-7930975Y26302611D01*
X-8205643Y26486138D01*
X-8510837Y26612554D01*
X-8834830Y26677000D01*
X-9165170Y26677000D01*
X-9489163Y26612554D01*
X-9794357Y26486138D01*
X-10069025Y26302611D01*
X-10302611Y26069025D01*
X-10486138Y25794357D01*
X-10612554Y25489163D01*
X-10677000Y25165170D01*
X-11623000Y25165170D01*
X-11623000Y29194643D01*
X-11617548Y29250000D01*
X-11623000Y29305357D01*
X-11623000Y29305365D01*
X-11639307Y29470931D01*
X-11703750Y29683371D01*
X-11808400Y29879157D01*
X-11869617Y29953750D01*
X-11913942Y30007761D01*
X-11913945Y30007764D01*
X-11949235Y30050765D01*
X-11992236Y30086055D01*
X-13071351Y31165170D01*
X3163000Y31165170D01*
X3163000Y30834830D01*
X3227446Y30510837D01*
X3353862Y30205643D01*
X3537389Y29930975D01*
X3770975Y29697389D01*
X4045643Y29513862D01*
X4350837Y29387446D01*
X4674830Y29323000D01*
X5005170Y29323000D01*
X5329163Y29387446D01*
X5634357Y29513862D01*
X5909025Y29697389D01*
X6142611Y29930975D01*
X6326138Y30205643D01*
X6452554Y30510837D01*
X6517000Y30834830D01*
X6517000Y31165170D01*
X6452554Y31489163D01*
X6326138Y31794357D01*
X6142611Y32069025D01*
X5909025Y32302611D01*
X5634357Y32486138D01*
X5329163Y32612554D01*
X5005170Y32677000D01*
X4674830Y32677000D01*
X4350837Y32612554D01*
X4045643Y32486138D01*
X3770975Y32302611D01*
X3537389Y32069025D01*
X3353862Y31794357D01*
X3227446Y31489163D01*
X3163000Y31165170D01*
X-13071351Y31165170D01*
X-16913000Y35006818D01*
X-16913000Y37386483D01*
X-16889592Y37367273D01*
X-16737237Y37285838D01*
X-16571922Y37235690D01*
X-16400000Y37218757D01*
X-14600000Y37218757D01*
X-14428078Y37235690D01*
X-14262763Y37285838D01*
X-14110408Y37367273D01*
X-13976867Y37476867D01*
X-13867273Y37610408D01*
X-13785838Y37762763D01*
X-13752398Y37873000D01*
X-10744636Y37873000D01*
X-10569025Y37697389D01*
X-10294357Y37513862D01*
X-9989163Y37387446D01*
X-9665170Y37323000D01*
X-9334830Y37323000D01*
X-9010837Y37387446D01*
X-8705643Y37513862D01*
X-8430975Y37697389D01*
X-8197389Y37930975D01*
X-8013862Y38205643D01*
X-7887446Y38510837D01*
X-7823000Y38834830D01*
X-7823000Y39165170D01*
X-1017000Y39165170D01*
X-1017000Y38834830D01*
X-952554Y38510837D01*
X-826138Y38205643D01*
X-642611Y37930975D01*
X-409025Y37697389D01*
X-134357Y37513862D01*
X170837Y37387446D01*
X494830Y37323000D01*
X825170Y37323000D01*
X1149163Y37387446D01*
X1454357Y37513862D01*
X1729025Y37697389D01*
X1962611Y37930975D01*
X2146138Y38205643D01*
X2272554Y38510837D01*
X2337000Y38834830D01*
X2337000Y39165170D01*
X2272554Y39489163D01*
X2146138Y39794357D01*
X1962611Y40069025D01*
X1729025Y40302611D01*
X1454357Y40486138D01*
X1149163Y40612554D01*
X825170Y40677000D01*
X494830Y40677000D01*
X170837Y40612554D01*
X-134357Y40486138D01*
X-409025Y40302611D01*
X-642611Y40069025D01*
X-826138Y39794357D01*
X-952554Y39489163D01*
X-1017000Y39165170D01*
X-7823000Y39165170D01*
X-7887446Y39489163D01*
X-8013862Y39794357D01*
X-8197389Y40069025D01*
X-8430975Y40302611D01*
X-8705643Y40486138D01*
X-9010837Y40612554D01*
X-9334830Y40677000D01*
X-9665170Y40677000D01*
X-9989163Y40612554D01*
X-10294357Y40486138D01*
X-10569025Y40302611D01*
X-10744636Y40127000D01*
X-13752398Y40127000D01*
X-13785838Y40237237D01*
X-13867273Y40389592D01*
X-13976867Y40523133D01*
X-14110408Y40632727D01*
X-14262763Y40714162D01*
X-14428078Y40764310D01*
X-14600000Y40781243D01*
X-16400000Y40781243D01*
X-16571922Y40764310D01*
X-16737237Y40714162D01*
X-16889592Y40632727D01*
X-17023133Y40523133D01*
X-17057798Y40480893D01*
X-17198275Y40574757D01*
X-17521668Y40708711D01*
X-17864981Y40777000D01*
X-18215019Y40777000D01*
X-18558332Y40708711D01*
X-18881725Y40574757D01*
X-19172771Y40380286D01*
X-19420286Y40132771D01*
X-19614757Y39841725D01*
X-19748711Y39518332D01*
X-19817000Y39175019D01*
X-31048000Y39175019D01*
X-31048000Y45165170D01*
X3163000Y45165170D01*
X3163000Y44834830D01*
X3227446Y44510837D01*
X3353862Y44205643D01*
X3537389Y43930975D01*
X3770975Y43697389D01*
X4045643Y43513862D01*
X4350837Y43387446D01*
X4674830Y43323000D01*
X5005170Y43323000D01*
X5329163Y43387446D01*
X5634357Y43513862D01*
X5909025Y43697389D01*
X6142611Y43930975D01*
X6326138Y44205643D01*
X6452554Y44510837D01*
X6517000Y44834830D01*
X6517000Y45165170D01*
X6452554Y45489163D01*
X6326138Y45794357D01*
X6142611Y46069025D01*
X5909025Y46302611D01*
X5634357Y46486138D01*
X5329163Y46612554D01*
X5005170Y46677000D01*
X4674830Y46677000D01*
X4350837Y46612554D01*
X4045643Y46486138D01*
X3770975Y46302611D01*
X3537389Y46069025D01*
X3353862Y45794357D01*
X3227446Y45489163D01*
X3163000Y45165170D01*
X-31048000Y45165170D01*
X-31048000Y54862153D01*
X-30677000Y54862153D01*
X-30677000Y54137847D01*
X-30535695Y53427459D01*
X-30258515Y52758288D01*
X-29856112Y52156049D01*
X-29343951Y51643888D01*
X-28741712Y51241485D01*
X-28072541Y50964305D01*
X-27362153Y50823000D01*
X-26637847Y50823000D01*
X-25927459Y50964305D01*
X-25258288Y51241485D01*
X-24656049Y51643888D01*
X-24143888Y52156049D01*
X-23741485Y52758288D01*
X-23464305Y53427459D01*
X-23323000Y54137847D01*
X-23323000Y54862153D01*
X79323000Y54862153D01*
X79323000Y54137847D01*
X79464305Y53427459D01*
X79741485Y52758288D01*
X80143888Y52156049D01*
X80656049Y51643888D01*
X81258288Y51241485D01*
X81927459Y50964305D01*
X82637847Y50823000D01*
X83362153Y50823000D01*
X84072541Y50964305D01*
X84741712Y51241485D01*
X85343951Y51643888D01*
X85856112Y52156049D01*
X86258515Y52758288D01*
X86535695Y53427459D01*
X86677000Y54137847D01*
X86677000Y54862153D01*
X86535695Y55572541D01*
X86258515Y56241712D01*
X85856112Y56843951D01*
X85343951Y57356112D01*
X84741712Y57758515D01*
X84072541Y58035695D01*
X83362153Y58177000D01*
X82637847Y58177000D01*
X81927459Y58035695D01*
X81258288Y57758515D01*
X80656049Y57356112D01*
X80143888Y56843951D01*
X79741485Y56241712D01*
X79464305Y55572541D01*
X79323000Y54862153D01*
X-23323000Y54862153D01*
X-23464305Y55572541D01*
X-23741485Y56241712D01*
X-24143888Y56843951D01*
X-24656049Y57356112D01*
X-25258288Y57758515D01*
X-25927459Y58035695D01*
X-26637847Y58177000D01*
X-27362153Y58177000D01*
X-28072541Y58035695D01*
X-28741712Y57758515D01*
X-29343951Y57356112D01*
X-29856112Y56843951D01*
X-30258515Y56241712D01*
X-30535695Y55572541D01*
X-30677000Y54862153D01*
X-31048000Y54862153D01*
X-31048000Y58548000D01*
X87048001Y58548000D01*
X87048000Y-9548000D01*
G37*
X87048000Y-9548000D02*
X5532215Y-9548000D01*
X5603215Y-9477000D01*
X55644648Y-9477000D01*
X55700002Y-9482452D01*
X55755356Y-9477000D01*
X55755367Y-9477000D01*
X55920933Y-9460693D01*
X56133373Y-9396250D01*
X56329159Y-9291600D01*
X56500767Y-9150765D01*
X56536061Y-9107759D01*
X59757764Y-5886057D01*
X59800765Y-5850767D01*
X59836055Y-5807766D01*
X59836058Y-5807763D01*
X59941600Y-5679159D01*
X60046250Y-5483373D01*
X60050024Y-5470931D01*
X60110693Y-5270933D01*
X60127000Y-5105367D01*
X60127000Y-5105357D01*
X60132452Y-5050002D01*
X60127000Y-4994648D01*
X60127000Y-3468000D01*
X68115857Y-3468000D01*
X68115857Y-7772000D01*
X73884143Y-7772000D01*
X73884143Y-5387847D01*
X79573000Y-5387847D01*
X79573000Y-6112153D01*
X79714305Y-6822541D01*
X79991485Y-7491712D01*
X80393888Y-8093951D01*
X80906049Y-8606112D01*
X81508288Y-9008515D01*
X82177459Y-9285695D01*
X82887847Y-9427000D01*
X83612153Y-9427000D01*
X84322541Y-9285695D01*
X84991712Y-9008515D01*
X85593951Y-8606112D01*
X86106112Y-8093951D01*
X86508515Y-7491712D01*
X86785695Y-6822541D01*
X86927000Y-6112153D01*
X86927000Y-5387847D01*
X86785695Y-4677459D01*
X86508515Y-4008288D01*
X86106112Y-3406049D01*
X85593951Y-2893888D01*
X84991712Y-2491485D01*
X84322541Y-2214305D01*
X83612153Y-2073000D01*
X82887847Y-2073000D01*
X82177459Y-2214305D01*
X81508288Y-2491485D01*
X80906049Y-2893888D01*
X80393888Y-3406049D01*
X79991485Y-4008288D01*
X79714305Y-4677459D01*
X79573000Y-5387847D01*
X73884143Y-5387847D01*
X73884143Y-3468000D01*
X68115857Y-3468000D01*
X60127000Y-3468000D01*
X60127000Y1150000D01*
X61511928Y1150000D01*
X61524188Y1025518D01*
X61560498Y905820D01*
X61619463Y795506D01*
X61698815Y698815D01*
X61795506Y619463D01*
X61905820Y560498D01*
X62025518Y524188D01*
X62150000Y511928D01*
X62714250Y515000D01*
X62873000Y673750D01*
X62873000Y1873000D01*
X63127000Y1873000D01*
X63127000Y673750D01*
X63285750Y515000D01*
X63850000Y511928D01*
X63974482Y524188D01*
X64094180Y560498D01*
X64204494Y619463D01*
X64301185Y698815D01*
X64380537Y795506D01*
X64439502Y905820D01*
X64475812Y1025518D01*
X64488072Y1150000D01*
X64485000Y1714250D01*
X64326250Y1873000D01*
X63127000Y1873000D01*
X62873000Y1873000D01*
X61673750Y1873000D01*
X61515000Y1714250D01*
X61511928Y1150000D01*
X60127000Y1150000D01*
X60127000Y2533182D01*
X61006819Y3413000D01*
X61684654Y3413000D01*
X61752451Y3345203D01*
X61698815Y3301185D01*
X61619463Y3204494D01*
X61560498Y3094180D01*
X61524188Y2974482D01*
X61511928Y2850000D01*
X61515000Y2285750D01*
X61673750Y2127000D01*
X62873000Y2127000D01*
X62873000Y2147000D01*
X63127000Y2147000D01*
X63127000Y2127000D01*
X64326250Y2127000D01*
X64485000Y2285750D01*
X64488072Y2850000D01*
X64475812Y2974482D01*
X64439502Y3094180D01*
X64380537Y3204494D01*
X64301185Y3301185D01*
X64247549Y3345203D01*
X64341448Y3439102D01*
X64530447Y3721959D01*
X64660632Y4036253D01*
X64727000Y4369905D01*
X64727000Y4710095D01*
X64660632Y5043747D01*
X64530447Y5358041D01*
X64341448Y5640898D01*
X64127000Y5855346D01*
X64127000Y7005170D01*
X70573000Y7005170D01*
X70573000Y6674830D01*
X70637446Y6350837D01*
X70763862Y6045643D01*
X70947389Y5770975D01*
X71180975Y5537389D01*
X71455643Y5353862D01*
X71760837Y5227446D01*
X72084830Y5163000D01*
X72415170Y5163000D01*
X72739163Y5227446D01*
X73044357Y5353862D01*
X73319025Y5537389D01*
X73552611Y5770975D01*
X73736138Y6045643D01*
X73862554Y6350837D01*
X73927000Y6674830D01*
X73927000Y7005170D01*
X73862554Y7329163D01*
X73736138Y7634357D01*
X73552611Y7909025D01*
X73319025Y8142611D01*
X73044357Y8326138D01*
X72739163Y8452554D01*
X72415170Y8517000D01*
X72084830Y8517000D01*
X71760837Y8452554D01*
X71455643Y8326138D01*
X71180975Y8142611D01*
X70947389Y7909025D01*
X70763862Y7634357D01*
X70637446Y7329163D01*
X70573000Y7005170D01*
X64127000Y7005170D01*
X64127000Y7033182D01*
X69716819Y12623000D01*
X70944646Y12623000D01*
X71000000Y12617548D01*
X71055354Y12623000D01*
X71055365Y12623000D01*
X71220931Y12639307D01*
X71433371Y12703750D01*
X71629157Y12808400D01*
X71800765Y12949235D01*
X71836059Y12992241D01*
X73007764Y14163945D01*
X73050765Y14199235D01*
X73086055Y14242236D01*
X73086058Y14242239D01*
X73191600Y14370843D01*
X73296250Y14566629D01*
X73302144Y14586058D01*
X73360693Y14779069D01*
X73377000Y14944635D01*
X73377000Y14944645D01*
X73382452Y15000000D01*
X73377000Y15055354D01*
X73377000Y15755364D01*
X73552611Y15930975D01*
X73736138Y16205643D01*
X73862554Y16510837D01*
X73927000Y16834830D01*
X73927000Y17165170D01*
X73862554Y17489163D01*
X73736138Y17794357D01*
X73552611Y18069025D01*
X73319025Y18302611D01*
X73044357Y18486138D01*
X72739163Y18612554D01*
X72415170Y18677000D01*
X72084830Y18677000D01*
X71760837Y18612554D01*
X71455643Y18486138D01*
X71180975Y18302611D01*
X70947389Y18069025D01*
X70763862Y17794357D01*
X70637446Y17489163D01*
X70573000Y17165170D01*
X70573000Y16834830D01*
X70637446Y16510837D01*
X70763862Y16205643D01*
X70947389Y15930975D01*
X71123000Y15755364D01*
X71123000Y15466819D01*
X70533182Y14877000D01*
X69305357Y14877000D01*
X69250000Y14882452D01*
X69194643Y14877000D01*
X69194635Y14877000D01*
X69029069Y14860693D01*
X68816629Y14796250D01*
X68620843Y14691600D01*
X68492239Y14586058D01*
X68492236Y14586055D01*
X68449235Y14550765D01*
X68413945Y14507764D01*
X65392000Y11485819D01*
X65392000Y15615858D01*
X65397771Y15619714D01*
X65645286Y15867229D01*
X65839757Y16158275D01*
X65973711Y16481668D01*
X66042000Y16824981D01*
X66042000Y17175019D01*
X65973711Y17518332D01*
X65839757Y17841725D01*
X65645286Y18132771D01*
X65397771Y18380286D01*
X65106725Y18574757D01*
X64783332Y18708711D01*
X64440019Y18777000D01*
X64089981Y18777000D01*
X63746668Y18708711D01*
X63423275Y18574757D01*
X63282798Y18480893D01*
X63248133Y18523133D01*
X63114592Y18632727D01*
X62962237Y18714162D01*
X62796922Y18764310D01*
X62625000Y18781243D01*
X60825000Y18781243D01*
X60653078Y18764310D01*
X60487763Y18714162D01*
X60335408Y18632727D01*
X60201867Y18523133D01*
X60092273Y18389592D01*
X60010838Y18237237D01*
X59960690Y18071922D01*
X59943757Y17900000D01*
X59943757Y16100000D01*
X59960690Y15928078D01*
X60010838Y15762763D01*
X60092273Y15610408D01*
X60201867Y15476867D01*
X60335408Y15367273D01*
X60487763Y15285838D01*
X60653078Y15235690D01*
X60825000Y15218757D01*
X62625000Y15218757D01*
X62796922Y15235690D01*
X62962237Y15285838D01*
X63114592Y15367273D01*
X63138000Y15386484D01*
X63138001Y10646046D01*
X57242231Y4750276D01*
X57199225Y4714981D01*
X57058390Y4543373D01*
X56953740Y4347586D01*
X56889297Y4135146D01*
X56872990Y3969580D01*
X56872990Y3969570D01*
X56867538Y3914216D01*
X56872990Y3858862D01*
X56872991Y-4168966D01*
X54918957Y-6123001D01*
X24515129Y-6123001D01*
X24540704Y-6070429D01*
X24622384Y-5758892D01*
X24641718Y-5437405D01*
X24597961Y-5118325D01*
X24492795Y-4813912D01*
X24399814Y-4639956D01*
X24135413Y-4544192D01*
X23179605Y-5500000D01*
X23193748Y-5514143D01*
X23014143Y-5693748D01*
X23000000Y-5679605D01*
X22985858Y-5693748D01*
X22806253Y-5514143D01*
X22820395Y-5500000D01*
X21864587Y-4544192D01*
X21600186Y-4639956D01*
X21459296Y-4929571D01*
X21377616Y-5241108D01*
X21358282Y-5562595D01*
X21402039Y-5881675D01*
X21485410Y-6123001D01*
X12782905Y-6123001D01*
X12766396Y-6040006D01*
X12647519Y-5753011D01*
X12474936Y-5494721D01*
X12255279Y-5275064D01*
X11996989Y-5102481D01*
X11709994Y-4983604D01*
X11405321Y-4923000D01*
X11094679Y-4923000D01*
X10790006Y-4983604D01*
X10503011Y-5102481D01*
X10244721Y-5275064D01*
X10025064Y-5494721D01*
X9852481Y-5753011D01*
X9733604Y-6040006D01*
X9673000Y-6344679D01*
X9673000Y-6655321D01*
X9733604Y-6959994D01*
X9842544Y-7223000D01*
X5603215Y-7223000D01*
X5505279Y-7125064D01*
X5246989Y-6952481D01*
X4959994Y-6833604D01*
X4655321Y-6773000D01*
X4344679Y-6773000D01*
X4040006Y-6833604D01*
X3753011Y-6952481D01*
X3494721Y-7125064D01*
X3275064Y-7344721D01*
X3102481Y-7603011D01*
X2983604Y-7890006D01*
X2923000Y-8194679D01*
X2923000Y-8505321D01*
X2983604Y-8809994D01*
X3102481Y-9096989D01*
X3275064Y-9355279D01*
X3467785Y-9548000D01*
X-31048000Y-9548000D01*
X-31048000Y-5137847D01*
X-30677000Y-5137847D01*
X-30677000Y-5862153D01*
X-30535695Y-6572541D01*
X-30258515Y-7241712D01*
X-29856112Y-7843951D01*
X-29343951Y-8356112D01*
X-28741712Y-8758515D01*
X-28072541Y-9035695D01*
X-27362153Y-9177000D01*
X-26637847Y-9177000D01*
X-25927459Y-9035695D01*
X-25258288Y-8758515D01*
X-24656049Y-8356112D01*
X-24143888Y-7843951D01*
X-23741485Y-7241712D01*
X-23464305Y-6572541D01*
X-23323000Y-5862153D01*
X-23323000Y-5137847D01*
X-23464305Y-4427459D01*
X-23741485Y-3758288D01*
X-24143888Y-3156049D01*
X-24656049Y-2643888D01*
X-25258288Y-2241485D01*
X-25927459Y-1964305D01*
X-26637847Y-1823000D01*
X-27362153Y-1823000D01*
X-28072541Y-1964305D01*
X-28741712Y-2241485D01*
X-29343951Y-2643888D01*
X-29856112Y-3156049D01*
X-30258515Y-3758288D01*
X-30535695Y-4427459D01*
X-30677000Y-5137847D01*
X-31048000Y-5137847D01*
X-31048000Y14160000D01*
X-28531968Y14160000D01*
X-28526999Y14109549D01*
X-28527000Y3550441D01*
X-28531968Y3500000D01*
X-28527000Y3449559D01*
X-28527000Y3449550D01*
X-28512140Y3298674D01*
X-28453415Y3105084D01*
X-28358051Y2926669D01*
X-28229712Y2770288D01*
X-28190519Y2738123D01*
X-20761868Y-4690530D01*
X-20729712Y-4729712D01*
X-20690530Y-4761868D01*
X-20690525Y-4761873D01*
X-20616526Y-4822602D01*
X-20573331Y-4858051D01*
X-20394917Y-4953415D01*
X-20295397Y-4983604D01*
X-20201328Y-5012140D01*
X-20183169Y-5013928D01*
X-20050451Y-5027000D01*
X-20050444Y-5027000D01*
X-20000000Y-5031968D01*
X-19949557Y-5027000D01*
X-18878584Y-5027000D01*
X-18864310Y-5171922D01*
X-18814162Y-5337237D01*
X-18732727Y-5489592D01*
X-18623133Y-5623133D01*
X-18489592Y-5732727D01*
X-18337237Y-5814162D01*
X-18171922Y-5864310D01*
X-18000000Y-5881243D01*
X-16000000Y-5881243D01*
X-15828078Y-5864310D01*
X-15662763Y-5814162D01*
X-15510408Y-5732727D01*
X-15376867Y-5623133D01*
X-15267273Y-5489592D01*
X-15185838Y-5337237D01*
X-15135690Y-5171922D01*
X-15118757Y-5000000D01*
X-15118757Y-3000000D01*
X-15135690Y-2828078D01*
X-15185838Y-2662763D01*
X-15267273Y-2510408D01*
X-15376867Y-2376867D01*
X-15510408Y-2267273D01*
X-15662763Y-2185838D01*
X-15828078Y-2135690D01*
X-16000000Y-2118757D01*
X-18000000Y-2118757D01*
X-18171922Y-2135690D01*
X-18337237Y-2185838D01*
X-18489592Y-2267273D01*
X-18623133Y-2376867D01*
X-18732727Y-2510408D01*
X-18814162Y-2662763D01*
X-18864310Y-2828078D01*
X-18878584Y-2973000D01*
X-19574602Y-2973000D01*
X-24150713Y1603110D01*
X-18441476Y1603110D01*
X-18396825Y1455901D01*
X-18271641Y1193080D01*
X-18097588Y959731D01*
X-17881355Y764822D01*
X-17631252Y615843D01*
X-17356891Y518519D01*
X-17127000Y639186D01*
X-17127000Y1833000D01*
X-16873000Y1833000D01*
X-16873000Y639186D01*
X-16643109Y518519D01*
X-16368748Y615843D01*
X-16118645Y764822D01*
X-15902412Y959731D01*
X-15728359Y1193080D01*
X-15603175Y1455901D01*
X-15558524Y1603110D01*
X-15679845Y1833000D01*
X-16873000Y1833000D01*
X-17127000Y1833000D01*
X-18320155Y1833000D01*
X-18441476Y1603110D01*
X-24150713Y1603110D01*
X-26473000Y3925396D01*
X-26473000Y7665170D01*
X-25677000Y7665170D01*
X-25677000Y7334830D01*
X-25612554Y7010837D01*
X-25486138Y6705643D01*
X-25302611Y6430975D01*
X-25069025Y6197389D01*
X-24794357Y6013862D01*
X-24489163Y5887446D01*
X-24165170Y5823000D01*
X-23834830Y5823000D01*
X-23510837Y5887446D01*
X-23205643Y6013862D01*
X-22930975Y6197389D01*
X-22755364Y6373000D01*
X-22466818Y6373000D01*
X-19836055Y3742236D01*
X-19800765Y3699235D01*
X-19757764Y3663945D01*
X-19757761Y3663942D01*
X-19677897Y3598400D01*
X-19629157Y3558400D01*
X-19433371Y3453750D01*
X-19220931Y3389307D01*
X-19055365Y3373000D01*
X-19055357Y3373000D01*
X-19000000Y3367548D01*
X-18944643Y3373000D01*
X-18682435Y3373000D01*
X-18664162Y3312763D01*
X-18582727Y3160408D01*
X-18473133Y3026867D01*
X-18339592Y2917273D01*
X-18189498Y2837047D01*
X-18271641Y2726920D01*
X-18396825Y2464099D01*
X-18441476Y2316890D01*
X-18320155Y2087000D01*
X-17127000Y2087000D01*
X-17127000Y2107000D01*
X-16873000Y2107000D01*
X-16873000Y2087000D01*
X-15679845Y2087000D01*
X-15558524Y2316890D01*
X-15603175Y2464099D01*
X-15728359Y2726920D01*
X-15810502Y2837047D01*
X-15660408Y2917273D01*
X-15526867Y3026867D01*
X-15417273Y3160408D01*
X-15335838Y3312763D01*
X-15285690Y3478078D01*
X-15268757Y3650000D01*
X-15268757Y5350000D01*
X-15285690Y5521922D01*
X-15335838Y5687237D01*
X-15417273Y5839592D01*
X-15526867Y5973133D01*
X-15660408Y6082727D01*
X-15812763Y6164162D01*
X-15978078Y6214310D01*
X-16150000Y6231243D01*
X-17850000Y6231243D01*
X-18021922Y6214310D01*
X-18187237Y6164162D01*
X-18339592Y6082727D01*
X-18473133Y5973133D01*
X-18582727Y5839592D01*
X-18639520Y5733339D01*
X-21163942Y8257760D01*
X-21199235Y8300765D01*
X-21370843Y8441600D01*
X-21566629Y8546250D01*
X-21779069Y8610693D01*
X-21944635Y8627000D01*
X-21944646Y8627000D01*
X-22000000Y8632452D01*
X-22055354Y8627000D01*
X-22755364Y8627000D01*
X-22930975Y8802611D01*
X-23205643Y8986138D01*
X-23510837Y9112554D01*
X-23834830Y9177000D01*
X-24165170Y9177000D01*
X-24489163Y9112554D01*
X-24794357Y8986138D01*
X-25069025Y8802611D01*
X-25302611Y8569025D01*
X-25486138Y8294357D01*
X-25612554Y7989163D01*
X-25677000Y7665170D01*
X-26473000Y7665170D01*
X-26473000Y13734604D01*
X-24214743Y15992861D01*
X-24165170Y15983000D01*
X-23834830Y15983000D01*
X-23510837Y16047446D01*
X-23205643Y16173862D01*
X-22930975Y16357389D01*
X-22697389Y16590975D01*
X-22513862Y16865643D01*
X-22387446Y17170837D01*
X-22323000Y17494830D01*
X-22323000Y17825170D01*
X-22387446Y18149163D01*
X-22513862Y18454357D01*
X-22697389Y18729025D01*
X-22930975Y18962611D01*
X-23205643Y19146138D01*
X-23510837Y19272554D01*
X-23834830Y19337000D01*
X-24165170Y19337000D01*
X-24489163Y19272554D01*
X-24794357Y19146138D01*
X-25069025Y18962611D01*
X-25302611Y18729025D01*
X-25486138Y18454357D01*
X-25612554Y18149163D01*
X-25677000Y17825170D01*
X-25677000Y17494830D01*
X-25667139Y17445257D01*
X-28190524Y14921872D01*
X-28229711Y14889712D01*
X-28261871Y14850525D01*
X-28261872Y14850524D01*
X-28358050Y14733331D01*
X-28453414Y14554917D01*
X-28512139Y14361327D01*
X-28531968Y14160000D01*
X-31048000Y14160000D01*
X-31048000Y39175019D01*
X-19817000Y39175019D01*
X-19817000Y38824981D01*
X-19748711Y38481668D01*
X-19614757Y38158275D01*
X-19420286Y37867229D01*
X-19172771Y37619714D01*
X-19166999Y37615857D01*
X-19167000Y34595355D01*
X-19172452Y34540000D01*
X-19167000Y34484646D01*
X-19167000Y34484636D01*
X-19150693Y34319070D01*
X-19086250Y34106630D01*
X-18981600Y33910843D01*
X-18840765Y33739235D01*
X-18797759Y33703941D01*
X-13876999Y28783180D01*
X-13876999Y26401444D01*
X-13976867Y26523133D01*
X-14110408Y26632727D01*
X-14262763Y26714162D01*
X-14428078Y26764310D01*
X-14600000Y26781243D01*
X-16400000Y26781243D01*
X-16571922Y26764310D01*
X-16737237Y26714162D01*
X-16889592Y26632727D01*
X-17023133Y26523133D01*
X-17057798Y26480893D01*
X-17198275Y26574757D01*
X-17521668Y26708711D01*
X-17864981Y26777000D01*
X-18215019Y26777000D01*
X-18558332Y26708711D01*
X-18881725Y26574757D01*
X-19172771Y26380286D01*
X-19420286Y26132771D01*
X-19614757Y25841725D01*
X-19748711Y25518332D01*
X-19817000Y25175019D01*
X-19817000Y24824981D01*
X-19748711Y24481668D01*
X-19614757Y24158275D01*
X-19420286Y23867229D01*
X-19172771Y23619714D01*
X-19167000Y23615858D01*
X-19166999Y22095364D01*
X-19172452Y22040000D01*
X-19150692Y21819070D01*
X-19086250Y21606630D01*
X-18981600Y21410844D01*
X-18876058Y21282240D01*
X-18876054Y21282236D01*
X-18840764Y21239235D01*
X-18797763Y21203945D01*
X-12627000Y15033181D01*
X-12626999Y2055364D01*
X-12632452Y2000000D01*
X-12626999Y1944636D01*
X-12626999Y1944635D01*
X-12610692Y1779069D01*
X-12591636Y1716250D01*
X-12546250Y1566630D01*
X-12441600Y1370844D01*
X-12336058Y1242240D01*
X-12336054Y1242236D01*
X-12300764Y1199235D01*
X-12257763Y1163945D01*
X-5086055Y-6007764D01*
X-5050765Y-6050765D01*
X-5007764Y-6086055D01*
X-5007761Y-6086058D01*
X-4942875Y-6139308D01*
X-4879157Y-6191600D01*
X-4683371Y-6296250D01*
X-4470931Y-6360693D01*
X-4305365Y-6377000D01*
X-4305355Y-6377000D01*
X-4250001Y-6382452D01*
X-4194646Y-6377000D01*
X-1075354Y-6377000D01*
X-1020000Y-6382452D01*
X-964646Y-6377000D01*
X-964635Y-6377000D01*
X-799069Y-6360693D01*
X-586629Y-6296250D01*
X-390843Y-6191600D01*
X-219235Y-6050765D01*
X-183941Y-6007759D01*
X801819Y-5022000D01*
X1132557Y-5022000D01*
X1471039Y-4954671D01*
X1789883Y-4822602D01*
X2076835Y-4630867D01*
X2230000Y-4477702D01*
X2383165Y-4630867D01*
X2670117Y-4822602D01*
X2988961Y-4954671D01*
X3327443Y-5022000D01*
X3672557Y-5022000D01*
X4011039Y-4954671D01*
X4329883Y-4822602D01*
X4616835Y-4630867D01*
X4770000Y-4477702D01*
X4923165Y-4630867D01*
X5210117Y-4822602D01*
X5528961Y-4954671D01*
X5867443Y-5022000D01*
X6212557Y-5022000D01*
X6551039Y-4954671D01*
X6869883Y-4822602D01*
X7156835Y-4630867D01*
X7310000Y-4477702D01*
X7463165Y-4630867D01*
X7750117Y-4822602D01*
X8068961Y-4954671D01*
X8407443Y-5022000D01*
X8752557Y-5022000D01*
X9091039Y-4954671D01*
X9409883Y-4822602D01*
X9696835Y-4630867D01*
X9940867Y-4386835D01*
X9955732Y-4364587D01*
X22044192Y-4364587D01*
X23000000Y-5320395D01*
X23955808Y-4364587D01*
X23860044Y-4100186D01*
X23570429Y-3959296D01*
X23258892Y-3877616D01*
X22937405Y-3858282D01*
X22618325Y-3902039D01*
X22313912Y-4007205D01*
X22139956Y-4100186D01*
X22044192Y-4364587D01*
X9955732Y-4364587D01*
X10132602Y-4099883D01*
X10264671Y-3781039D01*
X10332000Y-3442557D01*
X10332000Y-3097443D01*
X10264671Y-2758961D01*
X10132602Y-2440117D01*
X9940867Y-2153165D01*
X9696835Y-1909133D01*
X9409883Y-1717398D01*
X9372173Y-1701778D01*
X8580000Y-909605D01*
X7787827Y-1701778D01*
X7750117Y-1717398D01*
X7463165Y-1909133D01*
X7310000Y-2062298D01*
X7247702Y-2000000D01*
X7400867Y-1846835D01*
X7592602Y-1559883D01*
X7608222Y-1522173D01*
X8400395Y-730000D01*
X8386253Y-715858D01*
X8565858Y-536253D01*
X8580000Y-550395D01*
X8594143Y-536253D01*
X8773748Y-715858D01*
X8759605Y-730000D01*
X9626240Y-1596635D01*
X9877868Y-1515975D01*
X10006267Y-1247671D01*
X10079855Y-959474D01*
X10095804Y-662457D01*
X10053501Y-368037D01*
X9968493Y-127000D01*
X16026145Y-127000D01*
X16029235Y-130765D01*
X16200843Y-271600D01*
X16396629Y-376250D01*
X16609069Y-440693D01*
X16774635Y-457000D01*
X16774645Y-457000D01*
X16829999Y-462452D01*
X16885354Y-457000D01*
X21684654Y-457000D01*
X21899102Y-671448D01*
X22181959Y-860447D01*
X22496253Y-990632D01*
X22829905Y-1057000D01*
X23170095Y-1057000D01*
X23503747Y-990632D01*
X23818041Y-860447D01*
X24100898Y-671448D01*
X24341448Y-430898D01*
X24530447Y-148041D01*
X24660632Y166253D01*
X24727000Y499905D01*
X24727000Y803182D01*
X26507764Y2583945D01*
X26550765Y2619235D01*
X26586055Y2662236D01*
X26586058Y2662239D01*
X26691600Y2790843D01*
X26734361Y2870843D01*
X26796250Y2986629D01*
X26860693Y3199069D01*
X26877000Y3364635D01*
X26877000Y3364645D01*
X26882452Y3419999D01*
X26877000Y3475354D01*
X26877000Y7005170D01*
X27823000Y7005170D01*
X27823000Y6674830D01*
X27887446Y6350837D01*
X28013862Y6045643D01*
X28197389Y5770975D01*
X28430975Y5537389D01*
X28705643Y5353862D01*
X29010837Y5227446D01*
X29334830Y5163000D01*
X29665170Y5163000D01*
X29989163Y5227446D01*
X30294357Y5353862D01*
X30569025Y5537389D01*
X30802611Y5770975D01*
X30986138Y6045643D01*
X31112554Y6350837D01*
X31177000Y6674830D01*
X31177000Y7005170D01*
X31112554Y7329163D01*
X30986138Y7634357D01*
X30802611Y7909025D01*
X30569025Y8142611D01*
X30294357Y8326138D01*
X29989163Y8452554D01*
X29665170Y8517000D01*
X29334830Y8517000D01*
X29010837Y8452554D01*
X28705643Y8326138D01*
X28430975Y8142611D01*
X28197389Y7909025D01*
X28013862Y7634357D01*
X27887446Y7329163D01*
X27823000Y7005170D01*
X26877000Y7005170D01*
X26877000Y15459646D01*
X26882452Y15515001D01*
X26877000Y15570355D01*
X26877000Y15570365D01*
X26860693Y15735931D01*
X26819114Y15873000D01*
X28255364Y15873000D01*
X28430975Y15697389D01*
X28705643Y15513862D01*
X29010837Y15387446D01*
X29334830Y15323000D01*
X29665170Y15323000D01*
X29989163Y15387446D01*
X30294357Y15513862D01*
X30569025Y15697389D01*
X30802611Y15930975D01*
X30986138Y16205643D01*
X31112554Y16510837D01*
X31177000Y16834830D01*
X31177000Y17165170D01*
X44163000Y17165170D01*
X44163000Y16834830D01*
X44227446Y16510837D01*
X44353862Y16205643D01*
X44537389Y15930975D01*
X44770975Y15697389D01*
X45045643Y15513862D01*
X45350837Y15387446D01*
X45674830Y15323000D01*
X46005170Y15323000D01*
X46329163Y15387446D01*
X46634357Y15513862D01*
X46909025Y15697389D01*
X47142611Y15930975D01*
X47326138Y16205643D01*
X47452554Y16510837D01*
X47517000Y16834830D01*
X47517000Y17165170D01*
X54323000Y17165170D01*
X54323000Y16834830D01*
X54387446Y16510837D01*
X54513862Y16205643D01*
X54697389Y15930975D01*
X54930975Y15697389D01*
X55205643Y15513862D01*
X55510837Y15387446D01*
X55834830Y15323000D01*
X56165170Y15323000D01*
X56489163Y15387446D01*
X56794357Y15513862D01*
X57069025Y15697389D01*
X57302611Y15930975D01*
X57486138Y16205643D01*
X57612554Y16510837D01*
X57677000Y16834830D01*
X57677000Y17165170D01*
X57612554Y17489163D01*
X57486138Y17794357D01*
X57302611Y18069025D01*
X57069025Y18302611D01*
X56794357Y18486138D01*
X56489163Y18612554D01*
X56165170Y18677000D01*
X55834830Y18677000D01*
X55510837Y18612554D01*
X55205643Y18486138D01*
X54930975Y18302611D01*
X54697389Y18069025D01*
X54513862Y17794357D01*
X54387446Y17489163D01*
X54323000Y17165170D01*
X47517000Y17165170D01*
X47452554Y17489163D01*
X47326138Y17794357D01*
X47142611Y18069025D01*
X46909025Y18302611D01*
X46634357Y18486138D01*
X46329163Y18612554D01*
X46005170Y18677000D01*
X45674830Y18677000D01*
X45350837Y18612554D01*
X45045643Y18486138D01*
X44770975Y18302611D01*
X44537389Y18069025D01*
X44353862Y17794357D01*
X44227446Y17489163D01*
X44163000Y17165170D01*
X31177000Y17165170D01*
X31112554Y17489163D01*
X30986138Y17794357D01*
X30802611Y18069025D01*
X30569025Y18302611D01*
X30294357Y18486138D01*
X29989163Y18612554D01*
X29665170Y18677000D01*
X29334830Y18677000D01*
X29010837Y18612554D01*
X28705643Y18486138D01*
X28430975Y18302611D01*
X28255364Y18127000D01*
X25649142Y18127000D01*
X25645286Y18132771D01*
X25397771Y18380286D01*
X25106725Y18574757D01*
X24783332Y18708711D01*
X24440019Y18777000D01*
X24089981Y18777000D01*
X23746668Y18708711D01*
X23423275Y18574757D01*
X23282798Y18480893D01*
X23248133Y18523133D01*
X23114592Y18632727D01*
X22962237Y18714162D01*
X22796922Y18764310D01*
X22625000Y18781243D01*
X21375061Y18781243D01*
X27257764Y24663945D01*
X27300765Y24699235D01*
X27336055Y24742236D01*
X27336058Y24742239D01*
X27441600Y24870843D01*
X27546250Y25066629D01*
X27576142Y25165170D01*
X27610693Y25279069D01*
X27627000Y25444635D01*
X27627000Y25444645D01*
X27632452Y25500000D01*
X27627000Y25555354D01*
X27627000Y33876320D01*
X27697389Y33770975D01*
X27930975Y33537389D01*
X28205643Y33353862D01*
X28510837Y33227446D01*
X28834830Y33163000D01*
X29165170Y33163000D01*
X29489163Y33227446D01*
X29794357Y33353862D01*
X30069025Y33537389D01*
X30302611Y33770975D01*
X30486138Y34045643D01*
X30612554Y34350837D01*
X30677000Y34674830D01*
X30677000Y35005170D01*
X30612554Y35329163D01*
X30486138Y35634357D01*
X30302611Y35909025D01*
X30069025Y36142611D01*
X29794357Y36326138D01*
X29489163Y36452554D01*
X29165170Y36517000D01*
X28834830Y36517000D01*
X28510837Y36452554D01*
X28205643Y36326138D01*
X27930975Y36142611D01*
X27697389Y35909025D01*
X27627000Y35803680D01*
X27627000Y42709646D01*
X27632452Y42765001D01*
X27627000Y42820355D01*
X27627000Y42820365D01*
X27610693Y42985931D01*
X27546250Y43198371D01*
X27441600Y43394157D01*
X27336058Y43522761D01*
X27336055Y43522764D01*
X27300765Y43565765D01*
X27257764Y43601055D01*
X26985819Y43873000D01*
X27755364Y43873000D01*
X27930975Y43697389D01*
X28205643Y43513862D01*
X28510837Y43387446D01*
X28834830Y43323000D01*
X29165170Y43323000D01*
X29489163Y43387446D01*
X29794357Y43513862D01*
X30069025Y43697389D01*
X30302611Y43930975D01*
X30486138Y44205643D01*
X30612554Y44510837D01*
X30677000Y44834830D01*
X30677000Y45165170D01*
X30612554Y45489163D01*
X30486138Y45794357D01*
X30302611Y46069025D01*
X30069025Y46302611D01*
X29794357Y46486138D01*
X29489163Y46612554D01*
X29165170Y46677000D01*
X28834830Y46677000D01*
X28510837Y46612554D01*
X28205643Y46486138D01*
X27930975Y46302611D01*
X27755364Y46127000D01*
X25649142Y46127000D01*
X25645286Y46132771D01*
X25397771Y46380286D01*
X25106725Y46574757D01*
X24783332Y46708711D01*
X24440019Y46777000D01*
X24089981Y46777000D01*
X23746668Y46708711D01*
X23423275Y46574757D01*
X23282798Y46480893D01*
X23248133Y46523133D01*
X23114592Y46632727D01*
X22962237Y46714162D01*
X22796922Y46764310D01*
X22625000Y46781243D01*
X20825000Y46781243D01*
X20653078Y46764310D01*
X20487763Y46714162D01*
X20335408Y46632727D01*
X20201867Y46523133D01*
X20092273Y46389592D01*
X20010838Y46237237D01*
X19977398Y46127000D01*
X16244636Y46127000D01*
X16069025Y46302611D01*
X15794357Y46486138D01*
X15489163Y46612554D01*
X15165170Y46677000D01*
X14834830Y46677000D01*
X14510837Y46612554D01*
X14205643Y46486138D01*
X13930975Y46302611D01*
X13697389Y46069025D01*
X13513862Y45794357D01*
X13387446Y45489163D01*
X13323000Y45165170D01*
X13323000Y44834830D01*
X13387446Y44510837D01*
X13513862Y44205643D01*
X13697389Y43930975D01*
X13930975Y43697389D01*
X14205643Y43513862D01*
X14510837Y43387446D01*
X14834830Y43323000D01*
X15165170Y43323000D01*
X15489163Y43387446D01*
X15794357Y43513862D01*
X16069025Y43697389D01*
X16244636Y43873000D01*
X19977398Y43873000D01*
X20010838Y43762763D01*
X20092273Y43610408D01*
X20201867Y43476867D01*
X20335408Y43367273D01*
X20487763Y43285838D01*
X20653078Y43235690D01*
X20825000Y43218757D01*
X22625000Y43218757D01*
X22796922Y43235690D01*
X22962237Y43285838D01*
X23114592Y43367273D01*
X23248133Y43476867D01*
X23282798Y43519107D01*
X23423275Y43425243D01*
X23746668Y43291289D01*
X24089981Y43223000D01*
X24440019Y43223000D01*
X24446827Y43224354D01*
X25373001Y42298180D01*
X25373000Y32396837D01*
X25106725Y32574757D01*
X24783332Y32708711D01*
X24440019Y32777000D01*
X24089981Y32777000D01*
X23746668Y32708711D01*
X23423275Y32574757D01*
X23282798Y32480893D01*
X23248133Y32523133D01*
X23114592Y32632727D01*
X22962237Y32714162D01*
X22796922Y32764310D01*
X22625000Y32781243D01*
X20825000Y32781243D01*
X20653078Y32764310D01*
X20487763Y32714162D01*
X20335408Y32632727D01*
X20201867Y32523133D01*
X20092273Y32389592D01*
X20010838Y32237237D01*
X19977398Y32127000D01*
X16244636Y32127000D01*
X16069025Y32302611D01*
X15794357Y32486138D01*
X15489163Y32612554D01*
X15165170Y32677000D01*
X14834830Y32677000D01*
X14510837Y32612554D01*
X14205643Y32486138D01*
X13930975Y32302611D01*
X13697389Y32069025D01*
X13513862Y31794357D01*
X13387446Y31489163D01*
X13323000Y31165170D01*
X13323000Y30834830D01*
X13387446Y30510837D01*
X13513862Y30205643D01*
X13697389Y29930975D01*
X13930975Y29697389D01*
X14205643Y29513862D01*
X14510837Y29387446D01*
X14834830Y29323000D01*
X15165170Y29323000D01*
X15489163Y29387446D01*
X15794357Y29513862D01*
X16069025Y29697389D01*
X16244636Y29873000D01*
X19977398Y29873000D01*
X20010838Y29762763D01*
X20092273Y29610408D01*
X20201867Y29476867D01*
X20335408Y29367273D01*
X20487763Y29285838D01*
X20653078Y29235690D01*
X20825000Y29218757D01*
X22625000Y29218757D01*
X22796922Y29235690D01*
X22962237Y29285838D01*
X23114592Y29367273D01*
X23138001Y29386484D01*
X23138000Y26231819D01*
X16742237Y19836055D01*
X16699236Y19800765D01*
X16663946Y19757764D01*
X16663942Y19757760D01*
X16558400Y19629156D01*
X16453750Y19433370D01*
X16431704Y19360692D01*
X16389308Y19220931D01*
X16380269Y19129157D01*
X16367548Y19000000D01*
X16373001Y18944636D01*
X16373001Y18433590D01*
X16294357Y18486138D01*
X15989163Y18612554D01*
X15665170Y18677000D01*
X15334830Y18677000D01*
X15010837Y18612554D01*
X14705643Y18486138D01*
X14430975Y18302611D01*
X14197389Y18069025D01*
X14013862Y17794357D01*
X13887446Y17489163D01*
X13823000Y17165170D01*
X13823000Y16834830D01*
X13887446Y16510837D01*
X14013862Y16205643D01*
X14197389Y15930975D01*
X14430975Y15697389D01*
X14705643Y15513862D01*
X15010837Y15387446D01*
X15334830Y15323000D01*
X15665170Y15323000D01*
X15989163Y15387446D01*
X16294357Y15513862D01*
X16373001Y15566410D01*
X16373000Y6466819D01*
X13033182Y3127000D01*
X-944643Y3127000D01*
X-1000000Y3132452D01*
X-1055357Y3127000D01*
X-1055365Y3127000D01*
X-1220931Y3110693D01*
X-1433371Y3046250D01*
X-1629157Y2941600D01*
X-1800765Y2800765D01*
X-1836058Y2757760D01*
X-2337758Y2256060D01*
X-2380765Y2220765D01*
X-2521600Y2049157D01*
X-2626250Y1853370D01*
X-2690693Y1640930D01*
X-2707000Y1475364D01*
X-2707000Y1475354D01*
X-2712452Y1420000D01*
X-2707000Y1364645D01*
X-2707000Y620702D01*
X-2940867Y386835D01*
X-3132602Y99883D01*
X-3264671Y-218961D01*
X-3332000Y-557443D01*
X-3332000Y-902557D01*
X-3264671Y-1241039D01*
X-3132602Y-1559883D01*
X-2940867Y-1846835D01*
X-2787702Y-2000000D01*
X-2930702Y-2143000D01*
X-3263181Y-2143000D01*
X-9373000Y3966818D01*
X-9373000Y15944636D01*
X-9367547Y16000000D01*
X-9380592Y16132452D01*
X-9389307Y16220931D01*
X-9453750Y16433371D01*
X-9558400Y16629157D01*
X-9573415Y16647453D01*
X-9663942Y16757761D01*
X-9663945Y16757764D01*
X-9699235Y16800765D01*
X-9742236Y16836055D01*
X-10071351Y17165170D01*
X3663000Y17165170D01*
X3663000Y16834830D01*
X3727446Y16510837D01*
X3853862Y16205643D01*
X4037389Y15930975D01*
X4270975Y15697389D01*
X4545643Y15513862D01*
X4850837Y15387446D01*
X5174830Y15323000D01*
X5505170Y15323000D01*
X5829163Y15387446D01*
X6134357Y15513862D01*
X6409025Y15697389D01*
X6642611Y15930975D01*
X6826138Y16205643D01*
X6952554Y16510837D01*
X7017000Y16834830D01*
X7017000Y17165170D01*
X6952554Y17489163D01*
X6826138Y17794357D01*
X6642611Y18069025D01*
X6409025Y18302611D01*
X6134357Y18486138D01*
X5829163Y18612554D01*
X5505170Y18677000D01*
X5174830Y18677000D01*
X4850837Y18612554D01*
X4545643Y18486138D01*
X4270975Y18302611D01*
X4037389Y18069025D01*
X3853862Y17794357D01*
X3727446Y17489163D01*
X3663000Y17165170D01*
X-10071351Y17165170D01*
X-11623000Y18716818D01*
X-11623000Y25165170D01*
X-10677000Y25165170D01*
X-10677000Y24834830D01*
X-10612554Y24510837D01*
X-10486138Y24205643D01*
X-10302611Y23930975D01*
X-10069025Y23697389D01*
X-9794357Y23513862D01*
X-9489163Y23387446D01*
X-9165170Y23323000D01*
X-8834830Y23323000D01*
X-8510837Y23387446D01*
X-8205643Y23513862D01*
X-7930975Y23697389D01*
X-7697389Y23930975D01*
X-7513862Y24205643D01*
X-7387446Y24510837D01*
X-7323000Y24834830D01*
X-7323000Y25165170D01*
X-517000Y25165170D01*
X-517000Y24834830D01*
X-452554Y24510837D01*
X-326138Y24205643D01*
X-142611Y23930975D01*
X90975Y23697389D01*
X365643Y23513862D01*
X670837Y23387446D01*
X994830Y23323000D01*
X1325170Y23323000D01*
X1649163Y23387446D01*
X1954357Y23513862D01*
X2229025Y23697389D01*
X2462611Y23930975D01*
X2646138Y24205643D01*
X2772554Y24510837D01*
X2837000Y24834830D01*
X2837000Y25165170D01*
X2772554Y25489163D01*
X2646138Y25794357D01*
X2462611Y26069025D01*
X2229025Y26302611D01*
X1954357Y26486138D01*
X1649163Y26612554D01*
X1325170Y26677000D01*
X994830Y26677000D01*
X670837Y26612554D01*
X365643Y26486138D01*
X90975Y26302611D01*
X-142611Y26069025D01*
X-326138Y25794357D01*
X-452554Y25489163D01*
X-517000Y25165170D01*
X-7323000Y25165170D01*
X-7387446Y25489163D01*
X-7513862Y25794357D01*
X-7697389Y26069025D01*
X-7930975Y26302611D01*
X-8205643Y26486138D01*
X-8510837Y26612554D01*
X-8834830Y26677000D01*
X-9165170Y26677000D01*
X-9489163Y26612554D01*
X-9794357Y26486138D01*
X-10069025Y26302611D01*
X-10302611Y26069025D01*
X-10486138Y25794357D01*
X-10612554Y25489163D01*
X-10677000Y25165170D01*
X-11623000Y25165170D01*
X-11623000Y29194643D01*
X-11617548Y29250000D01*
X-11623000Y29305357D01*
X-11623000Y29305365D01*
X-11639307Y29470931D01*
X-11703750Y29683371D01*
X-11808400Y29879157D01*
X-11869617Y29953750D01*
X-11913942Y30007761D01*
X-11913945Y30007764D01*
X-11949235Y30050765D01*
X-11992236Y30086055D01*
X-13071351Y31165170D01*
X3163000Y31165170D01*
X3163000Y30834830D01*
X3227446Y30510837D01*
X3353862Y30205643D01*
X3537389Y29930975D01*
X3770975Y29697389D01*
X4045643Y29513862D01*
X4350837Y29387446D01*
X4674830Y29323000D01*
X5005170Y29323000D01*
X5329163Y29387446D01*
X5634357Y29513862D01*
X5909025Y29697389D01*
X6142611Y29930975D01*
X6326138Y30205643D01*
X6452554Y30510837D01*
X6517000Y30834830D01*
X6517000Y31165170D01*
X6452554Y31489163D01*
X6326138Y31794357D01*
X6142611Y32069025D01*
X5909025Y32302611D01*
X5634357Y32486138D01*
X5329163Y32612554D01*
X5005170Y32677000D01*
X4674830Y32677000D01*
X4350837Y32612554D01*
X4045643Y32486138D01*
X3770975Y32302611D01*
X3537389Y32069025D01*
X3353862Y31794357D01*
X3227446Y31489163D01*
X3163000Y31165170D01*
X-13071351Y31165170D01*
X-16913000Y35006818D01*
X-16913000Y37386483D01*
X-16889592Y37367273D01*
X-16737237Y37285838D01*
X-16571922Y37235690D01*
X-16400000Y37218757D01*
X-14600000Y37218757D01*
X-14428078Y37235690D01*
X-14262763Y37285838D01*
X-14110408Y37367273D01*
X-13976867Y37476867D01*
X-13867273Y37610408D01*
X-13785838Y37762763D01*
X-13752398Y37873000D01*
X-10744636Y37873000D01*
X-10569025Y37697389D01*
X-10294357Y37513862D01*
X-9989163Y37387446D01*
X-9665170Y37323000D01*
X-9334830Y37323000D01*
X-9010837Y37387446D01*
X-8705643Y37513862D01*
X-8430975Y37697389D01*
X-8197389Y37930975D01*
X-8013862Y38205643D01*
X-7887446Y38510837D01*
X-7823000Y38834830D01*
X-7823000Y39165170D01*
X-1017000Y39165170D01*
X-1017000Y38834830D01*
X-952554Y38510837D01*
X-826138Y38205643D01*
X-642611Y37930975D01*
X-409025Y37697389D01*
X-134357Y37513862D01*
X170837Y37387446D01*
X494830Y37323000D01*
X825170Y37323000D01*
X1149163Y37387446D01*
X1454357Y37513862D01*
X1729025Y37697389D01*
X1962611Y37930975D01*
X2146138Y38205643D01*
X2272554Y38510837D01*
X2337000Y38834830D01*
X2337000Y39165170D01*
X2272554Y39489163D01*
X2146138Y39794357D01*
X1962611Y40069025D01*
X1729025Y40302611D01*
X1454357Y40486138D01*
X1149163Y40612554D01*
X825170Y40677000D01*
X494830Y40677000D01*
X170837Y40612554D01*
X-134357Y40486138D01*
X-409025Y40302611D01*
X-642611Y40069025D01*
X-826138Y39794357D01*
X-952554Y39489163D01*
X-1017000Y39165170D01*
X-7823000Y39165170D01*
X-7887446Y39489163D01*
X-8013862Y39794357D01*
X-8197389Y40069025D01*
X-8430975Y40302611D01*
X-8705643Y40486138D01*
X-9010837Y40612554D01*
X-9334830Y40677000D01*
X-9665170Y40677000D01*
X-9989163Y40612554D01*
X-10294357Y40486138D01*
X-10569025Y40302611D01*
X-10744636Y40127000D01*
X-13752398Y40127000D01*
X-13785838Y40237237D01*
X-13867273Y40389592D01*
X-13976867Y40523133D01*
X-14110408Y40632727D01*
X-14262763Y40714162D01*
X-14428078Y40764310D01*
X-14600000Y40781243D01*
X-16400000Y40781243D01*
X-16571922Y40764310D01*
X-16737237Y40714162D01*
X-16889592Y40632727D01*
X-17023133Y40523133D01*
X-17057798Y40480893D01*
X-17198275Y40574757D01*
X-17521668Y40708711D01*
X-17864981Y40777000D01*
X-18215019Y40777000D01*
X-18558332Y40708711D01*
X-18881725Y40574757D01*
X-19172771Y40380286D01*
X-19420286Y40132771D01*
X-19614757Y39841725D01*
X-19748711Y39518332D01*
X-19817000Y39175019D01*
X-31048000Y39175019D01*
X-31048000Y45165170D01*
X3163000Y45165170D01*
X3163000Y44834830D01*
X3227446Y44510837D01*
X3353862Y44205643D01*
X3537389Y43930975D01*
X3770975Y43697389D01*
X4045643Y43513862D01*
X4350837Y43387446D01*
X4674830Y43323000D01*
X5005170Y43323000D01*
X5329163Y43387446D01*
X5634357Y43513862D01*
X5909025Y43697389D01*
X6142611Y43930975D01*
X6326138Y44205643D01*
X6452554Y44510837D01*
X6517000Y44834830D01*
X6517000Y45165170D01*
X6452554Y45489163D01*
X6326138Y45794357D01*
X6142611Y46069025D01*
X5909025Y46302611D01*
X5634357Y46486138D01*
X5329163Y46612554D01*
X5005170Y46677000D01*
X4674830Y46677000D01*
X4350837Y46612554D01*
X4045643Y46486138D01*
X3770975Y46302611D01*
X3537389Y46069025D01*
X3353862Y45794357D01*
X3227446Y45489163D01*
X3163000Y45165170D01*
X-31048000Y45165170D01*
X-31048000Y54862153D01*
X-30677000Y54862153D01*
X-30677000Y54137847D01*
X-30535695Y53427459D01*
X-30258515Y52758288D01*
X-29856112Y52156049D01*
X-29343951Y51643888D01*
X-28741712Y51241485D01*
X-28072541Y50964305D01*
X-27362153Y50823000D01*
X-26637847Y50823000D01*
X-25927459Y50964305D01*
X-25258288Y51241485D01*
X-24656049Y51643888D01*
X-24143888Y52156049D01*
X-23741485Y52758288D01*
X-23464305Y53427459D01*
X-23323000Y54137847D01*
X-23323000Y54862153D01*
X79323000Y54862153D01*
X79323000Y54137847D01*
X79464305Y53427459D01*
X79741485Y52758288D01*
X80143888Y52156049D01*
X80656049Y51643888D01*
X81258288Y51241485D01*
X81927459Y50964305D01*
X82637847Y50823000D01*
X83362153Y50823000D01*
X84072541Y50964305D01*
X84741712Y51241485D01*
X85343951Y51643888D01*
X85856112Y52156049D01*
X86258515Y52758288D01*
X86535695Y53427459D01*
X86677000Y54137847D01*
X86677000Y54862153D01*
X86535695Y55572541D01*
X86258515Y56241712D01*
X85856112Y56843951D01*
X85343951Y57356112D01*
X84741712Y57758515D01*
X84072541Y58035695D01*
X83362153Y58177000D01*
X82637847Y58177000D01*
X81927459Y58035695D01*
X81258288Y57758515D01*
X80656049Y57356112D01*
X80143888Y56843951D01*
X79741485Y56241712D01*
X79464305Y55572541D01*
X79323000Y54862153D01*
X-23323000Y54862153D01*
X-23464305Y55572541D01*
X-23741485Y56241712D01*
X-24143888Y56843951D01*
X-24656049Y57356112D01*
X-25258288Y57758515D01*
X-25927459Y58035695D01*
X-26637847Y58177000D01*
X-27362153Y58177000D01*
X-28072541Y58035695D01*
X-28741712Y57758515D01*
X-29343951Y57356112D01*
X-29856112Y56843951D01*
X-30258515Y56241712D01*
X-30535695Y55572541D01*
X-30677000Y54862153D01*
X-31048000Y54862153D01*
X-31048000Y58548000D01*
X87048001Y58548000D01*
X87048000Y-9548000D01*
G36*
X18699235Y10699235D02*
G01*
X18742242Y10663940D01*
X21873001Y7533181D01*
X21873001Y7432435D01*
X21812763Y7414162D01*
X21660408Y7332727D01*
X21526867Y7223133D01*
X21417273Y7089592D01*
X21335838Y6937237D01*
X21285690Y6771922D01*
X21268757Y6600000D01*
X21268757Y4900000D01*
X21285690Y4728078D01*
X21335838Y4562763D01*
X21417273Y4410408D01*
X21526867Y4276867D01*
X21660408Y4167273D01*
X21810502Y4087047D01*
X21728359Y3976920D01*
X21603175Y3714099D01*
X21558524Y3566890D01*
X21679845Y3337000D01*
X22873000Y3337000D01*
X22873000Y3357000D01*
X23127000Y3357000D01*
X23127000Y3337000D01*
X23147000Y3337000D01*
X23147000Y3083000D01*
X23127000Y3083000D01*
X23127000Y3063000D01*
X22873000Y3063000D01*
X22873000Y3083000D01*
X21679845Y3083000D01*
X21558524Y2853110D01*
X21603175Y2705901D01*
X21728359Y2443080D01*
X21902412Y2209731D01*
X22027333Y2097129D01*
X21899102Y2011448D01*
X21684654Y1797000D01*
X17303855Y1797000D01*
X17300765Y1800765D01*
X17129157Y1941600D01*
X16933371Y2046250D01*
X16720931Y2110693D01*
X16555365Y2127000D01*
X16555354Y2127000D01*
X16500000Y2132452D01*
X16444646Y2127000D01*
X15220818Y2127000D01*
X18257764Y5163945D01*
X18300765Y5199235D01*
X18336055Y5242236D01*
X18336058Y5242239D01*
X18441600Y5370843D01*
X18500801Y5481600D01*
X18546250Y5566629D01*
X18610693Y5779069D01*
X18627000Y5944635D01*
X18627000Y5944645D01*
X18632452Y5999999D01*
X18627000Y6055354D01*
X18627000Y10787254D01*
X18699235Y10699235D01*
G37*
X18699235Y10699235D02*
X18742242Y10663940D01*
X21873001Y7533181D01*
X21873001Y7432435D01*
X21812763Y7414162D01*
X21660408Y7332727D01*
X21526867Y7223133D01*
X21417273Y7089592D01*
X21335838Y6937237D01*
X21285690Y6771922D01*
X21268757Y6600000D01*
X21268757Y4900000D01*
X21285690Y4728078D01*
X21335838Y4562763D01*
X21417273Y4410408D01*
X21526867Y4276867D01*
X21660408Y4167273D01*
X21810502Y4087047D01*
X21728359Y3976920D01*
X21603175Y3714099D01*
X21558524Y3566890D01*
X21679845Y3337000D01*
X22873000Y3337000D01*
X22873000Y3357000D01*
X23127000Y3357000D01*
X23127000Y3337000D01*
X23147000Y3337000D01*
X23147000Y3083000D01*
X23127000Y3083000D01*
X23127000Y3063000D01*
X22873000Y3063000D01*
X22873000Y3083000D01*
X21679845Y3083000D01*
X21558524Y2853110D01*
X21603175Y2705901D01*
X21728359Y2443080D01*
X21902412Y2209731D01*
X22027333Y2097129D01*
X21899102Y2011448D01*
X21684654Y1797000D01*
X17303855Y1797000D01*
X17300765Y1800765D01*
X17129157Y1941600D01*
X16933371Y2046250D01*
X16720931Y2110693D01*
X16555365Y2127000D01*
X16555354Y2127000D01*
X16500000Y2132452D01*
X16444646Y2127000D01*
X15220818Y2127000D01*
X18257764Y5163945D01*
X18300765Y5199235D01*
X18336055Y5242236D01*
X18336058Y5242239D01*
X18441600Y5370843D01*
X18500801Y5481600D01*
X18546250Y5566629D01*
X18610693Y5779069D01*
X18627000Y5944635D01*
X18627000Y5944645D01*
X18632452Y5999999D01*
X18627000Y6055354D01*
X18627000Y10787254D01*
X18699235Y10699235D01*
M02*
