M48
; DRILL file {KiCad (5.1.6)-1} date 10/14/21 14:48:47
; FORMAT={-:-/ absolute / inch / decimal}
; #@! TF.CreationDate,2021-10-14T14:48:47+02:00
; #@! TF.GenerationSoftware,Kicad,Pcbnew,(5.1.6)-1
; #@! TF.FileFunction,Plated,1,2,PTH
FMAT,2
INCH
T1C0.0315
T2C0.0394
T3C0.0433
T4C0.0591
%
G90
G05
T1
X0.5512Y1.0335
X0.6791Y1.0827
X1.0039Y0.8071
X1.0925Y0.8071
X1.2205Y1.6732
X1.437Y1.1319
X1.5059Y1.3287
X1.5059Y1.2008
X1.6142Y0.7874
X1.9291Y1.1319
X2.0965Y1.6339
X2.2047Y1.0728
X2.2343Y0.8268
X2.3228Y0.6398
X2.3524Y1.3583
X2.5098Y0.6398
X2.5197Y0.7874
X2.5886Y1.0925
X2.6575Y1.0925
X2.7264Y1.0531
X2.7953Y1.6043
X2.8051Y0.6594
X2.815Y1.0531
X2.8543Y1.3386
X3.0512Y1.7126
X3.1693Y0.5217
X3.1988Y0.7382
X3.2776Y0.5807
X3.2972Y1.378
X3.306Y1.0431
X3.3071Y0.935
X3.376Y1.378
X3.3957Y1.2795
X3.4055Y0.689
X3.4154Y0.6102
X3.4744Y0.9646
X3.4941Y0.7677
X3.563Y1.1122
X3.563Y0.2657
X3.6713Y0.2657
X3.7795Y0.2657
T2
X2.6969Y2.0685
X2.6969Y1.9685
X2.7969Y2.0685
X2.7969Y1.9685
X2.8969Y2.0685
X2.8969Y1.9685
X2.9969Y2.0685
X2.9969Y1.9685
X3.0969Y2.0685
X3.0969Y1.9685
X1.8Y2.338
X1.9Y2.338
X2.0Y2.338
X2.1Y2.338
X2.2Y2.338
X2.3Y2.338
X2.4Y2.338
X2.5Y2.338
X2.5048Y1.5354
X2.5048Y1.4354
X2.5048Y1.3354
X2.6048Y1.5354
X2.6048Y1.4354
X2.6048Y1.3354
X2.9Y0.438
X3.0Y0.438
X3.1Y0.438
X3.2Y0.438
X3.3Y0.438
X3.4Y0.438
X3.5Y0.438
X3.6Y0.438
X2.0Y0.438
X2.1Y0.438
X2.2Y0.438
X2.3Y0.438
X2.4Y0.438
X2.5Y0.438
X2.6Y0.438
X2.7Y0.438
X2.7Y2.338
X2.8Y2.338
X2.9Y2.338
X3.0Y2.338
X3.1Y2.338
X3.2Y2.338
X3.3Y2.338
X3.4Y2.338
X3.7Y2.338
X3.7Y2.238
X3.7Y2.138
X3.7Y2.038
X3.7Y1.938
X3.7Y1.838
X3.7Y1.738
X3.7Y1.638
X3.7Y1.538
X3.7Y1.438
X3.7Y1.338
X3.7Y1.238
X3.7Y1.138
X3.7Y1.038
X3.7Y0.938
X3.7Y0.838
X3.7Y0.738
X3.7Y0.638
X3.8Y2.338
X3.8Y2.238
X3.8Y2.138
X3.8Y2.038
X3.8Y1.938
X3.8Y1.838
X3.8Y1.738
X3.8Y1.638
X3.8Y1.538
X3.8Y1.438
X3.8Y1.338
X3.8Y1.238
X3.8Y1.138
X3.8Y1.038
X3.8Y0.938
X3.8Y0.838
X3.8Y0.738
X3.8Y0.638
X0.74Y2.338
X0.84Y2.338
X0.94Y2.338
X1.04Y2.338
X1.14Y2.338
X1.24Y2.338
X1.34Y2.338
X1.44Y2.338
X1.54Y2.338
X1.64Y2.338
X1.1Y0.438
X1.2Y0.438
X1.3Y0.438
X1.4Y0.438
X1.5Y0.438
X1.6Y0.438
X1.7Y0.438
X1.8Y0.438
T3
X0.6587Y1.6756
X0.6587Y1.5756
X0.6587Y1.4756
X0.6587Y1.3756
X0.7587Y1.6756
X0.7587Y1.5756
X0.7587Y1.4756
X0.7587Y1.3756
X1.8996Y0.1673
X1.9996Y0.1673
X2.0996Y0.1673
X2.1996Y0.1673
X2.2996Y0.1673
X2.3996Y0.1673
X2.4996Y0.1673
X2.5996Y0.1673
X2.802Y0.9358
X2.802Y0.8358
X2.902Y0.9358
X2.902Y0.8358
X3.002Y0.9358
X3.002Y0.8358
X3.102Y0.9358
X3.102Y0.8358
X3.202Y0.9358
X3.202Y0.8358
X0.2559Y1.2894
X0.2559Y1.1894
X0.2559Y1.0894
X0.2559Y0.9894
X3.0217Y0.1673
X3.1217Y0.1673
X3.2217Y0.1673
X3.3217Y0.1673
X0.8957Y0.1673
X0.9957Y0.1673
X1.0957Y0.1673
X1.1957Y0.1673
X1.2957Y0.1673
X0.2559Y2.0669
X0.2559Y1.9669
X0.2559Y1.8669
X0.2559Y1.7669
X0.2559Y1.6669
T4
X1.2579Y0.8268
X2.0453Y0.8268
T0
M30
