%TF.GenerationSoftware,KiCad,Pcbnew,(5.1.6)-1*%
%TF.CreationDate,2021-10-14T14:48:08+02:00*%
%TF.ProjectId,DUE_Shield_v1,4455455f-5368-4696-956c-645f76312e6b,rev?*%
%TF.SameCoordinates,PX6296c50PY7c37510*%
%TF.FileFunction,Legend,Bot*%
%TF.FilePolarity,Positive*%
%FSLAX46Y46*%
G04 Gerber Fmt 4.6, Leading zero omitted, Abs format (unit mm)*
G04 Created by KiCad (PCBNEW (5.1.6)-1) date 2021-10-14 14:48:08*
%MOMM*%
%LPD*%
G01*
G04 APERTURE LIST*
%TA.AperFunction,Profile*%
%ADD10C,0.150000*%
%TD*%
%ADD11C,0.120000*%
%ADD12C,0.150000*%
G04 APERTURE END LIST*
D10*
X99060000Y9854000D02*
X99060000Y0D01*
X101600000Y12394000D02*
X99060000Y9854000D01*
X99060000Y49224000D02*
X101600000Y46684000D01*
X99060000Y0D02*
X0Y0D01*
X101600000Y46684000D02*
X101600000Y12394000D01*
X99060000Y62000000D02*
X99060000Y49224000D01*
X0Y62000000D02*
X99060000Y62000000D01*
X0Y0D02*
X0Y62000000D01*
D11*
X44390000Y60714000D02*
X44390000Y59384000D01*
X45720000Y60714000D02*
X44390000Y60714000D01*
X46990000Y60714000D02*
X46990000Y58054000D01*
X46990000Y58054000D02*
X64830000Y58054000D01*
X46990000Y60714000D02*
X64830000Y60714000D01*
X64830000Y60714000D02*
X64830000Y58054000D01*
X17466000Y60714000D02*
X17466000Y59384000D01*
X18796000Y60714000D02*
X17466000Y60714000D01*
X20066000Y60714000D02*
X20066000Y58054000D01*
X20066000Y58054000D02*
X42986000Y58054000D01*
X20066000Y60714000D02*
X42986000Y60714000D01*
X42986000Y60714000D02*
X42986000Y58054000D01*
X72330000Y12454000D02*
X72330000Y11124000D01*
X73660000Y12454000D02*
X72330000Y12454000D01*
X74930000Y12454000D02*
X74930000Y9794000D01*
X74930000Y9794000D02*
X92770000Y9794000D01*
X74930000Y12454000D02*
X92770000Y12454000D01*
X92770000Y12454000D02*
X92770000Y9794000D01*
X49470000Y12454000D02*
X49470000Y11124000D01*
X50800000Y12454000D02*
X49470000Y12454000D01*
X52070000Y12454000D02*
X52070000Y9794000D01*
X52070000Y9794000D02*
X69910000Y9794000D01*
X52070000Y12454000D02*
X69910000Y12454000D01*
X69910000Y12454000D02*
X69910000Y9794000D01*
X26610000Y12454000D02*
X26610000Y11124000D01*
X27940000Y12454000D02*
X26610000Y12454000D01*
X29210000Y12454000D02*
X29210000Y9794000D01*
X29210000Y9794000D02*
X47050000Y9794000D01*
X29210000Y12454000D02*
X47050000Y12454000D01*
X47050000Y12454000D02*
X47050000Y9794000D01*
X92650000Y14874000D02*
X93980000Y14874000D01*
X92650000Y16204000D02*
X92650000Y14874000D01*
X95250000Y14874000D02*
X97850000Y14874000D01*
X95250000Y17474000D02*
X95250000Y14874000D01*
X92650000Y17474000D02*
X95250000Y17474000D01*
X97850000Y14874000D02*
X97850000Y60714000D01*
X92650000Y17474000D02*
X92650000Y60714000D01*
X92650000Y60714000D02*
X97850000Y60714000D01*
X63622000Y40330000D02*
X62292000Y40330000D01*
X62292000Y40330000D02*
X62292000Y39000000D01*
X64892000Y40330000D02*
X64892000Y37730000D01*
X64892000Y37730000D02*
X62292000Y37730000D01*
X62292000Y37730000D02*
X62292000Y32590000D01*
X67492000Y32590000D02*
X62292000Y32590000D01*
X67492000Y40330000D02*
X67492000Y32590000D01*
X67492000Y40330000D02*
X64892000Y40330000D01*
X67250000Y60714000D02*
X67250000Y59384000D01*
X68580000Y60714000D02*
X67250000Y60714000D01*
X69850000Y60714000D02*
X69850000Y58054000D01*
X69850000Y58054000D02*
X87690000Y58054000D01*
X69850000Y60714000D02*
X87690000Y60714000D01*
X87690000Y60714000D02*
X87690000Y58054000D01*
D12*
X43842380Y60122096D02*
X42842380Y60122096D01*
X42842380Y59741143D01*
X42890000Y59645905D01*
X42937619Y59598286D01*
X43032857Y59550667D01*
X43175714Y59550667D01*
X43270952Y59598286D01*
X43318571Y59645905D01*
X43366190Y59741143D01*
X43366190Y60122096D01*
X42842380Y58693524D02*
X42842380Y58884000D01*
X42890000Y58979239D01*
X42937619Y59026858D01*
X43080476Y59122096D01*
X43270952Y59169715D01*
X43651904Y59169715D01*
X43747142Y59122096D01*
X43794761Y59074477D01*
X43842380Y58979239D01*
X43842380Y58788762D01*
X43794761Y58693524D01*
X43747142Y58645905D01*
X43651904Y58598286D01*
X43413809Y58598286D01*
X43318571Y58645905D01*
X43270952Y58693524D01*
X43223333Y58788762D01*
X43223333Y58979239D01*
X43270952Y59074477D01*
X43318571Y59122096D01*
X43413809Y59169715D01*
X16918380Y60122096D02*
X15918380Y60122096D01*
X15918380Y59741143D01*
X15966000Y59645905D01*
X16013619Y59598286D01*
X16108857Y59550667D01*
X16251714Y59550667D01*
X16346952Y59598286D01*
X16394571Y59645905D01*
X16442190Y59741143D01*
X16442190Y60122096D01*
X15918380Y58645905D02*
X15918380Y59122096D01*
X16394571Y59169715D01*
X16346952Y59122096D01*
X16299333Y59026858D01*
X16299333Y58788762D01*
X16346952Y58693524D01*
X16394571Y58645905D01*
X16489809Y58598286D01*
X16727904Y58598286D01*
X16823142Y58645905D01*
X16870761Y58693524D01*
X16918380Y58788762D01*
X16918380Y59026858D01*
X16870761Y59122096D01*
X16823142Y59169715D01*
X71782380Y11862096D02*
X70782380Y11862096D01*
X70782380Y11481143D01*
X70830000Y11385905D01*
X70877619Y11338286D01*
X70972857Y11290667D01*
X71115714Y11290667D01*
X71210952Y11338286D01*
X71258571Y11385905D01*
X71306190Y11481143D01*
X71306190Y11862096D01*
X71115714Y10433524D02*
X71782380Y10433524D01*
X70734761Y10671620D02*
X71449047Y10909715D01*
X71449047Y10290667D01*
X48922380Y11862096D02*
X47922380Y11862096D01*
X47922380Y11481143D01*
X47970000Y11385905D01*
X48017619Y11338286D01*
X48112857Y11290667D01*
X48255714Y11290667D01*
X48350952Y11338286D01*
X48398571Y11385905D01*
X48446190Y11481143D01*
X48446190Y11862096D01*
X47922380Y10957334D02*
X47922380Y10338286D01*
X48303333Y10671620D01*
X48303333Y10528762D01*
X48350952Y10433524D01*
X48398571Y10385905D01*
X48493809Y10338286D01*
X48731904Y10338286D01*
X48827142Y10385905D01*
X48874761Y10433524D01*
X48922380Y10528762D01*
X48922380Y10814477D01*
X48874761Y10909715D01*
X48827142Y10957334D01*
X26062380Y11862096D02*
X25062380Y11862096D01*
X25062380Y11481143D01*
X25110000Y11385905D01*
X25157619Y11338286D01*
X25252857Y11290667D01*
X25395714Y11290667D01*
X25490952Y11338286D01*
X25538571Y11385905D01*
X25586190Y11481143D01*
X25586190Y11862096D01*
X25157619Y10909715D02*
X25110000Y10862096D01*
X25062380Y10766858D01*
X25062380Y10528762D01*
X25110000Y10433524D01*
X25157619Y10385905D01*
X25252857Y10338286D01*
X25348095Y10338286D01*
X25490952Y10385905D01*
X26062380Y10957334D01*
X26062380Y10338286D01*
X95988095Y13421620D02*
X95988095Y14421620D01*
X95607142Y14421620D01*
X95511904Y14374000D01*
X95464285Y14326381D01*
X95416666Y14231143D01*
X95416666Y14088286D01*
X95464285Y13993048D01*
X95511904Y13945429D01*
X95607142Y13897810D01*
X95988095Y13897810D01*
X94464285Y13421620D02*
X95035714Y13421620D01*
X94750000Y13421620D02*
X94750000Y14421620D01*
X94845238Y14278762D01*
X94940476Y14183524D01*
X95035714Y14135905D01*
X65225333Y42317620D02*
X65225333Y41603334D01*
X65272952Y41460477D01*
X65368190Y41365239D01*
X65511047Y41317620D01*
X65606285Y41317620D01*
X64225333Y41317620D02*
X64796761Y41317620D01*
X64511047Y41317620D02*
X64511047Y42317620D01*
X64606285Y42174762D01*
X64701523Y42079524D01*
X64796761Y42031905D01*
X66702380Y60122096D02*
X65702380Y60122096D01*
X65702380Y59741143D01*
X65750000Y59645905D01*
X65797619Y59598286D01*
X65892857Y59550667D01*
X66035714Y59550667D01*
X66130952Y59598286D01*
X66178571Y59645905D01*
X66226190Y59741143D01*
X66226190Y60122096D01*
X65702380Y59217334D02*
X65702380Y58550667D01*
X66702380Y58979239D01*
M02*
