%TF.GenerationSoftware,KiCad,Pcbnew,(5.1.6)-1*%
%TF.CreationDate,2021-10-14T14:48:08+02:00*%
%TF.ProjectId,DUE_Shield_v1,4455455f-5368-4696-956c-645f76312e6b,rev?*%
%TF.SameCoordinates,PX6296c50PY7c37510*%
%TF.FileFunction,Soldermask,Top*%
%TF.FilePolarity,Negative*%
%FSLAX46Y46*%
G04 Gerber Fmt 4.6, Leading zero omitted, Abs format (unit mm)*
G04 Created by KiCad (PCBNEW (5.1.6)-1) date 2021-10-14 14:48:08*
%MOMM*%
%LPD*%
G01*
G04 APERTURE LIST*
%TA.AperFunction,Profile*%
%ADD10C,0.150000*%
%TD*%
%ADD11C,1.800000*%
%ADD12O,1.700000X1.700000*%
%ADD13R,1.700000X1.700000*%
%ADD14C,2.000000*%
%ADD15C,2.200000*%
%ADD16R,2.200000X2.200000*%
%ADD17C,1.750000*%
G04 APERTURE END LIST*
D10*
X99060000Y9854000D02*
X99060000Y0D01*
X101600000Y12394000D02*
X99060000Y9854000D01*
X99060000Y49224000D02*
X101600000Y46684000D01*
X99060000Y0D02*
X0Y0D01*
X101600000Y46684000D02*
X101600000Y12394000D01*
X99060000Y62000000D02*
X99060000Y49224000D01*
X0Y62000000D02*
X99060000Y62000000D01*
X0Y0D02*
X0Y62000000D01*
G36*
G01*
X56900000Y30000000D02*
X56900000Y29000000D01*
G75*
G02*
X56400000Y28500000I-500000J0D01*
G01*
X55400000Y28500000D01*
G75*
G02*
X54900000Y29000000I0J500000D01*
G01*
X54900000Y30000000D01*
G75*
G02*
X55400000Y30500000I500000J0D01*
G01*
X56400000Y30500000D01*
G75*
G02*
X56900000Y30000000I0J-500000D01*
G01*
G37*
G36*
G01*
X56900000Y42000000D02*
X56900000Y41000000D01*
G75*
G02*
X56400000Y40500000I-500000J0D01*
G01*
X55400000Y40500000D01*
G75*
G02*
X54900000Y41000000I0J500000D01*
G01*
X54900000Y42000000D01*
G75*
G02*
X55400000Y42500000I500000J0D01*
G01*
X56400000Y42500000D01*
G75*
G02*
X56900000Y42000000I0J-500000D01*
G01*
G37*
G36*
G01*
X29000000Y43000000D02*
X29000000Y42000000D01*
G75*
G02*
X28500000Y41500000I-500000J0D01*
G01*
X27500000Y41500000D01*
G75*
G02*
X27000000Y42000000I0J500000D01*
G01*
X27000000Y43000000D01*
G75*
G02*
X27500000Y43500000I500000J0D01*
G01*
X28500000Y43500000D01*
G75*
G02*
X29000000Y43000000I0J-500000D01*
G01*
G37*
D11*
X51950000Y21000000D03*
X31950000Y21000000D03*
G36*
G01*
X55575000Y18212500D02*
X55575000Y16787500D01*
G75*
G02*
X55287500Y16500000I-287500J0D01*
G01*
X54712500Y16500000D01*
G75*
G02*
X54425000Y16787500I0J287500D01*
G01*
X54425000Y18212500D01*
G75*
G02*
X54712500Y18500000I287500J0D01*
G01*
X55287500Y18500000D01*
G75*
G02*
X55575000Y18212500I0J-287500D01*
G01*
G37*
G36*
G01*
X53075000Y18212500D02*
X53075000Y16787500D01*
G75*
G02*
X52787500Y16500000I-287500J0D01*
G01*
X52212500Y16500000D01*
G75*
G02*
X51925000Y16787500I0J287500D01*
G01*
X51925000Y18212500D01*
G75*
G02*
X52212500Y18500000I287500J0D01*
G01*
X52787500Y18500000D01*
G75*
G02*
X53075000Y18212500I0J-287500D01*
G01*
G37*
G36*
G01*
X51375000Y18212500D02*
X51375000Y16787500D01*
G75*
G02*
X51087500Y16500000I-287500J0D01*
G01*
X50512500Y16500000D01*
G75*
G02*
X50225000Y16787500I0J287500D01*
G01*
X50225000Y18212500D01*
G75*
G02*
X50512500Y18500000I287500J0D01*
G01*
X51087500Y18500000D01*
G75*
G02*
X51375000Y18212500I0J-287500D01*
G01*
G37*
G36*
G01*
X48975000Y18212500D02*
X48975000Y16787500D01*
G75*
G02*
X48687500Y16500000I-287500J0D01*
G01*
X48112500Y16500000D01*
G75*
G02*
X47825000Y16787500I0J287500D01*
G01*
X47825000Y18212500D01*
G75*
G02*
X48112500Y18500000I287500J0D01*
G01*
X48687500Y18500000D01*
G75*
G02*
X48975000Y18212500I0J-287500D01*
G01*
G37*
G36*
G01*
X46475000Y18212500D02*
X46475000Y16787500D01*
G75*
G02*
X46187500Y16500000I-287500J0D01*
G01*
X45612500Y16500000D01*
G75*
G02*
X45325000Y16787500I0J287500D01*
G01*
X45325000Y18212500D01*
G75*
G02*
X45612500Y18500000I287500J0D01*
G01*
X46187500Y18500000D01*
G75*
G02*
X46475000Y18212500I0J-287500D01*
G01*
G37*
G36*
G01*
X43975000Y18212500D02*
X43975000Y16787500D01*
G75*
G02*
X43687500Y16500000I-287500J0D01*
G01*
X43112500Y16500000D01*
G75*
G02*
X42825000Y16787500I0J287500D01*
G01*
X42825000Y18212500D01*
G75*
G02*
X43112500Y18500000I287500J0D01*
G01*
X43687500Y18500000D01*
G75*
G02*
X43975000Y18212500I0J-287500D01*
G01*
G37*
G36*
G01*
X41475000Y18212500D02*
X41475000Y16787500D01*
G75*
G02*
X41187500Y16500000I-287500J0D01*
G01*
X40612500Y16500000D01*
G75*
G02*
X40325000Y16787500I0J287500D01*
G01*
X40325000Y18212500D01*
G75*
G02*
X40612500Y18500000I287500J0D01*
G01*
X41187500Y18500000D01*
G75*
G02*
X41475000Y18212500I0J-287500D01*
G01*
G37*
G36*
G01*
X38975000Y18212500D02*
X38975000Y16787500D01*
G75*
G02*
X38687500Y16500000I-287500J0D01*
G01*
X38112500Y16500000D01*
G75*
G02*
X37825000Y16787500I0J287500D01*
G01*
X37825000Y18212500D01*
G75*
G02*
X38112500Y18500000I287500J0D01*
G01*
X38687500Y18500000D01*
G75*
G02*
X38975000Y18212500I0J-287500D01*
G01*
G37*
G36*
G01*
X36475000Y18212500D02*
X36475000Y16787500D01*
G75*
G02*
X36187500Y16500000I-287500J0D01*
G01*
X35612500Y16500000D01*
G75*
G02*
X35325000Y16787500I0J287500D01*
G01*
X35325000Y18212500D01*
G75*
G02*
X35612500Y18500000I287500J0D01*
G01*
X36187500Y18500000D01*
G75*
G02*
X36475000Y18212500I0J-287500D01*
G01*
G37*
G36*
G01*
X33975000Y18212500D02*
X33975000Y16787500D01*
G75*
G02*
X33687500Y16500000I-287500J0D01*
G01*
X33112500Y16500000D01*
G75*
G02*
X32825000Y16787500I0J287500D01*
G01*
X32825000Y18212500D01*
G75*
G02*
X33112500Y18500000I287500J0D01*
G01*
X33687500Y18500000D01*
G75*
G02*
X33975000Y18212500I0J-287500D01*
G01*
G37*
D12*
X78660000Y52540000D03*
X78660000Y50000000D03*
X76120000Y52540000D03*
X76120000Y50000000D03*
X73580000Y52540000D03*
X73580000Y50000000D03*
X71040000Y52540000D03*
X71040000Y50000000D03*
X68500000Y52540000D03*
D13*
X68500000Y50000000D03*
D14*
X70000000Y36500000D03*
X63000000Y27250000D03*
X63000000Y30250000D03*
X16000000Y8250000D03*
X11000000Y10250000D03*
X10000000Y20500000D03*
X78250000Y15250000D03*
G36*
G01*
X76125000Y16125000D02*
X74875000Y16125000D01*
G75*
G02*
X74625000Y16375000I0J250000D01*
G01*
X74625000Y17125000D01*
G75*
G02*
X74875000Y17375000I250000J0D01*
G01*
X76125000Y17375000D01*
G75*
G02*
X76375000Y17125000I0J-250000D01*
G01*
X76375000Y16375000D01*
G75*
G02*
X76125000Y16125000I-250000J0D01*
G01*
G37*
G36*
G01*
X76125000Y13325000D02*
X74875000Y13325000D01*
G75*
G02*
X74625000Y13575000I0J250000D01*
G01*
X74625000Y14325000D01*
G75*
G02*
X74875000Y14575000I250000J0D01*
G01*
X76125000Y14575000D01*
G75*
G02*
X76375000Y14325000I0J-250000D01*
G01*
X76375000Y13575000D01*
G75*
G02*
X76125000Y13325000I-250000J0D01*
G01*
G37*
G36*
G01*
X23125000Y22875000D02*
X21875000Y22875000D01*
G75*
G02*
X21625000Y23125000I0J250000D01*
G01*
X21625000Y23875000D01*
G75*
G02*
X21875000Y24125000I250000J0D01*
G01*
X23125000Y24125000D01*
G75*
G02*
X23375000Y23875000I0J-250000D01*
G01*
X23375000Y23125000D01*
G75*
G02*
X23125000Y22875000I-250000J0D01*
G01*
G37*
G36*
G01*
X23125000Y20075000D02*
X21875000Y20075000D01*
G75*
G02*
X21625000Y20325000I0J250000D01*
G01*
X21625000Y21075000D01*
G75*
G02*
X21875000Y21325000I250000J0D01*
G01*
X23125000Y21325000D01*
G75*
G02*
X23375000Y21075000I0J-250000D01*
G01*
X23375000Y20325000D01*
G75*
G02*
X23125000Y20075000I-250000J0D01*
G01*
G37*
G36*
G01*
X19875000Y22925000D02*
X18625000Y22925000D01*
G75*
G02*
X18375000Y23175000I0J250000D01*
G01*
X18375000Y23925000D01*
G75*
G02*
X18625000Y24175000I250000J0D01*
G01*
X19875000Y24175000D01*
G75*
G02*
X20125000Y23925000I0J-250000D01*
G01*
X20125000Y23175000D01*
G75*
G02*
X19875000Y22925000I-250000J0D01*
G01*
G37*
G36*
G01*
X19875000Y20125000D02*
X18625000Y20125000D01*
G75*
G02*
X18375000Y20375000I0J250000D01*
G01*
X18375000Y21125000D01*
G75*
G02*
X18625000Y21375000I250000J0D01*
G01*
X19875000Y21375000D01*
G75*
G02*
X20125000Y21125000I0J-250000D01*
G01*
X20125000Y20375000D01*
G75*
G02*
X19875000Y20125000I-250000J0D01*
G01*
G37*
G36*
G01*
X22043750Y26237500D02*
X22956250Y26237500D01*
G75*
G02*
X23200000Y25993750I0J-243750D01*
G01*
X23200000Y25506250D01*
G75*
G02*
X22956250Y25262500I-243750J0D01*
G01*
X22043750Y25262500D01*
G75*
G02*
X21800000Y25506250I0J243750D01*
G01*
X21800000Y25993750D01*
G75*
G02*
X22043750Y26237500I243750J0D01*
G01*
G37*
G36*
G01*
X22043750Y28112500D02*
X22956250Y28112500D01*
G75*
G02*
X23200000Y27868750I0J-243750D01*
G01*
X23200000Y27381250D01*
G75*
G02*
X22956250Y27137500I-243750J0D01*
G01*
X22043750Y27137500D01*
G75*
G02*
X21800000Y27381250I0J243750D01*
G01*
X21800000Y27868750D01*
G75*
G02*
X22043750Y28112500I243750J0D01*
G01*
G37*
G36*
G01*
X18793750Y26237500D02*
X19706250Y26237500D01*
G75*
G02*
X19950000Y25993750I0J-243750D01*
G01*
X19950000Y25506250D01*
G75*
G02*
X19706250Y25262500I-243750J0D01*
G01*
X18793750Y25262500D01*
G75*
G02*
X18550000Y25506250I0J243750D01*
G01*
X18550000Y25993750D01*
G75*
G02*
X18793750Y26237500I243750J0D01*
G01*
G37*
G36*
G01*
X18793750Y28112500D02*
X19706250Y28112500D01*
G75*
G02*
X19950000Y27868750I0J-243750D01*
G01*
X19950000Y27381250D01*
G75*
G02*
X19706250Y27137500I-243750J0D01*
G01*
X18793750Y27137500D01*
G75*
G02*
X18550000Y27381250I0J243750D01*
G01*
X18550000Y27868750D01*
G75*
G02*
X18793750Y28112500I243750J0D01*
G01*
G37*
D15*
X66030000Y4250000D03*
X63490000Y4250000D03*
X60950000Y4250000D03*
X58410000Y4250000D03*
X55870000Y4250000D03*
X53330000Y4250000D03*
X50790000Y4250000D03*
D16*
X48250000Y4250000D03*
G36*
G01*
X79725000Y44125000D02*
X79725000Y42875000D01*
G75*
G02*
X79475000Y42625000I-250000J0D01*
G01*
X78725000Y42625000D01*
G75*
G02*
X78475000Y42875000I0J250000D01*
G01*
X78475000Y44125000D01*
G75*
G02*
X78725000Y44375000I250000J0D01*
G01*
X79475000Y44375000D01*
G75*
G02*
X79725000Y44125000I0J-250000D01*
G01*
G37*
G36*
G01*
X82525000Y44125000D02*
X82525000Y42875000D01*
G75*
G02*
X82275000Y42625000I-250000J0D01*
G01*
X81525000Y42625000D01*
G75*
G02*
X81275000Y42875000I0J250000D01*
G01*
X81275000Y44125000D01*
G75*
G02*
X81525000Y44375000I250000J0D01*
G01*
X82275000Y44375000D01*
G75*
G02*
X82525000Y44125000I0J-250000D01*
G01*
G37*
G36*
G01*
X63543750Y22050000D02*
X64456250Y22050000D01*
G75*
G02*
X64700000Y21806250I0J-243750D01*
G01*
X64700000Y21318750D01*
G75*
G02*
X64456250Y21075000I-243750J0D01*
G01*
X63543750Y21075000D01*
G75*
G02*
X63300000Y21318750I0J243750D01*
G01*
X63300000Y21806250D01*
G75*
G02*
X63543750Y22050000I243750J0D01*
G01*
G37*
G36*
G01*
X63543750Y23925000D02*
X64456250Y23925000D01*
G75*
G02*
X64700000Y23681250I0J-243750D01*
G01*
X64700000Y23193750D01*
G75*
G02*
X64456250Y22950000I-243750J0D01*
G01*
X63543750Y22950000D01*
G75*
G02*
X63300000Y23193750I0J243750D01*
G01*
X63300000Y23681250D01*
G75*
G02*
X63543750Y23925000I243750J0D01*
G01*
G37*
G36*
G01*
X42012500Y6793750D02*
X42012500Y7706250D01*
G75*
G02*
X42256250Y7950000I243750J0D01*
G01*
X42743750Y7950000D01*
G75*
G02*
X42987500Y7706250I0J-243750D01*
G01*
X42987500Y6793750D01*
G75*
G02*
X42743750Y6550000I-243750J0D01*
G01*
X42256250Y6550000D01*
G75*
G02*
X42012500Y6793750I0J243750D01*
G01*
G37*
G36*
G01*
X40137500Y6793750D02*
X40137500Y7706250D01*
G75*
G02*
X40381250Y7950000I243750J0D01*
G01*
X40868750Y7950000D01*
G75*
G02*
X41112500Y7706250I0J-243750D01*
G01*
X41112500Y6793750D01*
G75*
G02*
X40868750Y6550000I-243750J0D01*
G01*
X40381250Y6550000D01*
G75*
G02*
X40137500Y6793750I0J243750D01*
G01*
G37*
G36*
G01*
X13450000Y27293750D02*
X13450000Y28206250D01*
G75*
G02*
X13693750Y28450000I243750J0D01*
G01*
X14181250Y28450000D01*
G75*
G02*
X14425000Y28206250I0J-243750D01*
G01*
X14425000Y27293750D01*
G75*
G02*
X14181250Y27050000I-243750J0D01*
G01*
X13693750Y27050000D01*
G75*
G02*
X13450000Y27293750I0J243750D01*
G01*
G37*
G36*
G01*
X11575000Y27293750D02*
X11575000Y28206250D01*
G75*
G02*
X11818750Y28450000I243750J0D01*
G01*
X12306250Y28450000D01*
G75*
G02*
X12550000Y28206250I0J-243750D01*
G01*
X12550000Y27293750D01*
G75*
G02*
X12306250Y27050000I-243750J0D01*
G01*
X11818750Y27050000D01*
G75*
G02*
X11575000Y27293750I0J243750D01*
G01*
G37*
G36*
G01*
X13512500Y24043750D02*
X13512500Y24956250D01*
G75*
G02*
X13756250Y25200000I243750J0D01*
G01*
X14243750Y25200000D01*
G75*
G02*
X14487500Y24956250I0J-243750D01*
G01*
X14487500Y24043750D01*
G75*
G02*
X14243750Y23800000I-243750J0D01*
G01*
X13756250Y23800000D01*
G75*
G02*
X13512500Y24043750I0J243750D01*
G01*
G37*
G36*
G01*
X11637500Y24043750D02*
X11637500Y24956250D01*
G75*
G02*
X11881250Y25200000I243750J0D01*
G01*
X12368750Y25200000D01*
G75*
G02*
X12612500Y24956250I0J-243750D01*
G01*
X12612500Y24043750D01*
G75*
G02*
X12368750Y23800000I-243750J0D01*
G01*
X11881250Y23800000D01*
G75*
G02*
X11637500Y24043750I0J243750D01*
G01*
G37*
D17*
X16730000Y42560000D03*
X16730000Y40020000D03*
X16730000Y37480000D03*
X16730000Y34940000D03*
X19270000Y34940000D03*
X19270000Y37480000D03*
X19270000Y40020000D03*
X19270000Y42560000D03*
D15*
X6500000Y42340000D03*
X6500000Y44880000D03*
X6500000Y47420000D03*
X6500000Y49960000D03*
D16*
X6500000Y52500000D03*
D15*
X32910000Y4250000D03*
X30370000Y4250000D03*
X27830000Y4250000D03*
X25290000Y4250000D03*
D16*
X22750000Y4250000D03*
D15*
X84370000Y4250000D03*
X81830000Y4250000D03*
X79290000Y4250000D03*
D16*
X76750000Y4250000D03*
D15*
X6500000Y25130000D03*
X6500000Y27670000D03*
X6500000Y30210000D03*
D16*
X6500000Y32750000D03*
D17*
X71170000Y21230000D03*
X73710000Y21230000D03*
X76250000Y21230000D03*
X78790000Y21230000D03*
X81330000Y21230000D03*
X81330000Y23770000D03*
X78790000Y23770000D03*
X76250000Y23770000D03*
X73710000Y23770000D03*
X71170000Y23770000D03*
D12*
X63500000Y59384000D03*
X60960000Y59384000D03*
X58420000Y59384000D03*
X55880000Y59384000D03*
X53340000Y59384000D03*
X50800000Y59384000D03*
X48260000Y59384000D03*
D13*
X45720000Y59384000D03*
D12*
X41656000Y59384000D03*
X39116000Y59384000D03*
X36576000Y59384000D03*
X34036000Y59384000D03*
X31496000Y59384000D03*
X28956000Y59384000D03*
X26416000Y59384000D03*
X23876000Y59384000D03*
X21336000Y59384000D03*
D13*
X18796000Y59384000D03*
D12*
X91440000Y11124000D03*
X88900000Y11124000D03*
X86360000Y11124000D03*
X83820000Y11124000D03*
X81280000Y11124000D03*
X78740000Y11124000D03*
X76200000Y11124000D03*
D13*
X73660000Y11124000D03*
D12*
X68580000Y11124000D03*
X66040000Y11124000D03*
X63500000Y11124000D03*
X60960000Y11124000D03*
X58420000Y11124000D03*
X55880000Y11124000D03*
X53340000Y11124000D03*
D13*
X50800000Y11124000D03*
D12*
X45720000Y11124000D03*
X43180000Y11124000D03*
X40640000Y11124000D03*
X38100000Y11124000D03*
X35560000Y11124000D03*
X33020000Y11124000D03*
X30480000Y11124000D03*
D13*
X27940000Y11124000D03*
D12*
X96520000Y59384000D03*
X93980000Y59384000D03*
X96520000Y56844000D03*
X93980000Y56844000D03*
X96520000Y54304000D03*
X93980000Y54304000D03*
X96520000Y51764000D03*
X93980000Y51764000D03*
X96520000Y49224000D03*
X93980000Y49224000D03*
X96520000Y46684000D03*
X93980000Y46684000D03*
X96520000Y44144000D03*
X93980000Y44144000D03*
X96520000Y41604000D03*
X93980000Y41604000D03*
X96520000Y39064000D03*
X93980000Y39064000D03*
X96520000Y36524000D03*
X93980000Y36524000D03*
X96520000Y33984000D03*
X93980000Y33984000D03*
X96520000Y31444000D03*
X93980000Y31444000D03*
X96520000Y28904000D03*
X93980000Y28904000D03*
X96520000Y26364000D03*
X93980000Y26364000D03*
X96520000Y23824000D03*
X93980000Y23824000D03*
X96520000Y21284000D03*
X93980000Y21284000D03*
X96520000Y18744000D03*
X93980000Y18744000D03*
X96520000Y16204000D03*
D13*
X93980000Y16204000D03*
D12*
X66162000Y33920000D03*
X63622000Y33920000D03*
X66162000Y36460000D03*
X63622000Y36460000D03*
X66162000Y39000000D03*
D13*
X63622000Y39000000D03*
D12*
X86360000Y59384000D03*
X83820000Y59384000D03*
X81280000Y59384000D03*
X78740000Y59384000D03*
X76200000Y59384000D03*
X73660000Y59384000D03*
X71120000Y59384000D03*
D13*
X68580000Y59384000D03*
M02*
