M48
; DRILL file {KiCad (5.1.6)-1} date 10/20/21 11:15:36
; FORMAT={-:-/ absolute / inch / decimal}
; #@! TF.CreationDate,2021-10-20T11:15:36+02:00
; #@! TF.GenerationSoftware,Kicad,Pcbnew,(5.1.6)-1
; #@! TF.FileFunction,Plated,1,2,PTH
FMAT,2
INCH
T1C0.0394
T2C0.0433
%
G90
G05
T1
X0.1969Y1.4378
X0.1969Y1.3378
X0.1969Y1.2378
X0.1969Y1.1378
X0.1969Y1.0378
X0.1969Y0.9378
X0.1969Y0.8378
X0.1969Y0.7378
X0.1969Y0.6378
X0.1969Y0.5378
X0.1969Y0.4378
X0.1969Y0.3378
X0.1969Y0.2378
X0.1969Y0.1378
T2
X0.7571Y0.839
X0.7571Y0.739
X0.7571Y0.639
X0.7571Y0.539
X0.8571Y0.839
X0.8571Y0.739
X0.8571Y0.639
X0.8571Y0.539
T0
M30
