%TF.GenerationSoftware,KiCad,Pcbnew,(5.1.6)-1*%
%TF.CreationDate,2021-10-20T11:15:13+02:00*%
%TF.ProjectId,Display_Backplate_v1,44697370-6c61-4795-9f42-61636b706c61,rev?*%
%TF.SameCoordinates,PX91e9840PY754d4c0*%
%TF.FileFunction,Copper,L2,Bot*%
%TF.FilePolarity,Positive*%
%FSLAX46Y46*%
G04 Gerber Fmt 4.6, Leading zero omitted, Abs format (unit mm)*
G04 Created by KiCad (PCBNEW (5.1.6)-1) date 2021-10-20 11:15:13*
%MOMM*%
%LPD*%
G01*
G04 APERTURE LIST*
%TA.AperFunction,NonConductor*%
%ADD10C,0.150000*%
%TD*%
%TA.AperFunction,Profile*%
%ADD11C,0.250000*%
%TD*%
%TA.AperFunction,ComponentPad*%
%ADD12C,1.750000*%
%TD*%
%TA.AperFunction,ComponentPad*%
%ADD13O,1.700000X1.700000*%
%TD*%
%TA.AperFunction,ComponentPad*%
%ADD14R,1.700000X1.700000*%
%TD*%
%TA.AperFunction,Conductor*%
%ADD15C,0.254000*%
%TD*%
G04 APERTURE END LIST*
D10*
X27666666Y2071429D02*
X27523809Y2023810D01*
X27476190Y1976191D01*
X27428571Y1880953D01*
X27428571Y1738096D01*
X27476190Y1642858D01*
X27523809Y1595239D01*
X27619047Y1547620D01*
X28000000Y1547620D01*
X28000000Y2547620D01*
X27666666Y2547620D01*
X27571428Y2500000D01*
X27523809Y2452381D01*
X27476190Y2357143D01*
X27476190Y2261905D01*
X27523809Y2166667D01*
X27571428Y2119048D01*
X27666666Y2071429D01*
X28000000Y2071429D01*
X26857142Y1547620D02*
X26952380Y1595239D01*
X27000000Y1642858D01*
X27047619Y1738096D01*
X27047619Y2023810D01*
X27000000Y2119048D01*
X26952380Y2166667D01*
X26857142Y2214286D01*
X26714285Y2214286D01*
X26619047Y2166667D01*
X26571428Y2119048D01*
X26523809Y2023810D01*
X26523809Y1738096D01*
X26571428Y1642858D01*
X26619047Y1595239D01*
X26714285Y1547620D01*
X26857142Y1547620D01*
X26238095Y2214286D02*
X25857142Y2214286D01*
X26095238Y2547620D02*
X26095238Y1690477D01*
X26047619Y1595239D01*
X25952380Y1547620D01*
X25857142Y1547620D01*
D11*
X30000000Y0D02*
X30000000Y40000000D01*
X30000000Y0D02*
X0Y0D01*
X0Y40000000D02*
X30000000Y40000000D01*
X0Y0D02*
X0Y40000000D01*
D12*
%TO.P,J2,8*%
%TO.N,Net-(J1-Pad8)*%
X19230000Y21310000D03*
%TO.P,J2,7*%
%TO.N,Net-(J1-Pad7)*%
X19230000Y18770000D03*
%TO.P,J2,6*%
%TO.N,Net-(J1-Pad6)*%
X19230000Y16230000D03*
%TO.P,J2,5*%
%TO.N,Net-(J1-Pad5)*%
X19230000Y13690000D03*
%TO.P,J2,4*%
%TO.N,Net-(J1-Pad4)*%
X21770000Y13690000D03*
%TO.P,J2,3*%
%TO.N,Net-(J1-Pad3)*%
X21770000Y16230000D03*
%TO.P,J2,2*%
%TO.N,GND*%
X21770000Y18770000D03*
%TO.P,J2,1*%
%TO.N,+3V3*%
X21770000Y21310000D03*
%TD*%
D13*
%TO.P,J1,14*%
%TO.N,Net-(J1-Pad14)*%
X5000000Y36520000D03*
%TO.P,J1,13*%
%TO.N,Net-(J1-Pad13)*%
X5000000Y33980000D03*
%TO.P,J1,12*%
%TO.N,Net-(J1-Pad12)*%
X5000000Y31440000D03*
%TO.P,J1,11*%
%TO.N,Net-(J1-Pad11)*%
X5000000Y28900000D03*
%TO.P,J1,10*%
%TO.N,Net-(J1-Pad10)*%
X5000000Y26360000D03*
%TO.P,J1,9*%
%TO.N,Net-(J1-Pad9)*%
X5000000Y23820000D03*
%TO.P,J1,8*%
%TO.N,Net-(J1-Pad8)*%
X5000000Y21280000D03*
%TO.P,J1,7*%
%TO.N,Net-(J1-Pad7)*%
X5000000Y18740000D03*
%TO.P,J1,6*%
%TO.N,Net-(J1-Pad6)*%
X5000000Y16200000D03*
%TO.P,J1,5*%
%TO.N,Net-(J1-Pad5)*%
X5000000Y13660000D03*
%TO.P,J1,4*%
%TO.N,Net-(J1-Pad4)*%
X5000000Y11120000D03*
%TO.P,J1,3*%
%TO.N,Net-(J1-Pad3)*%
X5000000Y8580000D03*
%TO.P,J1,2*%
%TO.N,GND*%
X5000000Y6040000D03*
D14*
%TO.P,J1,1*%
%TO.N,+3V3*%
X5000000Y3500000D03*
%TD*%
D15*
%TO.N,GND*%
G36*
X29248000Y752000D02*
G01*
X28940095Y752000D01*
X28940095Y3384500D01*
X25059905Y3384500D01*
X25059905Y752000D01*
X752000Y752000D01*
X752000Y4350000D01*
X3519967Y4350000D01*
X3519967Y2650000D01*
X3532073Y2527087D01*
X3567925Y2408897D01*
X3626147Y2299972D01*
X3704499Y2204499D01*
X3799972Y2126147D01*
X3908897Y2067925D01*
X4027087Y2032073D01*
X4150000Y2019967D01*
X5850000Y2019967D01*
X5972913Y2032073D01*
X6091103Y2067925D01*
X6200028Y2126147D01*
X6295501Y2204499D01*
X6373853Y2299972D01*
X6432075Y2408897D01*
X6467927Y2527087D01*
X6480033Y2650000D01*
X6480033Y4350000D01*
X6467927Y4472913D01*
X6432075Y4591103D01*
X6373853Y4700028D01*
X6295501Y4795501D01*
X6200028Y4873853D01*
X6091103Y4932075D01*
X6006594Y4957710D01*
X6097588Y5039731D01*
X6271641Y5273080D01*
X6396825Y5535901D01*
X6441476Y5683110D01*
X6320155Y5913000D01*
X5127000Y5913000D01*
X5127000Y5893000D01*
X4873000Y5893000D01*
X4873000Y5913000D01*
X3679845Y5913000D01*
X3558524Y5683110D01*
X3603175Y5535901D01*
X3728359Y5273080D01*
X3902412Y5039731D01*
X3993406Y4957710D01*
X3908897Y4932075D01*
X3799972Y4873853D01*
X3704499Y4795501D01*
X3626147Y4700028D01*
X3567925Y4591103D01*
X3532073Y4472913D01*
X3519967Y4350000D01*
X752000Y4350000D01*
X752000Y36665472D01*
X3523000Y36665472D01*
X3523000Y36374528D01*
X3579760Y36089175D01*
X3691099Y35820378D01*
X3852739Y35578467D01*
X4058467Y35372739D01*
X4242159Y35250000D01*
X4058467Y35127261D01*
X3852739Y34921533D01*
X3691099Y34679622D01*
X3579760Y34410825D01*
X3523000Y34125472D01*
X3523000Y33834528D01*
X3579760Y33549175D01*
X3691099Y33280378D01*
X3852739Y33038467D01*
X4058467Y32832739D01*
X4242159Y32710000D01*
X4058467Y32587261D01*
X3852739Y32381533D01*
X3691099Y32139622D01*
X3579760Y31870825D01*
X3523000Y31585472D01*
X3523000Y31294528D01*
X3579760Y31009175D01*
X3691099Y30740378D01*
X3852739Y30498467D01*
X4058467Y30292739D01*
X4242159Y30170000D01*
X4058467Y30047261D01*
X3852739Y29841533D01*
X3691099Y29599622D01*
X3579760Y29330825D01*
X3523000Y29045472D01*
X3523000Y28754528D01*
X3579760Y28469175D01*
X3691099Y28200378D01*
X3852739Y27958467D01*
X4058467Y27752739D01*
X4242159Y27630000D01*
X4058467Y27507261D01*
X3852739Y27301533D01*
X3691099Y27059622D01*
X3579760Y26790825D01*
X3523000Y26505472D01*
X3523000Y26214528D01*
X3579760Y25929175D01*
X3691099Y25660378D01*
X3852739Y25418467D01*
X4058467Y25212739D01*
X4242159Y25090000D01*
X4058467Y24967261D01*
X3852739Y24761533D01*
X3691099Y24519622D01*
X3579760Y24250825D01*
X3523000Y23965472D01*
X3523000Y23674528D01*
X3579760Y23389175D01*
X3691099Y23120378D01*
X3852739Y22878467D01*
X4058467Y22672739D01*
X4242159Y22550000D01*
X4058467Y22427261D01*
X3852739Y22221533D01*
X3691099Y21979622D01*
X3579760Y21710825D01*
X3523000Y21425472D01*
X3523000Y21134528D01*
X3579760Y20849175D01*
X3691099Y20580378D01*
X3852739Y20338467D01*
X4058467Y20132739D01*
X4242159Y20010000D01*
X4058467Y19887261D01*
X3852739Y19681533D01*
X3691099Y19439622D01*
X3579760Y19170825D01*
X3523000Y18885472D01*
X3523000Y18594528D01*
X3579760Y18309175D01*
X3691099Y18040378D01*
X3852739Y17798467D01*
X4058467Y17592739D01*
X4242159Y17470000D01*
X4058467Y17347261D01*
X3852739Y17141533D01*
X3691099Y16899622D01*
X3579760Y16630825D01*
X3523000Y16345472D01*
X3523000Y16054528D01*
X3579760Y15769175D01*
X3691099Y15500378D01*
X3852739Y15258467D01*
X4058467Y15052739D01*
X4242159Y14930000D01*
X4058467Y14807261D01*
X3852739Y14601533D01*
X3691099Y14359622D01*
X3579760Y14090825D01*
X3523000Y13805472D01*
X3523000Y13514528D01*
X3579760Y13229175D01*
X3691099Y12960378D01*
X3852739Y12718467D01*
X4058467Y12512739D01*
X4242159Y12390000D01*
X4058467Y12267261D01*
X3852739Y12061533D01*
X3691099Y11819622D01*
X3579760Y11550825D01*
X3523000Y11265472D01*
X3523000Y10974528D01*
X3579760Y10689175D01*
X3691099Y10420378D01*
X3852739Y10178467D01*
X4058467Y9972739D01*
X4242159Y9850000D01*
X4058467Y9727261D01*
X3852739Y9521533D01*
X3691099Y9279622D01*
X3579760Y9010825D01*
X3523000Y8725472D01*
X3523000Y8434528D01*
X3579760Y8149175D01*
X3691099Y7880378D01*
X3852739Y7638467D01*
X4058467Y7432739D01*
X4243147Y7309340D01*
X4118645Y7235178D01*
X3902412Y7040269D01*
X3728359Y6806920D01*
X3603175Y6544099D01*
X3558524Y6396890D01*
X3679845Y6167000D01*
X4873000Y6167000D01*
X4873000Y6187000D01*
X5127000Y6187000D01*
X5127000Y6167000D01*
X6320155Y6167000D01*
X6441476Y6396890D01*
X6396825Y6544099D01*
X6271641Y6806920D01*
X6097588Y7040269D01*
X5881355Y7235178D01*
X5756853Y7309340D01*
X5941533Y7432739D01*
X6147261Y7638467D01*
X6308901Y7880378D01*
X6420240Y8149175D01*
X6477000Y8434528D01*
X6477000Y8725472D01*
X6420240Y9010825D01*
X6308901Y9279622D01*
X6147261Y9521533D01*
X5941533Y9727261D01*
X5757841Y9850000D01*
X5941533Y9972739D01*
X6147261Y10178467D01*
X6308901Y10420378D01*
X6420240Y10689175D01*
X6477000Y10974528D01*
X6477000Y11265472D01*
X6420240Y11550825D01*
X6308901Y11819622D01*
X6147261Y12061533D01*
X5941533Y12267261D01*
X5757841Y12390000D01*
X5941533Y12512739D01*
X6147261Y12718467D01*
X6308901Y12960378D01*
X6420240Y13229175D01*
X6477000Y13514528D01*
X6477000Y13805472D01*
X6420240Y14090825D01*
X6308901Y14359622D01*
X6147261Y14601533D01*
X5941533Y14807261D01*
X5757841Y14930000D01*
X5941533Y15052739D01*
X6147261Y15258467D01*
X6308901Y15500378D01*
X6420240Y15769175D01*
X6477000Y16054528D01*
X6477000Y16345472D01*
X6420240Y16630825D01*
X6308901Y16899622D01*
X6147261Y17141533D01*
X5941533Y17347261D01*
X5757841Y17470000D01*
X5941533Y17592739D01*
X6147261Y17798467D01*
X6308901Y18040378D01*
X6420240Y18309175D01*
X6477000Y18594528D01*
X6477000Y18885472D01*
X6420240Y19170825D01*
X6308901Y19439622D01*
X6147261Y19681533D01*
X5941533Y19887261D01*
X5757841Y20010000D01*
X5941533Y20132739D01*
X6147261Y20338467D01*
X6308901Y20580378D01*
X6420240Y20849175D01*
X6477000Y21134528D01*
X6477000Y21425472D01*
X6470543Y21457934D01*
X17728000Y21457934D01*
X17728000Y21162066D01*
X17785721Y20871883D01*
X17898944Y20598536D01*
X18063320Y20352531D01*
X18272531Y20143320D01*
X18427160Y20040000D01*
X18272531Y19936680D01*
X18063320Y19727469D01*
X17898944Y19481464D01*
X17785721Y19208117D01*
X17728000Y18917934D01*
X17728000Y18622066D01*
X17785721Y18331883D01*
X17898944Y18058536D01*
X18063320Y17812531D01*
X18272531Y17603320D01*
X18427160Y17500000D01*
X18272531Y17396680D01*
X18063320Y17187469D01*
X17898944Y16941464D01*
X17785721Y16668117D01*
X17728000Y16377934D01*
X17728000Y16082066D01*
X17785721Y15791883D01*
X17898944Y15518536D01*
X18063320Y15272531D01*
X18272531Y15063320D01*
X18427160Y14960000D01*
X18272531Y14856680D01*
X18063320Y14647469D01*
X17898944Y14401464D01*
X17785721Y14128117D01*
X17728000Y13837934D01*
X17728000Y13542066D01*
X17785721Y13251883D01*
X17898944Y12978536D01*
X18063320Y12732531D01*
X18272531Y12523320D01*
X18518536Y12358944D01*
X18791883Y12245721D01*
X19082066Y12188000D01*
X19377934Y12188000D01*
X19668117Y12245721D01*
X19941464Y12358944D01*
X20187469Y12523320D01*
X20396680Y12732531D01*
X20500000Y12887160D01*
X20603320Y12732531D01*
X20812531Y12523320D01*
X21058536Y12358944D01*
X21331883Y12245721D01*
X21622066Y12188000D01*
X21917934Y12188000D01*
X22208117Y12245721D01*
X22481464Y12358944D01*
X22727469Y12523320D01*
X22936680Y12732531D01*
X23101056Y12978536D01*
X23214279Y13251883D01*
X23272000Y13542066D01*
X23272000Y13837934D01*
X23214279Y14128117D01*
X23101056Y14401464D01*
X22936680Y14647469D01*
X22727469Y14856680D01*
X22572840Y14960000D01*
X22727469Y15063320D01*
X22936680Y15272531D01*
X23101056Y15518536D01*
X23214279Y15791883D01*
X23272000Y16082066D01*
X23272000Y16377934D01*
X23214279Y16668117D01*
X23101056Y16941464D01*
X22936680Y17187469D01*
X22727469Y17396680D01*
X22566307Y17504365D01*
X22636635Y17723760D01*
X21770000Y18590395D01*
X20903365Y17723760D01*
X20973693Y17504365D01*
X20812531Y17396680D01*
X20603320Y17187469D01*
X20500000Y17032840D01*
X20396680Y17187469D01*
X20187469Y17396680D01*
X20032840Y17500000D01*
X20187469Y17603320D01*
X20396680Y17812531D01*
X20504365Y17973693D01*
X20723760Y17903365D01*
X21590395Y18770000D01*
X21949605Y18770000D01*
X22816240Y17903365D01*
X23067868Y17984025D01*
X23196267Y18252329D01*
X23269855Y18540526D01*
X23285804Y18837543D01*
X23243501Y19131963D01*
X23144572Y19412474D01*
X23067868Y19555975D01*
X22816240Y19636635D01*
X21949605Y18770000D01*
X21590395Y18770000D01*
X20723760Y19636635D01*
X20504365Y19566307D01*
X20396680Y19727469D01*
X20187469Y19936680D01*
X20032840Y20040000D01*
X20187469Y20143320D01*
X20396680Y20352531D01*
X20500000Y20507160D01*
X20603320Y20352531D01*
X20812531Y20143320D01*
X20973693Y20035635D01*
X20903365Y19816240D01*
X21770000Y18949605D01*
X22636635Y19816240D01*
X22566307Y20035635D01*
X22727469Y20143320D01*
X22936680Y20352531D01*
X23101056Y20598536D01*
X23214279Y20871883D01*
X23272000Y21162066D01*
X23272000Y21457934D01*
X23214279Y21748117D01*
X23101056Y22021464D01*
X22936680Y22267469D01*
X22727469Y22476680D01*
X22481464Y22641056D01*
X22208117Y22754279D01*
X21917934Y22812000D01*
X21622066Y22812000D01*
X21331883Y22754279D01*
X21058536Y22641056D01*
X20812531Y22476680D01*
X20603320Y22267469D01*
X20500000Y22112840D01*
X20396680Y22267469D01*
X20187469Y22476680D01*
X19941464Y22641056D01*
X19668117Y22754279D01*
X19377934Y22812000D01*
X19082066Y22812000D01*
X18791883Y22754279D01*
X18518536Y22641056D01*
X18272531Y22476680D01*
X18063320Y22267469D01*
X17898944Y22021464D01*
X17785721Y21748117D01*
X17728000Y21457934D01*
X6470543Y21457934D01*
X6420240Y21710825D01*
X6308901Y21979622D01*
X6147261Y22221533D01*
X5941533Y22427261D01*
X5757841Y22550000D01*
X5941533Y22672739D01*
X6147261Y22878467D01*
X6308901Y23120378D01*
X6420240Y23389175D01*
X6477000Y23674528D01*
X6477000Y23965472D01*
X6420240Y24250825D01*
X6308901Y24519622D01*
X6147261Y24761533D01*
X5941533Y24967261D01*
X5757841Y25090000D01*
X5941533Y25212739D01*
X6147261Y25418467D01*
X6308901Y25660378D01*
X6420240Y25929175D01*
X6477000Y26214528D01*
X6477000Y26505472D01*
X6420240Y26790825D01*
X6308901Y27059622D01*
X6147261Y27301533D01*
X5941533Y27507261D01*
X5757841Y27630000D01*
X5941533Y27752739D01*
X6147261Y27958467D01*
X6308901Y28200378D01*
X6420240Y28469175D01*
X6477000Y28754528D01*
X6477000Y29045472D01*
X6420240Y29330825D01*
X6308901Y29599622D01*
X6147261Y29841533D01*
X5941533Y30047261D01*
X5757841Y30170000D01*
X5941533Y30292739D01*
X6147261Y30498467D01*
X6308901Y30740378D01*
X6420240Y31009175D01*
X6477000Y31294528D01*
X6477000Y31585472D01*
X6420240Y31870825D01*
X6308901Y32139622D01*
X6147261Y32381533D01*
X5941533Y32587261D01*
X5757841Y32710000D01*
X5941533Y32832739D01*
X6147261Y33038467D01*
X6308901Y33280378D01*
X6420240Y33549175D01*
X6477000Y33834528D01*
X6477000Y34125472D01*
X6420240Y34410825D01*
X6308901Y34679622D01*
X6147261Y34921533D01*
X5941533Y35127261D01*
X5757841Y35250000D01*
X5941533Y35372739D01*
X6147261Y35578467D01*
X6308901Y35820378D01*
X6420240Y36089175D01*
X6477000Y36374528D01*
X6477000Y36665472D01*
X6420240Y36950825D01*
X6308901Y37219622D01*
X6147261Y37461533D01*
X5941533Y37667261D01*
X5699622Y37828901D01*
X5430825Y37940240D01*
X5145472Y37997000D01*
X4854528Y37997000D01*
X4569175Y37940240D01*
X4300378Y37828901D01*
X4058467Y37667261D01*
X3852739Y37461533D01*
X3691099Y37219622D01*
X3579760Y36950825D01*
X3523000Y36665472D01*
X752000Y36665472D01*
X752000Y39248000D01*
X29248001Y39248000D01*
X29248000Y752000D01*
G37*
X29248000Y752000D02*
X28940095Y752000D01*
X28940095Y3384500D01*
X25059905Y3384500D01*
X25059905Y752000D01*
X752000Y752000D01*
X752000Y4350000D01*
X3519967Y4350000D01*
X3519967Y2650000D01*
X3532073Y2527087D01*
X3567925Y2408897D01*
X3626147Y2299972D01*
X3704499Y2204499D01*
X3799972Y2126147D01*
X3908897Y2067925D01*
X4027087Y2032073D01*
X4150000Y2019967D01*
X5850000Y2019967D01*
X5972913Y2032073D01*
X6091103Y2067925D01*
X6200028Y2126147D01*
X6295501Y2204499D01*
X6373853Y2299972D01*
X6432075Y2408897D01*
X6467927Y2527087D01*
X6480033Y2650000D01*
X6480033Y4350000D01*
X6467927Y4472913D01*
X6432075Y4591103D01*
X6373853Y4700028D01*
X6295501Y4795501D01*
X6200028Y4873853D01*
X6091103Y4932075D01*
X6006594Y4957710D01*
X6097588Y5039731D01*
X6271641Y5273080D01*
X6396825Y5535901D01*
X6441476Y5683110D01*
X6320155Y5913000D01*
X5127000Y5913000D01*
X5127000Y5893000D01*
X4873000Y5893000D01*
X4873000Y5913000D01*
X3679845Y5913000D01*
X3558524Y5683110D01*
X3603175Y5535901D01*
X3728359Y5273080D01*
X3902412Y5039731D01*
X3993406Y4957710D01*
X3908897Y4932075D01*
X3799972Y4873853D01*
X3704499Y4795501D01*
X3626147Y4700028D01*
X3567925Y4591103D01*
X3532073Y4472913D01*
X3519967Y4350000D01*
X752000Y4350000D01*
X752000Y36665472D01*
X3523000Y36665472D01*
X3523000Y36374528D01*
X3579760Y36089175D01*
X3691099Y35820378D01*
X3852739Y35578467D01*
X4058467Y35372739D01*
X4242159Y35250000D01*
X4058467Y35127261D01*
X3852739Y34921533D01*
X3691099Y34679622D01*
X3579760Y34410825D01*
X3523000Y34125472D01*
X3523000Y33834528D01*
X3579760Y33549175D01*
X3691099Y33280378D01*
X3852739Y33038467D01*
X4058467Y32832739D01*
X4242159Y32710000D01*
X4058467Y32587261D01*
X3852739Y32381533D01*
X3691099Y32139622D01*
X3579760Y31870825D01*
X3523000Y31585472D01*
X3523000Y31294528D01*
X3579760Y31009175D01*
X3691099Y30740378D01*
X3852739Y30498467D01*
X4058467Y30292739D01*
X4242159Y30170000D01*
X4058467Y30047261D01*
X3852739Y29841533D01*
X3691099Y29599622D01*
X3579760Y29330825D01*
X3523000Y29045472D01*
X3523000Y28754528D01*
X3579760Y28469175D01*
X3691099Y28200378D01*
X3852739Y27958467D01*
X4058467Y27752739D01*
X4242159Y27630000D01*
X4058467Y27507261D01*
X3852739Y27301533D01*
X3691099Y27059622D01*
X3579760Y26790825D01*
X3523000Y26505472D01*
X3523000Y26214528D01*
X3579760Y25929175D01*
X3691099Y25660378D01*
X3852739Y25418467D01*
X4058467Y25212739D01*
X4242159Y25090000D01*
X4058467Y24967261D01*
X3852739Y24761533D01*
X3691099Y24519622D01*
X3579760Y24250825D01*
X3523000Y23965472D01*
X3523000Y23674528D01*
X3579760Y23389175D01*
X3691099Y23120378D01*
X3852739Y22878467D01*
X4058467Y22672739D01*
X4242159Y22550000D01*
X4058467Y22427261D01*
X3852739Y22221533D01*
X3691099Y21979622D01*
X3579760Y21710825D01*
X3523000Y21425472D01*
X3523000Y21134528D01*
X3579760Y20849175D01*
X3691099Y20580378D01*
X3852739Y20338467D01*
X4058467Y20132739D01*
X4242159Y20010000D01*
X4058467Y19887261D01*
X3852739Y19681533D01*
X3691099Y19439622D01*
X3579760Y19170825D01*
X3523000Y18885472D01*
X3523000Y18594528D01*
X3579760Y18309175D01*
X3691099Y18040378D01*
X3852739Y17798467D01*
X4058467Y17592739D01*
X4242159Y17470000D01*
X4058467Y17347261D01*
X3852739Y17141533D01*
X3691099Y16899622D01*
X3579760Y16630825D01*
X3523000Y16345472D01*
X3523000Y16054528D01*
X3579760Y15769175D01*
X3691099Y15500378D01*
X3852739Y15258467D01*
X4058467Y15052739D01*
X4242159Y14930000D01*
X4058467Y14807261D01*
X3852739Y14601533D01*
X3691099Y14359622D01*
X3579760Y14090825D01*
X3523000Y13805472D01*
X3523000Y13514528D01*
X3579760Y13229175D01*
X3691099Y12960378D01*
X3852739Y12718467D01*
X4058467Y12512739D01*
X4242159Y12390000D01*
X4058467Y12267261D01*
X3852739Y12061533D01*
X3691099Y11819622D01*
X3579760Y11550825D01*
X3523000Y11265472D01*
X3523000Y10974528D01*
X3579760Y10689175D01*
X3691099Y10420378D01*
X3852739Y10178467D01*
X4058467Y9972739D01*
X4242159Y9850000D01*
X4058467Y9727261D01*
X3852739Y9521533D01*
X3691099Y9279622D01*
X3579760Y9010825D01*
X3523000Y8725472D01*
X3523000Y8434528D01*
X3579760Y8149175D01*
X3691099Y7880378D01*
X3852739Y7638467D01*
X4058467Y7432739D01*
X4243147Y7309340D01*
X4118645Y7235178D01*
X3902412Y7040269D01*
X3728359Y6806920D01*
X3603175Y6544099D01*
X3558524Y6396890D01*
X3679845Y6167000D01*
X4873000Y6167000D01*
X4873000Y6187000D01*
X5127000Y6187000D01*
X5127000Y6167000D01*
X6320155Y6167000D01*
X6441476Y6396890D01*
X6396825Y6544099D01*
X6271641Y6806920D01*
X6097588Y7040269D01*
X5881355Y7235178D01*
X5756853Y7309340D01*
X5941533Y7432739D01*
X6147261Y7638467D01*
X6308901Y7880378D01*
X6420240Y8149175D01*
X6477000Y8434528D01*
X6477000Y8725472D01*
X6420240Y9010825D01*
X6308901Y9279622D01*
X6147261Y9521533D01*
X5941533Y9727261D01*
X5757841Y9850000D01*
X5941533Y9972739D01*
X6147261Y10178467D01*
X6308901Y10420378D01*
X6420240Y10689175D01*
X6477000Y10974528D01*
X6477000Y11265472D01*
X6420240Y11550825D01*
X6308901Y11819622D01*
X6147261Y12061533D01*
X5941533Y12267261D01*
X5757841Y12390000D01*
X5941533Y12512739D01*
X6147261Y12718467D01*
X6308901Y12960378D01*
X6420240Y13229175D01*
X6477000Y13514528D01*
X6477000Y13805472D01*
X6420240Y14090825D01*
X6308901Y14359622D01*
X6147261Y14601533D01*
X5941533Y14807261D01*
X5757841Y14930000D01*
X5941533Y15052739D01*
X6147261Y15258467D01*
X6308901Y15500378D01*
X6420240Y15769175D01*
X6477000Y16054528D01*
X6477000Y16345472D01*
X6420240Y16630825D01*
X6308901Y16899622D01*
X6147261Y17141533D01*
X5941533Y17347261D01*
X5757841Y17470000D01*
X5941533Y17592739D01*
X6147261Y17798467D01*
X6308901Y18040378D01*
X6420240Y18309175D01*
X6477000Y18594528D01*
X6477000Y18885472D01*
X6420240Y19170825D01*
X6308901Y19439622D01*
X6147261Y19681533D01*
X5941533Y19887261D01*
X5757841Y20010000D01*
X5941533Y20132739D01*
X6147261Y20338467D01*
X6308901Y20580378D01*
X6420240Y20849175D01*
X6477000Y21134528D01*
X6477000Y21425472D01*
X6470543Y21457934D01*
X17728000Y21457934D01*
X17728000Y21162066D01*
X17785721Y20871883D01*
X17898944Y20598536D01*
X18063320Y20352531D01*
X18272531Y20143320D01*
X18427160Y20040000D01*
X18272531Y19936680D01*
X18063320Y19727469D01*
X17898944Y19481464D01*
X17785721Y19208117D01*
X17728000Y18917934D01*
X17728000Y18622066D01*
X17785721Y18331883D01*
X17898944Y18058536D01*
X18063320Y17812531D01*
X18272531Y17603320D01*
X18427160Y17500000D01*
X18272531Y17396680D01*
X18063320Y17187469D01*
X17898944Y16941464D01*
X17785721Y16668117D01*
X17728000Y16377934D01*
X17728000Y16082066D01*
X17785721Y15791883D01*
X17898944Y15518536D01*
X18063320Y15272531D01*
X18272531Y15063320D01*
X18427160Y14960000D01*
X18272531Y14856680D01*
X18063320Y14647469D01*
X17898944Y14401464D01*
X17785721Y14128117D01*
X17728000Y13837934D01*
X17728000Y13542066D01*
X17785721Y13251883D01*
X17898944Y12978536D01*
X18063320Y12732531D01*
X18272531Y12523320D01*
X18518536Y12358944D01*
X18791883Y12245721D01*
X19082066Y12188000D01*
X19377934Y12188000D01*
X19668117Y12245721D01*
X19941464Y12358944D01*
X20187469Y12523320D01*
X20396680Y12732531D01*
X20500000Y12887160D01*
X20603320Y12732531D01*
X20812531Y12523320D01*
X21058536Y12358944D01*
X21331883Y12245721D01*
X21622066Y12188000D01*
X21917934Y12188000D01*
X22208117Y12245721D01*
X22481464Y12358944D01*
X22727469Y12523320D01*
X22936680Y12732531D01*
X23101056Y12978536D01*
X23214279Y13251883D01*
X23272000Y13542066D01*
X23272000Y13837934D01*
X23214279Y14128117D01*
X23101056Y14401464D01*
X22936680Y14647469D01*
X22727469Y14856680D01*
X22572840Y14960000D01*
X22727469Y15063320D01*
X22936680Y15272531D01*
X23101056Y15518536D01*
X23214279Y15791883D01*
X23272000Y16082066D01*
X23272000Y16377934D01*
X23214279Y16668117D01*
X23101056Y16941464D01*
X22936680Y17187469D01*
X22727469Y17396680D01*
X22566307Y17504365D01*
X22636635Y17723760D01*
X21770000Y18590395D01*
X20903365Y17723760D01*
X20973693Y17504365D01*
X20812531Y17396680D01*
X20603320Y17187469D01*
X20500000Y17032840D01*
X20396680Y17187469D01*
X20187469Y17396680D01*
X20032840Y17500000D01*
X20187469Y17603320D01*
X20396680Y17812531D01*
X20504365Y17973693D01*
X20723760Y17903365D01*
X21590395Y18770000D01*
X21949605Y18770000D01*
X22816240Y17903365D01*
X23067868Y17984025D01*
X23196267Y18252329D01*
X23269855Y18540526D01*
X23285804Y18837543D01*
X23243501Y19131963D01*
X23144572Y19412474D01*
X23067868Y19555975D01*
X22816240Y19636635D01*
X21949605Y18770000D01*
X21590395Y18770000D01*
X20723760Y19636635D01*
X20504365Y19566307D01*
X20396680Y19727469D01*
X20187469Y19936680D01*
X20032840Y20040000D01*
X20187469Y20143320D01*
X20396680Y20352531D01*
X20500000Y20507160D01*
X20603320Y20352531D01*
X20812531Y20143320D01*
X20973693Y20035635D01*
X20903365Y19816240D01*
X21770000Y18949605D01*
X22636635Y19816240D01*
X22566307Y20035635D01*
X22727469Y20143320D01*
X22936680Y20352531D01*
X23101056Y20598536D01*
X23214279Y20871883D01*
X23272000Y21162066D01*
X23272000Y21457934D01*
X23214279Y21748117D01*
X23101056Y22021464D01*
X22936680Y22267469D01*
X22727469Y22476680D01*
X22481464Y22641056D01*
X22208117Y22754279D01*
X21917934Y22812000D01*
X21622066Y22812000D01*
X21331883Y22754279D01*
X21058536Y22641056D01*
X20812531Y22476680D01*
X20603320Y22267469D01*
X20500000Y22112840D01*
X20396680Y22267469D01*
X20187469Y22476680D01*
X19941464Y22641056D01*
X19668117Y22754279D01*
X19377934Y22812000D01*
X19082066Y22812000D01*
X18791883Y22754279D01*
X18518536Y22641056D01*
X18272531Y22476680D01*
X18063320Y22267469D01*
X17898944Y22021464D01*
X17785721Y21748117D01*
X17728000Y21457934D01*
X6470543Y21457934D01*
X6420240Y21710825D01*
X6308901Y21979622D01*
X6147261Y22221533D01*
X5941533Y22427261D01*
X5757841Y22550000D01*
X5941533Y22672739D01*
X6147261Y22878467D01*
X6308901Y23120378D01*
X6420240Y23389175D01*
X6477000Y23674528D01*
X6477000Y23965472D01*
X6420240Y24250825D01*
X6308901Y24519622D01*
X6147261Y24761533D01*
X5941533Y24967261D01*
X5757841Y25090000D01*
X5941533Y25212739D01*
X6147261Y25418467D01*
X6308901Y25660378D01*
X6420240Y25929175D01*
X6477000Y26214528D01*
X6477000Y26505472D01*
X6420240Y26790825D01*
X6308901Y27059622D01*
X6147261Y27301533D01*
X5941533Y27507261D01*
X5757841Y27630000D01*
X5941533Y27752739D01*
X6147261Y27958467D01*
X6308901Y28200378D01*
X6420240Y28469175D01*
X6477000Y28754528D01*
X6477000Y29045472D01*
X6420240Y29330825D01*
X6308901Y29599622D01*
X6147261Y29841533D01*
X5941533Y30047261D01*
X5757841Y30170000D01*
X5941533Y30292739D01*
X6147261Y30498467D01*
X6308901Y30740378D01*
X6420240Y31009175D01*
X6477000Y31294528D01*
X6477000Y31585472D01*
X6420240Y31870825D01*
X6308901Y32139622D01*
X6147261Y32381533D01*
X5941533Y32587261D01*
X5757841Y32710000D01*
X5941533Y32832739D01*
X6147261Y33038467D01*
X6308901Y33280378D01*
X6420240Y33549175D01*
X6477000Y33834528D01*
X6477000Y34125472D01*
X6420240Y34410825D01*
X6308901Y34679622D01*
X6147261Y34921533D01*
X5941533Y35127261D01*
X5757841Y35250000D01*
X5941533Y35372739D01*
X6147261Y35578467D01*
X6308901Y35820378D01*
X6420240Y36089175D01*
X6477000Y36374528D01*
X6477000Y36665472D01*
X6420240Y36950825D01*
X6308901Y37219622D01*
X6147261Y37461533D01*
X5941533Y37667261D01*
X5699622Y37828901D01*
X5430825Y37940240D01*
X5145472Y37997000D01*
X4854528Y37997000D01*
X4569175Y37940240D01*
X4300378Y37828901D01*
X4058467Y37667261D01*
X3852739Y37461533D01*
X3691099Y37219622D01*
X3579760Y36950825D01*
X3523000Y36665472D01*
X752000Y36665472D01*
X752000Y39248000D01*
X29248001Y39248000D01*
X29248000Y752000D01*
%TD*%
M02*
